G04*
G04 #@! TF.GenerationSoftware,Altium Limited,Altium Designer,22.1.2 (22)*
G04*
G04 Layer_Color=8388736*
%FSLAX44Y44*%
%MOMM*%
G71*
G04*
G04 #@! TF.SameCoordinates,29E8C143-3DC4-495F-BF5F-5F13AAE0725B*
G04*
G04*
G04 #@! TF.FilePolarity,Positive*
G04*
G01*
G75*
%ADD135C,0.1270*%
D135*
X1568000Y1010899D02*
X1570715Y1008184D01*
X1576000Y1010899D02*
Y1011000D01*
X1573285Y1008184D02*
X1576000Y1010899D01*
X1568000D02*
Y1011000D01*
X1437000Y689000D02*
X1437202Y688798D01*
X1477000Y833365D02*
X1550000Y906366D01*
X1474430Y834430D02*
X1547430Y907430D01*
X1443089Y686455D02*
X1452136Y695502D01*
X1442839Y686204D02*
X1443089Y686455D01*
Y686455D01*
X1442839Y682979D02*
Y686204D01*
X1451072Y698072D02*
X1451072D01*
X1452136Y695502D02*
X1477000Y720366D01*
X1442430Y682570D02*
X1442839Y682979D01*
X1474430Y721430D02*
Y834430D01*
X1437202Y688798D02*
X1441798D01*
X1451072Y698072D02*
X1474430Y721430D01*
X1441798Y688798D02*
X1451072Y698072D01*
X1477000Y720366D02*
Y833365D01*
X1452136Y695502D02*
X1452136D01*
X1550000Y955000D02*
X1573285Y978285D01*
Y1008184D01*
X1570715Y979350D02*
Y1008184D01*
X1547430Y956065D02*
X1570715Y979350D01*
X1547430Y907430D02*
Y956065D01*
X1550000Y906366D02*
Y955000D01*
M02*
