G04*
G04 #@! TF.GenerationSoftware,Altium Limited,Altium Designer,22.1.2 (22)*
G04*
G04 Layer_Color=16711935*
%FSLAX44Y44*%
%MOMM*%
G71*
G04*
G04 #@! TF.SameCoordinates,29E8C143-3DC4-495F-BF5F-5F13AAE0725B*
G04*
G04*
G04 #@! TF.FilePolarity,Positive*
G04*
G01*
G75*
%ADD135C,0.1270*%
D135*
X1640000Y679627D02*
Y688750D01*
X1639043Y678670D02*
X1640000Y679627D01*
X1635000Y679473D02*
X1636473Y678000D01*
X1635000Y679473D02*
Y688750D01*
X1663000Y662635D02*
X1683349Y642285D01*
X1682285Y639715D02*
X1691518D01*
X1657000Y665000D02*
X1663000Y659000D01*
X1658065Y667570D02*
X1663000Y662635D01*
Y659000D02*
X1682285Y639715D01*
X1683349Y642285D02*
X1691518D01*
X1710339Y637161D02*
X1710500Y637000D01*
X1697350Y645000D02*
X1710500D01*
X1694635Y642285D02*
X1697350Y645000D01*
X1691518Y642285D02*
X1694635D01*
X1694285Y639715D02*
X1696839Y637161D01*
X1710339D01*
X1691518Y639715D02*
X1694285D01*
X1633000Y618430D02*
X1643785Y629215D01*
X1631935Y621000D02*
X1641215Y630280D01*
X1609500Y625500D02*
X1614000Y621000D01*
X1631935D01*
X1600500Y625500D02*
X1609500D01*
X1600500Y612800D02*
X1608800D01*
X1614430Y618430D01*
X1633000D01*
X1641215Y630280D02*
Y634035D01*
X1640000Y635250D02*
X1641215Y634035D01*
X1640000Y635250D02*
Y644250D01*
X1643785Y633785D02*
X1645000Y635000D01*
Y644250D01*
X1643785Y629215D02*
Y633785D01*
X1607065Y682570D02*
X1626909Y662726D01*
X1635000Y644250D02*
Y654634D01*
X1626909Y662726D02*
Y662726D01*
Y662726D02*
X1635000Y654634D01*
X1606000Y680000D02*
X1630000Y656000D01*
Y644250D02*
Y656000D01*
X1573250Y693000D02*
X1574465Y694215D01*
X1564250Y693000D02*
X1573250D01*
X1573000Y698000D02*
X1574215Y696785D01*
X1564250Y698000D02*
X1573000D01*
X1580785Y694215D02*
X1595000Y680000D01*
X1606000D01*
X1581850Y696785D02*
X1596064Y682570D01*
X1574465Y694215D02*
X1580785D01*
X1574215Y696785D02*
X1581850D01*
X1596064Y682570D02*
X1607065D01*
X1657285Y499285D02*
Y517285D01*
X1634000Y476000D02*
X1657285Y499285D01*
Y517285D02*
X1665500Y525500D01*
X1666000D01*
X1595000Y490000D02*
Y590365D01*
X1599000Y486000D02*
X1605000Y480000D01*
X1583365Y602000D02*
X1595000Y590365D01*
Y490000D02*
X1599000Y486000D01*
X1605000Y480000D02*
X1609000Y476000D01*
X1634000D01*
X1579000Y606366D02*
X1583365Y602000D01*
X1579000Y606366D02*
Y681000D01*
X1564250Y683000D02*
X1564411Y683161D01*
X1573215Y684215D02*
X1575785D01*
X1564411Y683161D02*
X1572161D01*
X1573215Y684215D01*
X1575785D02*
X1579000Y681000D01*
X1646000Y525500D02*
X1646500D01*
X1654715Y500349D02*
Y517285D01*
X1632935Y478570D02*
X1654715Y500349D01*
X1646500Y525500D02*
X1654715Y517285D01*
X1608634Y480000D02*
X1610065Y478570D01*
X1597570Y491064D02*
X1599000Y489635D01*
X1587000Y602000D02*
X1597570Y591430D01*
Y491064D02*
Y591430D01*
X1599000Y489635D02*
X1608634Y480000D01*
X1610065Y478570D02*
X1632935D01*
X1581570Y607430D02*
X1587000Y602000D01*
X1581570Y607430D02*
Y682065D01*
X1564411Y687839D02*
X1572161D01*
X1573215Y686785D02*
X1576850D01*
X1572161Y687839D02*
X1573215Y686785D01*
X1564250Y688000D02*
X1564411Y687839D01*
X1576850Y686785D02*
X1581570Y682065D01*
X1568000Y1011000D02*
X1571000Y1014000D01*
Y1022000D01*
X1622000Y1109500D02*
X1622205Y1109295D01*
Y1096839D02*
Y1109295D01*
X1571000Y1022000D02*
X1624715Y1075715D01*
Y1094329D01*
X1622205Y1096839D02*
X1624715Y1094329D01*
X1576000Y1011000D02*
Y1011429D01*
X1573570Y1013859D02*
X1576000Y1011429D01*
X1573570Y1013859D02*
Y1020935D01*
X1627285Y1074650D02*
Y1094285D01*
X1573570Y1020935D02*
X1627285Y1074650D01*
Y1094285D02*
X1629839Y1096839D01*
Y1109339D01*
X1630000Y1109500D01*
X1234000Y811700D02*
Y814200D01*
X1233285Y810985D02*
X1234000Y811700D01*
X1230000D02*
Y814200D01*
Y811700D02*
X1230715Y810985D01*
X1233285Y789743D02*
Y810985D01*
X1230715Y788678D02*
Y810985D01*
X1233285Y789743D02*
X1237115Y785912D01*
X1230715Y788678D02*
X1234545Y784848D01*
X1237115Y778000D02*
Y785912D01*
X1234545Y778000D02*
Y784848D01*
X1435747Y680000D02*
X1438519Y682772D01*
X1437000Y689000D02*
X1437202Y688798D01*
X1442228Y682772D02*
X1442430Y682570D01*
X1434683D02*
X1437202Y685089D01*
X1297000Y680000D02*
X1435747D01*
X1289000Y675635D02*
X1295936Y682570D01*
X1289000Y672000D02*
X1297000Y680000D01*
X1295936Y682570D02*
X1434683D01*
X1437202Y685089D02*
Y688798D01*
X1438519Y682772D02*
X1442228D01*
X1267950Y654585D02*
X1289000Y675635D01*
X1269015Y652015D02*
X1289000Y672000D01*
X1243750Y655800D02*
X1253200D01*
X1254415Y654585D01*
X1267950D01*
X1254015Y652015D02*
X1269015D01*
X1252800Y650800D02*
X1254015Y652015D01*
X1243750Y650800D02*
X1252800D01*
X1506033Y691785D02*
X1506033Y691785D01*
X1504969Y689215D02*
X1509785D01*
X1509785Y691785D02*
X1511000Y693000D01*
X1509785Y689215D02*
X1511000Y688000D01*
X1511000Y693000D02*
X1519750D01*
X1506033Y691785D02*
X1509785D01*
X1511000Y688000D02*
X1519750D01*
X1237115Y759885D02*
Y778000D01*
X1234545Y758820D02*
Y778000D01*
Y758820D02*
X1267365Y726000D01*
X1237115Y759885D02*
X1271000Y726000D01*
X1284430Y712570D02*
X1289000D01*
Y710000D02*
X1455365D01*
X1267365Y726000D02*
X1283365Y710000D01*
X1289000Y712570D02*
X1456430D01*
X1271000Y726000D02*
X1284430Y712570D01*
X1283365Y710000D02*
X1289000D01*
X1503904Y691785D02*
X1503904Y691785D01*
X1489000Y691785D02*
X1503904D01*
X1490065Y689215D02*
X1490065Y689215D01*
X1456430Y712570D02*
X1477215Y691785D01*
X1476151Y689215D02*
X1486578D01*
X1486578Y689215D02*
X1489000D01*
X1486578Y689215D02*
X1486578Y689215D01*
X1487643Y691785D02*
X1487643Y691785D01*
X1477215Y691785D02*
X1487643D01*
X1487643Y691785D02*
X1489000D01*
Y691785D01*
X1455365Y710000D02*
X1476151Y689215D01*
X1489000Y691785D02*
X1489000Y691785D01*
X1489000Y689215D02*
X1490065D01*
X1490065Y689215D02*
X1504969D01*
X1504969Y689215D01*
X1503904Y691785D02*
X1506033D01*
X1639043Y674591D02*
Y678670D01*
X1636473Y673527D02*
Y678000D01*
Y673527D02*
X1645000Y665000D01*
X1646064Y667570D02*
X1658065D01*
X1639043Y674591D02*
X1646064Y667570D01*
X1645000Y665000D02*
X1657000D01*
M02*
