G04*
G04 #@! TF.GenerationSoftware,Altium Limited,Altium Designer,22.1.2 (22)*
G04*
G04 Layer_Color=128*
%FSLAX44Y44*%
%MOMM*%
G71*
G04*
G04 #@! TF.SameCoordinates,29E8C143-3DC4-495F-BF5F-5F13AAE0725B*
G04*
G04*
G04 #@! TF.FilePolarity,Positive*
G04*
G01*
G75*
%ADD142C,2.0000*%
D142*
X530000Y1010000D02*
D03*
X380000D02*
D03*
X840000Y450000D02*
D03*
X250000Y760000D02*
D03*
X680000Y570000D02*
D03*
X300000Y950000D02*
D03*
X610000Y420000D02*
D03*
X867000D02*
D03*
X760000D02*
D03*
X1017000D02*
D03*
X640000D02*
D03*
X897000D02*
D03*
X640000Y450000D02*
D03*
X897000D02*
D03*
X620000Y190000D02*
D03*
X750000D02*
D03*
X1000000D02*
D03*
X880000D02*
D03*
X520000Y160000D02*
D03*
X579590Y937020D02*
D03*
X707080D02*
D03*
X834570D02*
D03*
X962060D02*
D03*
X1089550D02*
D03*
X1217040D02*
D03*
X1344530D02*
D03*
X1472020D02*
D03*
X1170000Y610000D02*
D03*
X1460000Y600000D02*
D03*
X1550000Y650000D02*
D03*
Y620000D02*
D03*
X1610000Y720000D02*
D03*
X1550000D02*
D03*
X760000D02*
D03*
X1400000Y570000D02*
D03*
X1350000Y650000D02*
D03*
X510000Y390000D02*
D03*
X480000D02*
D03*
X490000Y1010000D02*
D03*
X580000Y450000D02*
D03*
X840000Y420000D02*
D03*
X580000D02*
D03*
M02*
