G04*
G04 #@! TF.GenerationSoftware,Altium Limited,Altium Designer,22.1.2 (22)*
G04*
G04 Layer_Color=8388736*
%FSLAX44Y44*%
%MOMM*%
G71*
G04*
G04 #@! TF.SameCoordinates,29E8C143-3DC4-495F-BF5F-5F13AAE0725B*
G04*
G04*
G04 #@! TF.FilePolarity,Negative*
G04*
G01*
G75*
G04:AMPARAMS|DCode=67|XSize=1.3mm|YSize=2.3mm|CornerRadius=0.23mm|HoleSize=0mm|Usage=FLASHONLY|Rotation=90.000|XOffset=0mm|YOffset=0mm|HoleType=Round|Shape=RoundedRectangle|*
%AMROUNDEDRECTD67*
21,1,1.3000,1.8400,0,0,90.0*
21,1,0.8400,2.3000,0,0,90.0*
1,1,0.4600,0.9200,0.4200*
1,1,0.4600,0.9200,-0.4200*
1,1,0.4600,-0.9200,-0.4200*
1,1,0.4600,-0.9200,0.4200*
%
%ADD67ROUNDEDRECTD67*%
G04:AMPARAMS|DCode=68|XSize=1.7mm|YSize=1.6mm|CornerRadius=0.275mm|HoleSize=0mm|Usage=FLASHONLY|Rotation=90.000|XOffset=0mm|YOffset=0mm|HoleType=Round|Shape=RoundedRectangle|*
%AMROUNDEDRECTD68*
21,1,1.7000,1.0500,0,0,90.0*
21,1,1.1500,1.6000,0,0,90.0*
1,1,0.5500,0.5250,0.5750*
1,1,0.5500,0.5250,-0.5750*
1,1,0.5500,-0.5250,-0.5750*
1,1,0.5500,-0.5250,0.5750*
%
%ADD68ROUNDEDRECTD68*%
G04:AMPARAMS|DCode=69|XSize=0.8mm|YSize=1.7mm|CornerRadius=0.155mm|HoleSize=0mm|Usage=FLASHONLY|Rotation=90.000|XOffset=0mm|YOffset=0mm|HoleType=Round|Shape=RoundedRectangle|*
%AMROUNDEDRECTD69*
21,1,0.8000,1.3900,0,0,90.0*
21,1,0.4900,1.7000,0,0,90.0*
1,1,0.3100,0.6950,0.2450*
1,1,0.3100,0.6950,-0.2450*
1,1,0.3100,-0.6950,-0.2450*
1,1,0.3100,-0.6950,0.2450*
%
%ADD69ROUNDEDRECTD69*%
G04:AMPARAMS|DCode=70|XSize=1.3mm|YSize=1.6mm|CornerRadius=0.23mm|HoleSize=0mm|Usage=FLASHONLY|Rotation=90.000|XOffset=0mm|YOffset=0mm|HoleType=Round|Shape=RoundedRectangle|*
%AMROUNDEDRECTD70*
21,1,1.3000,1.1400,0,0,90.0*
21,1,0.8400,1.6000,0,0,90.0*
1,1,0.4600,0.5700,0.4200*
1,1,0.4600,0.5700,-0.4200*
1,1,0.4600,-0.5700,-0.4200*
1,1,0.4600,-0.5700,0.4200*
%
%ADD70ROUNDEDRECTD70*%
G04:AMPARAMS|DCode=71|XSize=3.1mm|YSize=2.1mm|CornerRadius=0.15mm|HoleSize=0mm|Usage=FLASHONLY|Rotation=0.000|XOffset=0mm|YOffset=0mm|HoleType=Round|Shape=RoundedRectangle|*
%AMROUNDEDRECTD71*
21,1,3.1000,1.8000,0,0,0.0*
21,1,2.8000,2.1000,0,0,0.0*
1,1,0.3000,1.4000,-0.9000*
1,1,0.3000,-1.4000,-0.9000*
1,1,0.3000,-1.4000,0.9000*
1,1,0.3000,1.4000,0.9000*
%
%ADD71ROUNDEDRECTD71*%
G04:AMPARAMS|DCode=72|XSize=1.4mm|YSize=0.4mm|CornerRadius=0.125mm|HoleSize=0mm|Usage=FLASHONLY|Rotation=0.000|XOffset=0mm|YOffset=0mm|HoleType=Round|Shape=RoundedRectangle|*
%AMROUNDEDRECTD72*
21,1,1.4000,0.1500,0,0,0.0*
21,1,1.1500,0.4000,0,0,0.0*
1,1,0.2500,0.5750,-0.0750*
1,1,0.2500,-0.5750,-0.0750*
1,1,0.2500,-0.5750,0.0750*
1,1,0.2500,0.5750,0.0750*
%
%ADD72ROUNDEDRECTD72*%
G04:AMPARAMS|DCode=73|XSize=1.65mm|YSize=0.4mm|CornerRadius=0.125mm|HoleSize=0mm|Usage=FLASHONLY|Rotation=0.000|XOffset=0mm|YOffset=0mm|HoleType=Round|Shape=RoundedRectangle|*
%AMROUNDEDRECTD73*
21,1,1.6500,0.1500,0,0,0.0*
21,1,1.4000,0.4000,0,0,0.0*
1,1,0.2500,0.7000,-0.0750*
1,1,0.2500,-0.7000,-0.0750*
1,1,0.2500,-0.7000,0.0750*
1,1,0.2500,0.7000,0.0750*
%
%ADD73ROUNDEDRECTD73*%
G04:AMPARAMS|DCode=74|XSize=1.36mm|YSize=0.46mm|CornerRadius=0.14mm|HoleSize=0mm|Usage=FLASHONLY|Rotation=270.000|XOffset=0mm|YOffset=0mm|HoleType=Round|Shape=RoundedRectangle|*
%AMROUNDEDRECTD74*
21,1,1.3600,0.1800,0,0,270.0*
21,1,1.0800,0.4600,0,0,270.0*
1,1,0.2800,-0.0900,-0.5400*
1,1,0.2800,-0.0900,0.5400*
1,1,0.2800,0.0900,0.5400*
1,1,0.2800,0.0900,-0.5400*
%
%ADD74ROUNDEDRECTD74*%
G04:AMPARAMS|DCode=75|XSize=1.3mm|YSize=4.1mm|CornerRadius=0.35mm|HoleSize=0mm|Usage=FLASHONLY|Rotation=270.000|XOffset=0mm|YOffset=0mm|HoleType=Round|Shape=RoundedRectangle|*
%AMROUNDEDRECTD75*
21,1,1.3000,3.4000,0,0,270.0*
21,1,0.6000,4.1000,0,0,270.0*
1,1,0.7000,-1.7000,-0.3000*
1,1,0.7000,-1.7000,0.3000*
1,1,0.7000,1.7000,0.3000*
1,1,0.7000,1.7000,-0.3000*
%
%ADD75ROUNDEDRECTD75*%
G04:AMPARAMS|DCode=76|XSize=10.1mm|YSize=9.1mm|CornerRadius=0.95mm|HoleSize=0mm|Usage=FLASHONLY|Rotation=270.000|XOffset=0mm|YOffset=0mm|HoleType=Round|Shape=RoundedRectangle|*
%AMROUNDEDRECTD76*
21,1,10.1000,7.2000,0,0,270.0*
21,1,8.2000,9.1000,0,0,270.0*
1,1,1.9000,-3.6000,-4.1000*
1,1,1.9000,-3.6000,4.1000*
1,1,1.9000,3.6000,4.1000*
1,1,1.9000,3.6000,-4.1000*
%
%ADD76ROUNDEDRECTD76*%
G04:AMPARAMS|DCode=77|XSize=5.9mm|YSize=6.5mm|CornerRadius=0.63mm|HoleSize=0mm|Usage=FLASHONLY|Rotation=0.000|XOffset=0mm|YOffset=0mm|HoleType=Round|Shape=RoundedRectangle|*
%AMROUNDEDRECTD77*
21,1,5.9000,5.2400,0,0,0.0*
21,1,4.6400,6.5000,0,0,0.0*
1,1,1.2600,2.3200,-2.6200*
1,1,1.2600,-2.3200,-2.6200*
1,1,1.2600,-2.3200,2.6200*
1,1,1.2600,2.3200,2.6200*
%
%ADD77ROUNDEDRECTD77*%
G04:AMPARAMS|DCode=78|XSize=1.3mm|YSize=2.3mm|CornerRadius=0.35mm|HoleSize=0mm|Usage=FLASHONLY|Rotation=0.000|XOffset=0mm|YOffset=0mm|HoleType=Round|Shape=RoundedRectangle|*
%AMROUNDEDRECTD78*
21,1,1.3000,1.6000,0,0,0.0*
21,1,0.6000,2.3000,0,0,0.0*
1,1,0.7000,0.3000,-0.8000*
1,1,0.7000,-0.3000,-0.8000*
1,1,0.7000,-0.3000,0.8000*
1,1,0.7000,0.3000,0.8000*
%
%ADD78ROUNDEDRECTD78*%
G04:AMPARAMS|DCode=79|XSize=3.2mm|YSize=5.6mm|CornerRadius=0.515mm|HoleSize=0mm|Usage=FLASHONLY|Rotation=0.000|XOffset=0mm|YOffset=0mm|HoleType=Round|Shape=RoundedRectangle|*
%AMROUNDEDRECTD79*
21,1,3.2000,4.5700,0,0,0.0*
21,1,2.1700,5.6000,0,0,0.0*
1,1,1.0300,1.0850,-2.2850*
1,1,1.0300,-1.0850,-2.2850*
1,1,1.0300,-1.0850,2.2850*
1,1,1.0300,1.0850,2.2850*
%
%ADD79ROUNDEDRECTD79*%
G04:AMPARAMS|DCode=80|XSize=1mm|YSize=0.6mm|CornerRadius=0.175mm|HoleSize=0mm|Usage=FLASHONLY|Rotation=0.000|XOffset=0mm|YOffset=0mm|HoleType=Round|Shape=RoundedRectangle|*
%AMROUNDEDRECTD80*
21,1,1.0000,0.2500,0,0,0.0*
21,1,0.6500,0.6000,0,0,0.0*
1,1,0.3500,0.3250,-0.1250*
1,1,0.3500,-0.3250,-0.1250*
1,1,0.3500,-0.3250,0.1250*
1,1,0.3500,0.3250,0.1250*
%
%ADD80ROUNDEDRECTD80*%
G04:AMPARAMS|DCode=81|XSize=1.5mm|YSize=0.6mm|CornerRadius=0.175mm|HoleSize=0mm|Usage=FLASHONLY|Rotation=90.000|XOffset=0mm|YOffset=0mm|HoleType=Round|Shape=RoundedRectangle|*
%AMROUNDEDRECTD81*
21,1,1.5000,0.2500,0,0,90.0*
21,1,1.1500,0.6000,0,0,90.0*
1,1,0.3500,0.1250,0.5750*
1,1,0.3500,0.1250,-0.5750*
1,1,0.3500,-0.1250,-0.5750*
1,1,0.3500,-0.1250,0.5750*
%
%ADD81ROUNDEDRECTD81*%
G04:AMPARAMS|DCode=82|XSize=0.8mm|YSize=1.3mm|CornerRadius=0.12mm|HoleSize=0mm|Usage=FLASHONLY|Rotation=90.000|XOffset=0mm|YOffset=0mm|HoleType=Round|Shape=RoundedRectangle|*
%AMROUNDEDRECTD82*
21,1,0.8000,1.0600,0,0,90.0*
21,1,0.5600,1.3000,0,0,90.0*
1,1,0.2400,0.5300,0.2800*
1,1,0.2400,0.5300,-0.2800*
1,1,0.2400,-0.5300,-0.2800*
1,1,0.2400,-0.5300,0.2800*
%
%ADD82ROUNDEDRECTD82*%
G04:AMPARAMS|DCode=83|XSize=1.35mm|YSize=3.5mm|CornerRadius=0.175mm|HoleSize=0mm|Usage=FLASHONLY|Rotation=0.000|XOffset=0mm|YOffset=0mm|HoleType=Round|Shape=RoundedRectangle|*
%AMROUNDEDRECTD83*
21,1,1.3500,3.1500,0,0,0.0*
21,1,1.0000,3.5000,0,0,0.0*
1,1,0.3500,0.5000,-1.5750*
1,1,0.3500,-0.5000,-1.5750*
1,1,0.3500,-0.5000,1.5750*
1,1,0.3500,0.5000,1.5750*
%
%ADD83ROUNDEDRECTD83*%
G04:AMPARAMS|DCode=84|XSize=1.25mm|YSize=1.9mm|CornerRadius=0.165mm|HoleSize=0mm|Usage=FLASHONLY|Rotation=0.000|XOffset=0mm|YOffset=0mm|HoleType=Round|Shape=RoundedRectangle|*
%AMROUNDEDRECTD84*
21,1,1.2500,1.5700,0,0,0.0*
21,1,0.9200,1.9000,0,0,0.0*
1,1,0.3300,0.4600,-0.7850*
1,1,0.3300,-0.4600,-0.7850*
1,1,0.3300,-0.4600,0.7850*
1,1,0.3300,0.4600,0.7850*
%
%ADD84ROUNDEDRECTD84*%
G04:AMPARAMS|DCode=85|XSize=0.67mm|YSize=0.72mm|CornerRadius=0.107mm|HoleSize=0mm|Usage=FLASHONLY|Rotation=180.000|XOffset=0mm|YOffset=0mm|HoleType=Round|Shape=RoundedRectangle|*
%AMROUNDEDRECTD85*
21,1,0.6700,0.5060,0,0,180.0*
21,1,0.4560,0.7200,0,0,180.0*
1,1,0.2140,-0.2280,0.2530*
1,1,0.2140,0.2280,0.2530*
1,1,0.2140,0.2280,-0.2530*
1,1,0.2140,-0.2280,-0.2530*
%
%ADD85ROUNDEDRECTD85*%
G04:AMPARAMS|DCode=86|XSize=1.05mm|YSize=1.1mm|CornerRadius=0.145mm|HoleSize=0mm|Usage=FLASHONLY|Rotation=90.000|XOffset=0mm|YOffset=0mm|HoleType=Round|Shape=RoundedRectangle|*
%AMROUNDEDRECTD86*
21,1,1.0500,0.8100,0,0,90.0*
21,1,0.7600,1.1000,0,0,90.0*
1,1,0.2900,0.4050,0.3800*
1,1,0.2900,0.4050,-0.3800*
1,1,0.2900,-0.4050,-0.3800*
1,1,0.2900,-0.4050,0.3800*
%
%ADD86ROUNDEDRECTD86*%
G04:AMPARAMS|DCode=87|XSize=0.67mm|YSize=0.72mm|CornerRadius=0.107mm|HoleSize=0mm|Usage=FLASHONLY|Rotation=270.000|XOffset=0mm|YOffset=0mm|HoleType=Round|Shape=RoundedRectangle|*
%AMROUNDEDRECTD87*
21,1,0.6700,0.5060,0,0,270.0*
21,1,0.4560,0.7200,0,0,270.0*
1,1,0.2140,-0.2530,-0.2280*
1,1,0.2140,-0.2530,0.2280*
1,1,0.2140,0.2530,0.2280*
1,1,0.2140,0.2530,-0.2280*
%
%ADD87ROUNDEDRECTD87*%
G04:AMPARAMS|DCode=88|XSize=0.4mm|YSize=1.45mm|CornerRadius=0.095mm|HoleSize=0mm|Usage=FLASHONLY|Rotation=0.000|XOffset=0mm|YOffset=0mm|HoleType=Round|Shape=RoundedRectangle|*
%AMROUNDEDRECTD88*
21,1,0.4000,1.2600,0,0,0.0*
21,1,0.2100,1.4500,0,0,0.0*
1,1,0.1900,0.1050,-0.6300*
1,1,0.1900,-0.1050,-0.6300*
1,1,0.1900,-0.1050,0.6300*
1,1,0.1900,0.1050,0.6300*
%
%ADD88ROUNDEDRECTD88*%
%ADD89O,1.6500X0.3500*%
%ADD90O,0.3500X1.6500*%
G04:AMPARAMS|DCode=91|XSize=4.3mm|YSize=2.1mm|CornerRadius=0.35mm|HoleSize=0mm|Usage=FLASHONLY|Rotation=0.000|XOffset=0mm|YOffset=0mm|HoleType=Round|Shape=RoundedRectangle|*
%AMROUNDEDRECTD91*
21,1,4.3000,1.4000,0,0,0.0*
21,1,3.6000,2.1000,0,0,0.0*
1,1,0.7000,1.8000,-0.7000*
1,1,0.7000,-1.8000,-0.7000*
1,1,0.7000,-1.8000,0.7000*
1,1,0.7000,1.8000,0.7000*
%
%ADD91ROUNDEDRECTD91*%
G04:AMPARAMS|DCode=92|XSize=2.7mm|YSize=0.4mm|CornerRadius=0.125mm|HoleSize=0mm|Usage=FLASHONLY|Rotation=180.000|XOffset=0mm|YOffset=0mm|HoleType=Round|Shape=RoundedRectangle|*
%AMROUNDEDRECTD92*
21,1,2.7000,0.1500,0,0,180.0*
21,1,2.4500,0.4000,0,0,180.0*
1,1,0.2500,-1.2250,0.0750*
1,1,0.2500,1.2250,0.0750*
1,1,0.2500,1.2250,-0.0750*
1,1,0.2500,-1.2250,-0.0750*
%
%ADD92ROUNDEDRECTD92*%
%ADD93C,2.8000*%
G04:AMPARAMS|DCode=94|XSize=2.1mm|YSize=3.5mm|CornerRadius=0.25mm|HoleSize=0mm|Usage=FLASHONLY|Rotation=270.000|XOffset=0mm|YOffset=0mm|HoleType=Round|Shape=RoundedRectangle|*
%AMROUNDEDRECTD94*
21,1,2.1000,3.0000,0,0,270.0*
21,1,1.6000,3.5000,0,0,270.0*
1,1,0.5000,-1.5000,-0.8000*
1,1,0.5000,-1.5000,0.8000*
1,1,0.5000,1.5000,0.8000*
1,1,0.5000,1.5000,-0.8000*
%
%ADD94ROUNDEDRECTD94*%
G04:AMPARAMS|DCode=95|XSize=0.3mm|YSize=0.8mm|CornerRadius=0.1mm|HoleSize=0mm|Usage=FLASHONLY|Rotation=0.000|XOffset=0mm|YOffset=0mm|HoleType=Round|Shape=RoundedRectangle|*
%AMROUNDEDRECTD95*
21,1,0.3000,0.6000,0,0,0.0*
21,1,0.1000,0.8000,0,0,0.0*
1,1,0.2000,0.0500,-0.3000*
1,1,0.2000,-0.0500,-0.3000*
1,1,0.2000,-0.0500,0.3000*
1,1,0.2000,0.0500,0.3000*
%
%ADD95ROUNDEDRECTD95*%
G04:AMPARAMS|DCode=96|XSize=1.5mm|YSize=1.3mm|CornerRadius=0.23mm|HoleSize=0mm|Usage=FLASHONLY|Rotation=270.000|XOffset=0mm|YOffset=0mm|HoleType=Round|Shape=RoundedRectangle|*
%AMROUNDEDRECTD96*
21,1,1.5000,0.8400,0,0,270.0*
21,1,1.0400,1.3000,0,0,270.0*
1,1,0.4600,-0.4200,-0.5200*
1,1,0.4600,-0.4200,0.5200*
1,1,0.4600,0.4200,0.5200*
1,1,0.4600,0.4200,-0.5200*
%
%ADD96ROUNDEDRECTD96*%
G04:AMPARAMS|DCode=97|XSize=1.1mm|YSize=1.9mm|CornerRadius=0.15mm|HoleSize=0mm|Usage=FLASHONLY|Rotation=180.000|XOffset=0mm|YOffset=0mm|HoleType=Round|Shape=RoundedRectangle|*
%AMROUNDEDRECTD97*
21,1,1.1000,1.6000,0,0,180.0*
21,1,0.8000,1.9000,0,0,180.0*
1,1,0.3000,-0.4000,0.8000*
1,1,0.3000,0.4000,0.8000*
1,1,0.3000,0.4000,-0.8000*
1,1,0.3000,-0.4000,-0.8000*
%
%ADD97ROUNDEDRECTD97*%
G04:AMPARAMS|DCode=98|XSize=0.8mm|YSize=1.5mm|CornerRadius=0.155mm|HoleSize=0mm|Usage=FLASHONLY|Rotation=90.000|XOffset=0mm|YOffset=0mm|HoleType=Round|Shape=RoundedRectangle|*
%AMROUNDEDRECTD98*
21,1,0.8000,1.1900,0,0,90.0*
21,1,0.4900,1.5000,0,0,90.0*
1,1,0.3100,0.5950,0.2450*
1,1,0.3100,0.5950,-0.2450*
1,1,0.3100,-0.5950,-0.2450*
1,1,0.3100,-0.5950,0.2450*
%
%ADD98ROUNDEDRECTD98*%
G04:AMPARAMS|DCode=99|XSize=2.6mm|YSize=2.1mm|CornerRadius=0.35mm|HoleSize=0mm|Usage=FLASHONLY|Rotation=270.000|XOffset=0mm|YOffset=0mm|HoleType=Round|Shape=RoundedRectangle|*
%AMROUNDEDRECTD99*
21,1,2.6000,1.4000,0,0,270.0*
21,1,1.9000,2.1000,0,0,270.0*
1,1,0.7000,-0.7000,-0.9500*
1,1,0.7000,-0.7000,0.9500*
1,1,0.7000,0.7000,0.9500*
1,1,0.7000,0.7000,-0.9500*
%
%ADD99ROUNDEDRECTD99*%
G04:AMPARAMS|DCode=100|XSize=2.4mm|YSize=0.6mm|CornerRadius=0.125mm|HoleSize=0mm|Usage=FLASHONLY|Rotation=270.000|XOffset=0mm|YOffset=0mm|HoleType=Round|Shape=RoundedRectangle|*
%AMROUNDEDRECTD100*
21,1,2.4000,0.3500,0,0,270.0*
21,1,2.1500,0.6000,0,0,270.0*
1,1,0.2500,-0.1750,-1.0750*
1,1,0.2500,-0.1750,1.0750*
1,1,0.2500,0.1750,1.0750*
1,1,0.2500,0.1750,-1.0750*
%
%ADD100ROUNDEDRECTD100*%
G04:AMPARAMS|DCode=101|XSize=2.4mm|YSize=0.6mm|CornerRadius=0.125mm|HoleSize=0mm|Usage=FLASHONLY|Rotation=180.000|XOffset=0mm|YOffset=0mm|HoleType=Round|Shape=RoundedRectangle|*
%AMROUNDEDRECTD101*
21,1,2.4000,0.3500,0,0,180.0*
21,1,2.1500,0.6000,0,0,180.0*
1,1,0.2500,-1.0750,0.1750*
1,1,0.2500,1.0750,0.1750*
1,1,0.2500,1.0750,-0.1750*
1,1,0.2500,-1.0750,-0.1750*
%
%ADD101ROUNDEDRECTD101*%
G04:AMPARAMS|DCode=102|XSize=2.6mm|YSize=2.1mm|CornerRadius=0.35mm|HoleSize=0mm|Usage=FLASHONLY|Rotation=0.000|XOffset=0mm|YOffset=0mm|HoleType=Round|Shape=RoundedRectangle|*
%AMROUNDEDRECTD102*
21,1,2.6000,1.4000,0,0,0.0*
21,1,1.9000,2.1000,0,0,0.0*
1,1,0.7000,0.9500,-0.7000*
1,1,0.7000,-0.9500,-0.7000*
1,1,0.7000,-0.9500,0.7000*
1,1,0.7000,0.9500,0.7000*
%
%ADD102ROUNDEDRECTD102*%
G04:AMPARAMS|DCode=103|XSize=1.25mm|YSize=1.9mm|CornerRadius=0.165mm|HoleSize=0mm|Usage=FLASHONLY|Rotation=270.000|XOffset=0mm|YOffset=0mm|HoleType=Round|Shape=RoundedRectangle|*
%AMROUNDEDRECTD103*
21,1,1.2500,1.5700,0,0,270.0*
21,1,0.9200,1.9000,0,0,270.0*
1,1,0.3300,-0.7850,-0.4600*
1,1,0.3300,-0.7850,0.4600*
1,1,0.3300,0.7850,0.4600*
1,1,0.3300,0.7850,-0.4600*
%
%ADD103ROUNDEDRECTD103*%
G04:AMPARAMS|DCode=104|XSize=1.05mm|YSize=1.1mm|CornerRadius=0.145mm|HoleSize=0mm|Usage=FLASHONLY|Rotation=0.000|XOffset=0mm|YOffset=0mm|HoleType=Round|Shape=RoundedRectangle|*
%AMROUNDEDRECTD104*
21,1,1.0500,0.8100,0,0,0.0*
21,1,0.7600,1.1000,0,0,0.0*
1,1,0.2900,0.3800,-0.4050*
1,1,0.2900,-0.3800,-0.4050*
1,1,0.2900,-0.3800,0.4050*
1,1,0.2900,0.3800,0.4050*
%
%ADD104ROUNDEDRECTD104*%
G04:AMPARAMS|DCode=105|XSize=2.1mm|YSize=3.5mm|CornerRadius=0.25mm|HoleSize=0mm|Usage=FLASHONLY|Rotation=0.000|XOffset=0mm|YOffset=0mm|HoleType=Round|Shape=RoundedRectangle|*
%AMROUNDEDRECTD105*
21,1,2.1000,3.0000,0,0,0.0*
21,1,1.6000,3.5000,0,0,0.0*
1,1,0.5000,0.8000,-1.5000*
1,1,0.5000,-0.8000,-1.5000*
1,1,0.5000,-0.8000,1.5000*
1,1,0.5000,0.8000,1.5000*
%
%ADD105ROUNDEDRECTD105*%
G04:AMPARAMS|DCode=106|XSize=0.8mm|YSize=1.3mm|CornerRadius=0.12mm|HoleSize=0mm|Usage=FLASHONLY|Rotation=0.000|XOffset=0mm|YOffset=0mm|HoleType=Round|Shape=RoundedRectangle|*
%AMROUNDEDRECTD106*
21,1,0.8000,1.0600,0,0,0.0*
21,1,0.5600,1.3000,0,0,0.0*
1,1,0.2400,0.2800,-0.5300*
1,1,0.2400,-0.2800,-0.5300*
1,1,0.2400,-0.2800,0.5300*
1,1,0.2400,0.2800,0.5300*
%
%ADD106ROUNDEDRECTD106*%
G04:AMPARAMS|DCode=107|XSize=5.9mm|YSize=6.5mm|CornerRadius=0.63mm|HoleSize=0mm|Usage=FLASHONLY|Rotation=90.000|XOffset=0mm|YOffset=0mm|HoleType=Round|Shape=RoundedRectangle|*
%AMROUNDEDRECTD107*
21,1,5.9000,5.2400,0,0,90.0*
21,1,4.6400,6.5000,0,0,90.0*
1,1,1.2600,2.6200,2.3200*
1,1,1.2600,2.6200,-2.3200*
1,1,1.2600,-2.6200,-2.3200*
1,1,1.2600,-2.6200,2.3200*
%
%ADD107ROUNDEDRECTD107*%
G04:AMPARAMS|DCode=108|XSize=1.3mm|YSize=2.3mm|CornerRadius=0.35mm|HoleSize=0mm|Usage=FLASHONLY|Rotation=90.000|XOffset=0mm|YOffset=0mm|HoleType=Round|Shape=RoundedRectangle|*
%AMROUNDEDRECTD108*
21,1,1.3000,1.6000,0,0,90.0*
21,1,0.6000,2.3000,0,0,90.0*
1,1,0.7000,0.8000,0.3000*
1,1,0.7000,0.8000,-0.3000*
1,1,0.7000,-0.8000,-0.3000*
1,1,0.7000,-0.8000,0.3000*
%
%ADD108ROUNDEDRECTD108*%
G04:AMPARAMS|DCode=109|XSize=1.35mm|YSize=3.5mm|CornerRadius=0.175mm|HoleSize=0mm|Usage=FLASHONLY|Rotation=270.000|XOffset=0mm|YOffset=0mm|HoleType=Round|Shape=RoundedRectangle|*
%AMROUNDEDRECTD109*
21,1,1.3500,3.1500,0,0,270.0*
21,1,1.0000,3.5000,0,0,270.0*
1,1,0.3500,-1.5750,-0.5000*
1,1,0.3500,-1.5750,0.5000*
1,1,0.3500,1.5750,0.5000*
1,1,0.3500,1.5750,-0.5000*
%
%ADD109ROUNDEDRECTD109*%
G04:AMPARAMS|DCode=110|XSize=1.36mm|YSize=0.46mm|CornerRadius=0.14mm|HoleSize=0mm|Usage=FLASHONLY|Rotation=0.000|XOffset=0mm|YOffset=0mm|HoleType=Round|Shape=RoundedRectangle|*
%AMROUNDEDRECTD110*
21,1,1.3600,0.1800,0,0,0.0*
21,1,1.0800,0.4600,0,0,0.0*
1,1,0.2800,0.5400,-0.0900*
1,1,0.2800,-0.5400,-0.0900*
1,1,0.2800,-0.5400,0.0900*
1,1,0.2800,0.5400,0.0900*
%
%ADD110ROUNDEDRECTD110*%
G04:AMPARAMS|DCode=111|XSize=1.5mm|YSize=0.6mm|CornerRadius=0.175mm|HoleSize=0mm|Usage=FLASHONLY|Rotation=0.000|XOffset=0mm|YOffset=0mm|HoleType=Round|Shape=RoundedRectangle|*
%AMROUNDEDRECTD111*
21,1,1.5000,0.2500,0,0,0.0*
21,1,1.1500,0.6000,0,0,0.0*
1,1,0.3500,0.5750,-0.1250*
1,1,0.3500,-0.5750,-0.1250*
1,1,0.3500,-0.5750,0.1250*
1,1,0.3500,0.5750,0.1250*
%
%ADD111ROUNDEDRECTD111*%
G04:AMPARAMS|DCode=112|XSize=1.3mm|YSize=4.1mm|CornerRadius=0.35mm|HoleSize=0mm|Usage=FLASHONLY|Rotation=180.000|XOffset=0mm|YOffset=0mm|HoleType=Round|Shape=RoundedRectangle|*
%AMROUNDEDRECTD112*
21,1,1.3000,3.4000,0,0,180.0*
21,1,0.6000,4.1000,0,0,180.0*
1,1,0.7000,-0.3000,1.7000*
1,1,0.7000,0.3000,1.7000*
1,1,0.7000,0.3000,-1.7000*
1,1,0.7000,-0.3000,-1.7000*
%
%ADD112ROUNDEDRECTD112*%
G04:AMPARAMS|DCode=113|XSize=10.1mm|YSize=9.1mm|CornerRadius=0.95mm|HoleSize=0mm|Usage=FLASHONLY|Rotation=180.000|XOffset=0mm|YOffset=0mm|HoleType=Round|Shape=RoundedRectangle|*
%AMROUNDEDRECTD113*
21,1,10.1000,7.2000,0,0,180.0*
21,1,8.2000,9.1000,0,0,180.0*
1,1,1.9000,-4.1000,3.6000*
1,1,1.9000,4.1000,3.6000*
1,1,1.9000,4.1000,-3.6000*
1,1,1.9000,-4.1000,-3.6000*
%
%ADD113ROUNDEDRECTD113*%
G04:AMPARAMS|DCode=114|XSize=1mm|YSize=0.6mm|CornerRadius=0.175mm|HoleSize=0mm|Usage=FLASHONLY|Rotation=270.000|XOffset=0mm|YOffset=0mm|HoleType=Round|Shape=RoundedRectangle|*
%AMROUNDEDRECTD114*
21,1,1.0000,0.2500,0,0,270.0*
21,1,0.6500,0.6000,0,0,270.0*
1,1,0.3500,-0.1250,-0.3250*
1,1,0.3500,-0.1250,0.3250*
1,1,0.3500,0.1250,0.3250*
1,1,0.3500,0.1250,-0.3250*
%
%ADD114ROUNDEDRECTD114*%
G04:AMPARAMS|DCode=115|XSize=0.4mm|YSize=1.45mm|CornerRadius=0.095mm|HoleSize=0mm|Usage=FLASHONLY|Rotation=90.000|XOffset=0mm|YOffset=0mm|HoleType=Round|Shape=RoundedRectangle|*
%AMROUNDEDRECTD115*
21,1,0.4000,1.2600,0,0,90.0*
21,1,0.2100,1.4500,0,0,90.0*
1,1,0.1900,0.6300,0.1050*
1,1,0.1900,0.6300,-0.1050*
1,1,0.1900,-0.6300,-0.1050*
1,1,0.1900,-0.6300,0.1050*
%
%ADD115ROUNDEDRECTD115*%
%ADD116C,1.1000*%
%ADD117C,2.4000*%
%ADD118C,2.1000*%
%ADD119C,0.6000*%
%ADD120C,0.4000*%
%ADD121C,1.8000*%
%ADD122C,2.6000*%
%ADD123C,1.9000*%
%ADD124C,3.3500*%
%ADD125O,3.4000X1.6000*%
%ADD126O,2.8000X1.6000*%
%ADD127C,1.6000*%
%ADD128O,4.3000X1.6000*%
%ADD129O,1.6000X4.3000*%
%ADD130O,1.7000X1.9000*%
%ADD131C,1.0000*%
%ADD132C,5.6000*%
%ADD133C,6.1000*%
%ADD134C,0.9032*%
D67*
X1736000Y284000D02*
D03*
Y129000D02*
D03*
X1316000Y397000D02*
D03*
Y242000D02*
D03*
D68*
X1640000Y275000D02*
D03*
X1220000Y388000D02*
D03*
D69*
X1630000Y228500D02*
D03*
Y206500D02*
D03*
Y151500D02*
D03*
Y195500D02*
D03*
Y184500D02*
D03*
Y162500D02*
D03*
Y173500D02*
D03*
Y217500D02*
D03*
Y140500D02*
D03*
X1210000Y341500D02*
D03*
Y319500D02*
D03*
Y264500D02*
D03*
Y308500D02*
D03*
Y297500D02*
D03*
Y275500D02*
D03*
Y286500D02*
D03*
Y330500D02*
D03*
Y253500D02*
D03*
D70*
X1640000Y128500D02*
D03*
X1220000Y241500D02*
D03*
D71*
X1765000Y737000D02*
D03*
Y875000D02*
D03*
D72*
X1741500Y803500D02*
D03*
Y808500D02*
D03*
Y813500D02*
D03*
Y818500D02*
D03*
Y823500D02*
D03*
Y828500D02*
D03*
Y833500D02*
D03*
Y838500D02*
D03*
Y783500D02*
D03*
Y788500D02*
D03*
Y793500D02*
D03*
Y798500D02*
D03*
Y763500D02*
D03*
Y768500D02*
D03*
Y773500D02*
D03*
Y778500D02*
D03*
Y843500D02*
D03*
Y848500D02*
D03*
Y853500D02*
D03*
Y858500D02*
D03*
Y753500D02*
D03*
Y758500D02*
D03*
D73*
X532500Y514000D02*
D03*
X588500Y553000D02*
D03*
X532500Y540000D02*
D03*
Y533500D02*
D03*
Y527000D02*
D03*
Y520500D02*
D03*
Y507500D02*
D03*
Y553000D02*
D03*
Y546500D02*
D03*
X588500Y533500D02*
D03*
Y540000D02*
D03*
Y546500D02*
D03*
Y507500D02*
D03*
Y514000D02*
D03*
Y520500D02*
D03*
Y527000D02*
D03*
D74*
X1095000Y282000D02*
D03*
X1101500D02*
D03*
X1108000D02*
D03*
X1114500D02*
D03*
X1075500D02*
D03*
X1082000D02*
D03*
X1088500D02*
D03*
Y340000D02*
D03*
X1082000D02*
D03*
X1075500D02*
D03*
X1114500D02*
D03*
X1108000D02*
D03*
X1101500D02*
D03*
X1095000D02*
D03*
D75*
X356000Y888000D02*
D03*
Y939000D02*
D03*
Y871000D02*
D03*
Y922000D02*
D03*
Y905000D02*
D03*
D76*
X454000D02*
D03*
D77*
X515000Y670000D02*
D03*
D78*
X537800Y607000D02*
D03*
X492200D02*
D03*
D79*
X254500Y515000D02*
D03*
X365500D02*
D03*
D80*
X992500Y360000D02*
D03*
Y370000D02*
D03*
Y380000D02*
D03*
X967500Y360000D02*
D03*
Y370000D02*
D03*
Y380000D02*
D03*
X1216500Y772500D02*
D03*
Y791500D02*
D03*
X1191500Y782000D02*
D03*
X612590Y947880D02*
D03*
Y928880D02*
D03*
X637590Y938380D02*
D03*
X740080Y947880D02*
D03*
Y928880D02*
D03*
X765080Y938380D02*
D03*
X867570Y947880D02*
D03*
Y928880D02*
D03*
X892570Y938380D02*
D03*
X995060Y947880D02*
D03*
Y928880D02*
D03*
X1020060Y938380D02*
D03*
X1122550Y947880D02*
D03*
Y928880D02*
D03*
X1147550Y938380D02*
D03*
X1250040Y947880D02*
D03*
Y928880D02*
D03*
X1275040Y938380D02*
D03*
X1377530Y947880D02*
D03*
Y928880D02*
D03*
X1402530Y938380D02*
D03*
X1505020Y947880D02*
D03*
Y928880D02*
D03*
X1530020Y938380D02*
D03*
X597500Y380000D02*
D03*
Y370000D02*
D03*
Y360000D02*
D03*
X622500Y380000D02*
D03*
Y370000D02*
D03*
Y360000D02*
D03*
X879500D02*
D03*
Y370000D02*
D03*
Y380000D02*
D03*
X854500Y360000D02*
D03*
Y370000D02*
D03*
Y380000D02*
D03*
X710500D02*
D03*
Y370000D02*
D03*
Y360000D02*
D03*
X735500Y380000D02*
D03*
Y370000D02*
D03*
Y360000D02*
D03*
X837500Y649500D02*
D03*
Y630500D02*
D03*
X862500Y640000D02*
D03*
X963800Y631465D02*
D03*
Y650465D02*
D03*
X938800Y640965D02*
D03*
X1448999Y657467D02*
D03*
Y638467D02*
D03*
X1473999Y647968D02*
D03*
X1423999Y594967D02*
D03*
Y575967D02*
D03*
X1448999Y585467D02*
D03*
X789000Y760500D02*
D03*
Y779500D02*
D03*
X764000Y770000D02*
D03*
X1431499Y638467D02*
D03*
Y657467D02*
D03*
X1406499Y647968D02*
D03*
X417500Y1024500D02*
D03*
Y1005500D02*
D03*
X442500Y1015000D02*
D03*
D81*
X529050Y1054000D02*
D03*
X516350D02*
D03*
X503650D02*
D03*
X490950D02*
D03*
X529050Y1000000D02*
D03*
X516350D02*
D03*
X503650D02*
D03*
X490950D02*
D03*
X385300Y287000D02*
D03*
X398000D02*
D03*
X410700D02*
D03*
X423400D02*
D03*
X385300Y341000D02*
D03*
X398000D02*
D03*
X410700D02*
D03*
X423400D02*
D03*
X491950Y134000D02*
D03*
X504650D02*
D03*
X517350D02*
D03*
X530050D02*
D03*
X491950Y188000D02*
D03*
X504650D02*
D03*
X517350D02*
D03*
X530050D02*
D03*
D82*
X1443860Y920110D02*
D03*
Y954110D02*
D03*
X606240Y239820D02*
D03*
Y205820D02*
D03*
X863240D02*
D03*
Y239820D02*
D03*
X736240D02*
D03*
Y205820D02*
D03*
X993240D02*
D03*
Y239820D02*
D03*
X1169240Y190320D02*
D03*
Y224320D02*
D03*
X1293240Y190320D02*
D03*
Y224320D02*
D03*
X1419240Y190320D02*
D03*
Y224320D02*
D03*
X1545240Y190320D02*
D03*
Y224320D02*
D03*
X380000Y131000D02*
D03*
Y165000D02*
D03*
X551430Y920110D02*
D03*
Y954110D02*
D03*
X678920Y920110D02*
D03*
Y954110D02*
D03*
X806410Y920110D02*
D03*
Y954110D02*
D03*
X933900Y920110D02*
D03*
Y954110D02*
D03*
X1061390Y920110D02*
D03*
Y954110D02*
D03*
X1188880Y920110D02*
D03*
Y954110D02*
D03*
X1316370Y920110D02*
D03*
Y954110D02*
D03*
D83*
X1441740Y203320D02*
D03*
X1502740D02*
D03*
X1064740D02*
D03*
X1125740D02*
D03*
X1189740D02*
D03*
X1250740D02*
D03*
X1315240D02*
D03*
X1376240D02*
D03*
D84*
X100500Y180000D02*
D03*
X129500D02*
D03*
X540500Y875000D02*
D03*
X569500D02*
D03*
X107500Y728000D02*
D03*
X136500D02*
D03*
X1659500Y586500D02*
D03*
X1630500D02*
D03*
D85*
X1663800Y624000D02*
D03*
X1654200D02*
D03*
X609200Y320000D02*
D03*
X618800D02*
D03*
X875800D02*
D03*
X866200D02*
D03*
X759800Y371000D02*
D03*
X750200D02*
D03*
X1007200D02*
D03*
X1016800D02*
D03*
X655040Y404820D02*
D03*
X645440D02*
D03*
X902440D02*
D03*
X912040D02*
D03*
X736800Y332000D02*
D03*
X727200D02*
D03*
X984200D02*
D03*
X993800D02*
D03*
X423200Y390000D02*
D03*
X432800D02*
D03*
X410800D02*
D03*
X401200D02*
D03*
X1653200Y954000D02*
D03*
X1662800D02*
D03*
X1567800Y418000D02*
D03*
X1558200D02*
D03*
X1567800Y430000D02*
D03*
X1558200D02*
D03*
X105200Y686000D02*
D03*
X114800D02*
D03*
X581800Y329000D02*
D03*
X572200D02*
D03*
X829200D02*
D03*
X838800D02*
D03*
X581800Y342000D02*
D03*
X572200D02*
D03*
X829200D02*
D03*
X838800D02*
D03*
X572200Y303000D02*
D03*
X581800D02*
D03*
X838800D02*
D03*
X829200D02*
D03*
X572200Y290000D02*
D03*
X581800D02*
D03*
X838800D02*
D03*
X829200D02*
D03*
X581800Y316000D02*
D03*
X572200D02*
D03*
X829200D02*
D03*
X838800D02*
D03*
X572200Y355000D02*
D03*
X581800D02*
D03*
X838800D02*
D03*
X829200D02*
D03*
X581800Y368000D02*
D03*
X572200D02*
D03*
X829200D02*
D03*
X838800D02*
D03*
X750200Y306000D02*
D03*
X759800D02*
D03*
X1016800D02*
D03*
X1007200D02*
D03*
X750200Y293000D02*
D03*
X759800D02*
D03*
X1016800D02*
D03*
X1007200D02*
D03*
X759800Y332000D02*
D03*
X750200D02*
D03*
X1007200D02*
D03*
X1016800D02*
D03*
X759800Y345000D02*
D03*
X750200D02*
D03*
X1007200D02*
D03*
X1016800D02*
D03*
X750200Y319000D02*
D03*
X759800D02*
D03*
X1016800D02*
D03*
X1007200D02*
D03*
X736800Y345000D02*
D03*
X727200D02*
D03*
X984200D02*
D03*
X993800D02*
D03*
X581800Y381000D02*
D03*
X572200D02*
D03*
X829200D02*
D03*
X838800D02*
D03*
X685200Y356000D02*
D03*
X694800D02*
D03*
X951800D02*
D03*
X942200D02*
D03*
X1109200Y371000D02*
D03*
X1118800D02*
D03*
X1109200Y359000D02*
D03*
X1118800D02*
D03*
X1109200Y383000D02*
D03*
X1118800D02*
D03*
X1085000Y371000D02*
D03*
X1075400D02*
D03*
X1085000Y359000D02*
D03*
X1075400D02*
D03*
X1085000Y383000D02*
D03*
X1075400D02*
D03*
X1102200Y250000D02*
D03*
X1111800D02*
D03*
X1102200Y262000D02*
D03*
X1111800D02*
D03*
X1102200Y238000D02*
D03*
X1111800D02*
D03*
X1089800Y250000D02*
D03*
X1080200D02*
D03*
X1089800Y262000D02*
D03*
X1080200D02*
D03*
X1089800Y238000D02*
D03*
X1080200D02*
D03*
X1558200Y322000D02*
D03*
X1567800D02*
D03*
X1558200Y358000D02*
D03*
X1567800D02*
D03*
X1558200Y370000D02*
D03*
X1567800D02*
D03*
X1558200Y406000D02*
D03*
X1567800D02*
D03*
X1558200Y442000D02*
D03*
X1567800D02*
D03*
X1558200Y310000D02*
D03*
X1567800D02*
D03*
Y334000D02*
D03*
X1558200D02*
D03*
X1567800Y346000D02*
D03*
X1558200D02*
D03*
X1567800Y382000D02*
D03*
X1558200D02*
D03*
X1567800Y394000D02*
D03*
X1558200D02*
D03*
X208200Y695000D02*
D03*
X217800D02*
D03*
X198800Y176000D02*
D03*
X189200D02*
D03*
X317800Y177000D02*
D03*
X308200D02*
D03*
X293800D02*
D03*
X284200D02*
D03*
X294800Y935000D02*
D03*
X285200D02*
D03*
X630450Y1038710D02*
D03*
X640050D02*
D03*
X757940D02*
D03*
X767540D02*
D03*
X885430D02*
D03*
X895030D02*
D03*
X1012920D02*
D03*
X1022520D02*
D03*
X1140410D02*
D03*
X1150010D02*
D03*
X1267900D02*
D03*
X1277500D02*
D03*
X1395390D02*
D03*
X1404990D02*
D03*
X1522880D02*
D03*
X1532480D02*
D03*
X579650Y947270D02*
D03*
X589250D02*
D03*
X707140D02*
D03*
X716740D02*
D03*
X834630D02*
D03*
X844230D02*
D03*
X962120D02*
D03*
X971720D02*
D03*
X1089610D02*
D03*
X1099210D02*
D03*
X1217100D02*
D03*
X1226700D02*
D03*
X1344590D02*
D03*
X1354190D02*
D03*
X1472080D02*
D03*
X1481680D02*
D03*
X589250Y925680D02*
D03*
X579650D02*
D03*
X716740D02*
D03*
X707140D02*
D03*
X844230D02*
D03*
X834630D02*
D03*
X971720D02*
D03*
X962120D02*
D03*
X1099210D02*
D03*
X1089610D02*
D03*
X1226700D02*
D03*
X1217100D02*
D03*
X1354190D02*
D03*
X1344590D02*
D03*
X1481680D02*
D03*
X1472080D02*
D03*
X616200Y176000D02*
D03*
X625800D02*
D03*
X744100Y176000D02*
D03*
X753700D02*
D03*
X999200Y176000D02*
D03*
X1008800D02*
D03*
X872200D02*
D03*
X881800D02*
D03*
X593800D02*
D03*
X584200D02*
D03*
X721700Y176000D02*
D03*
X712100D02*
D03*
X976800Y176000D02*
D03*
X967200D02*
D03*
X849800D02*
D03*
X840200D02*
D03*
X564800D02*
D03*
X555200D02*
D03*
X692700Y176000D02*
D03*
X683100D02*
D03*
X947800Y176000D02*
D03*
X938200D02*
D03*
X820800D02*
D03*
X811200D02*
D03*
X1247800Y588000D02*
D03*
X1238200D02*
D03*
X1128700Y616300D02*
D03*
X1138300D02*
D03*
X1128700Y628300D02*
D03*
X1138300D02*
D03*
X1519200Y613000D02*
D03*
X1528800D02*
D03*
X1519200Y651000D02*
D03*
X1528800D02*
D03*
X1659800Y704000D02*
D03*
X1650200D02*
D03*
X1179200Y305000D02*
D03*
X1188800D02*
D03*
X1601200Y192000D02*
D03*
X1610800D02*
D03*
X1329800Y610000D02*
D03*
X1320200D02*
D03*
X502500Y507500D02*
D03*
X512100D02*
D03*
X1178500Y317000D02*
D03*
X1188100D02*
D03*
X1601000Y204000D02*
D03*
X1610600D02*
D03*
X1178700Y277000D02*
D03*
X1188300D02*
D03*
X1601200Y165000D02*
D03*
X1610800D02*
D03*
X1178700Y265000D02*
D03*
X1188300D02*
D03*
X1601200Y152000D02*
D03*
X1610800D02*
D03*
X1178700Y253000D02*
D03*
X1188300D02*
D03*
X1601200Y140000D02*
D03*
X1610800D02*
D03*
X1178700Y341000D02*
D03*
X1188300D02*
D03*
X1601200Y228000D02*
D03*
X1610800D02*
D03*
X1178700Y329000D02*
D03*
X1188300D02*
D03*
X1601000Y216000D02*
D03*
X1610600D02*
D03*
X1381499Y637967D02*
D03*
X1391099D02*
D03*
X1431299Y622967D02*
D03*
X1421699D02*
D03*
Y610467D02*
D03*
X1431299D02*
D03*
X1319199Y582967D02*
D03*
X1328799D02*
D03*
X1600200Y1080000D02*
D03*
X1609800D02*
D03*
X314800Y935000D02*
D03*
X305200D02*
D03*
X390200Y1027500D02*
D03*
X399800D02*
D03*
X417700Y197500D02*
D03*
X427300D02*
D03*
X427500Y185000D02*
D03*
X417900D02*
D03*
X1097200Y679000D02*
D03*
X1106800D02*
D03*
X1097400Y665000D02*
D03*
X1107000D02*
D03*
X958800Y526000D02*
D03*
X949200D02*
D03*
X935800D02*
D03*
X926200D02*
D03*
X618800Y346000D02*
D03*
X609200D02*
D03*
X866200D02*
D03*
X875800D02*
D03*
X714200Y293000D02*
D03*
X723800D02*
D03*
X980800D02*
D03*
X971200D02*
D03*
X714200Y319000D02*
D03*
X723800D02*
D03*
X980800D02*
D03*
X971200D02*
D03*
X618800Y332000D02*
D03*
X609200D02*
D03*
X866200D02*
D03*
X875800D02*
D03*
X714200Y306000D02*
D03*
X723800D02*
D03*
X980800D02*
D03*
X971200D02*
D03*
X694800Y382000D02*
D03*
X685200D02*
D03*
X942200D02*
D03*
X951800D02*
D03*
X694800Y369000D02*
D03*
X685200D02*
D03*
X942200D02*
D03*
X951800D02*
D03*
X1291800Y635000D02*
D03*
X1282200D02*
D03*
X1291800Y647000D02*
D03*
X1282200D02*
D03*
X1274800Y617000D02*
D03*
X1265200D02*
D03*
D86*
X460000Y1008000D02*
D03*
Y1024000D02*
D03*
X163000Y687000D02*
D03*
Y703000D02*
D03*
X400000Y569000D02*
D03*
Y553000D02*
D03*
X467000Y622000D02*
D03*
Y638000D02*
D03*
X562000D02*
D03*
Y622000D02*
D03*
X295000Y907000D02*
D03*
Y891000D02*
D03*
X1679000Y606000D02*
D03*
Y622000D02*
D03*
X1645000Y1080000D02*
D03*
Y1064000D02*
D03*
D87*
X1097000Y368800D02*
D03*
Y359200D02*
D03*
X595000Y345800D02*
D03*
Y336200D02*
D03*
X852000D02*
D03*
Y345800D02*
D03*
X637200Y370000D02*
D03*
Y379600D02*
D03*
X894200Y370000D02*
D03*
Y379600D02*
D03*
X595000Y290200D02*
D03*
Y299800D02*
D03*
X852000D02*
D03*
Y290200D02*
D03*
X737000Y293200D02*
D03*
Y302800D02*
D03*
X994000D02*
D03*
Y293200D02*
D03*
X424000Y259200D02*
D03*
Y268800D02*
D03*
X1725000Y872800D02*
D03*
Y863200D02*
D03*
X530000Y219800D02*
D03*
Y210200D02*
D03*
X182000Y695200D02*
D03*
Y704800D02*
D03*
X283333Y828800D02*
D03*
Y819200D02*
D03*
X315000Y898800D02*
D03*
Y889200D02*
D03*
X608000Y299800D02*
D03*
Y290200D02*
D03*
X865000D02*
D03*
Y299800D02*
D03*
X621000D02*
D03*
Y290200D02*
D03*
X878000D02*
D03*
Y299800D02*
D03*
X714000Y344800D02*
D03*
Y335200D02*
D03*
X971000D02*
D03*
Y344800D02*
D03*
X411000Y268800D02*
D03*
Y259200D02*
D03*
X403000Y197800D02*
D03*
Y188200D02*
D03*
X390000Y197800D02*
D03*
Y188200D02*
D03*
X377000Y197800D02*
D03*
Y188200D02*
D03*
X195000Y704800D02*
D03*
Y695200D02*
D03*
X302000Y819200D02*
D03*
Y828800D02*
D03*
X246000Y819200D02*
D03*
Y828800D02*
D03*
X264667D02*
D03*
Y819200D02*
D03*
X653030Y1002870D02*
D03*
Y993270D02*
D03*
X780520Y1002870D02*
D03*
Y993270D02*
D03*
X908010Y1002870D02*
D03*
Y993270D02*
D03*
X1035500Y1002870D02*
D03*
Y993270D02*
D03*
X1162990Y1002870D02*
D03*
Y993270D02*
D03*
X1290480Y1002870D02*
D03*
Y993270D02*
D03*
X1417970Y1002870D02*
D03*
Y993270D02*
D03*
X1545460Y1002870D02*
D03*
Y993270D02*
D03*
X653030Y954330D02*
D03*
Y944730D02*
D03*
X780520Y954330D02*
D03*
Y944730D02*
D03*
X908010Y954330D02*
D03*
Y944730D02*
D03*
X1035500Y954330D02*
D03*
Y944730D02*
D03*
X1162990Y954330D02*
D03*
Y944730D02*
D03*
X1290480Y954330D02*
D03*
Y944730D02*
D03*
X1417970Y954330D02*
D03*
Y944730D02*
D03*
X1545460Y954330D02*
D03*
Y944730D02*
D03*
X1150800Y154700D02*
D03*
Y164300D02*
D03*
X1275500Y154700D02*
D03*
Y164300D02*
D03*
X1401000Y155200D02*
D03*
Y164800D02*
D03*
X1527000Y155200D02*
D03*
Y164800D02*
D03*
X1162800Y154700D02*
D03*
Y164300D02*
D03*
X1287500Y154700D02*
D03*
Y164300D02*
D03*
X1413000Y155200D02*
D03*
Y164800D02*
D03*
X1539000Y155200D02*
D03*
Y164800D02*
D03*
X1174800Y164300D02*
D03*
Y154700D02*
D03*
X1299500Y164300D02*
D03*
Y154700D02*
D03*
X1425000Y164800D02*
D03*
Y155200D02*
D03*
X1551000Y164800D02*
D03*
Y155200D02*
D03*
X1259000Y667200D02*
D03*
Y676800D02*
D03*
X1169500Y714900D02*
D03*
Y705300D02*
D03*
X1148000Y684200D02*
D03*
Y693800D02*
D03*
X1073000Y665800D02*
D03*
Y656200D02*
D03*
X818500Y582700D02*
D03*
Y592300D02*
D03*
Y648300D02*
D03*
Y638700D02*
D03*
Y621300D02*
D03*
Y611700D02*
D03*
X1328000Y638200D02*
D03*
Y647800D02*
D03*
X981000Y585200D02*
D03*
Y594800D02*
D03*
Y614200D02*
D03*
Y623800D02*
D03*
Y641200D02*
D03*
Y650800D02*
D03*
X1073000Y635200D02*
D03*
Y644800D02*
D03*
X1504000Y715800D02*
D03*
Y706200D02*
D03*
X475000Y1016200D02*
D03*
Y1025800D02*
D03*
X1262000Y520200D02*
D03*
Y529800D02*
D03*
X1418000Y455800D02*
D03*
Y446200D02*
D03*
X1582000Y705200D02*
D03*
Y714800D02*
D03*
X767500Y733400D02*
D03*
Y743000D02*
D03*
X779500Y742800D02*
D03*
Y733200D02*
D03*
X791500Y742800D02*
D03*
Y733200D02*
D03*
X1677000Y671200D02*
D03*
Y680800D02*
D03*
X415000Y1050200D02*
D03*
Y1059800D02*
D03*
X400000Y1014800D02*
D03*
Y1005200D02*
D03*
X477500Y192500D02*
D03*
Y182900D02*
D03*
X1608000Y107200D02*
D03*
Y116800D02*
D03*
X1190000Y805200D02*
D03*
Y814800D02*
D03*
X1587000Y107200D02*
D03*
Y116800D02*
D03*
X1618000Y24800D02*
D03*
Y15200D02*
D03*
Y67800D02*
D03*
Y58200D02*
D03*
X595000Y322800D02*
D03*
Y313200D02*
D03*
X852000D02*
D03*
Y322800D02*
D03*
X1699000Y872800D02*
D03*
Y863200D02*
D03*
X1712000Y872800D02*
D03*
Y863200D02*
D03*
X398000Y259200D02*
D03*
Y268800D02*
D03*
X385000Y259200D02*
D03*
Y268800D02*
D03*
X1198000Y714800D02*
D03*
Y705200D02*
D03*
X1181500Y715100D02*
D03*
Y705500D02*
D03*
X1338000Y455800D02*
D03*
Y446200D02*
D03*
X1314000Y520200D02*
D03*
Y529800D02*
D03*
X1274000Y446200D02*
D03*
Y455800D02*
D03*
D88*
X1630000Y644250D02*
D03*
X1635000D02*
D03*
X1640000D02*
D03*
X1645000D02*
D03*
X1650000D02*
D03*
X1630000Y688750D02*
D03*
X1635000D02*
D03*
X1640000D02*
D03*
X1645000D02*
D03*
X1650000D02*
D03*
D89*
X1163250Y670800D02*
D03*
Y665800D02*
D03*
Y660800D02*
D03*
Y655800D02*
D03*
Y650800D02*
D03*
Y645800D02*
D03*
Y640800D02*
D03*
Y635800D02*
D03*
Y630800D02*
D03*
Y625800D02*
D03*
Y620800D02*
D03*
Y615800D02*
D03*
X1243750D02*
D03*
Y620800D02*
D03*
Y625800D02*
D03*
Y630800D02*
D03*
Y635800D02*
D03*
Y640800D02*
D03*
Y645800D02*
D03*
Y650800D02*
D03*
Y655800D02*
D03*
Y660800D02*
D03*
Y665800D02*
D03*
Y670800D02*
D03*
D90*
X1176000Y603050D02*
D03*
X1181000D02*
D03*
X1186000D02*
D03*
X1191000D02*
D03*
X1196000D02*
D03*
X1201000D02*
D03*
X1206000D02*
D03*
X1211000D02*
D03*
X1216000D02*
D03*
X1221000D02*
D03*
X1226000D02*
D03*
X1231000D02*
D03*
Y683550D02*
D03*
X1226000D02*
D03*
X1221000D02*
D03*
X1216000D02*
D03*
X1211000D02*
D03*
X1206000D02*
D03*
X1201000D02*
D03*
X1196000D02*
D03*
X1191000D02*
D03*
X1186000D02*
D03*
X1181000D02*
D03*
X1176000D02*
D03*
D91*
X353500Y794500D02*
D03*
Y759500D02*
D03*
X440500D02*
D03*
Y794500D02*
D03*
D92*
X1690000Y1041000D02*
D03*
Y1036000D02*
D03*
Y1031000D02*
D03*
Y1026000D02*
D03*
Y1021000D02*
D03*
Y1016000D02*
D03*
Y1011000D02*
D03*
Y1006000D02*
D03*
Y1001000D02*
D03*
Y966000D02*
D03*
Y961000D02*
D03*
Y956000D02*
D03*
Y951000D02*
D03*
Y971000D02*
D03*
Y976000D02*
D03*
Y981000D02*
D03*
Y986000D02*
D03*
Y991000D02*
D03*
Y996000D02*
D03*
D93*
X1710000Y1110000D02*
D03*
X90000Y90000D02*
D03*
X1710000D02*
D03*
D94*
X565000Y826000D02*
D03*
Y760000D02*
D03*
X272000Y605000D02*
D03*
Y671000D02*
D03*
D95*
X1422000Y845000D02*
D03*
Y814200D02*
D03*
X1418000Y845000D02*
D03*
Y814200D02*
D03*
X1414000Y845000D02*
D03*
Y814200D02*
D03*
X1410000Y845000D02*
D03*
Y814200D02*
D03*
X1406000Y845000D02*
D03*
Y814200D02*
D03*
X1402000Y845000D02*
D03*
Y814200D02*
D03*
X1398000Y845000D02*
D03*
Y814200D02*
D03*
X1394000Y845000D02*
D03*
Y814200D02*
D03*
X1390000Y845000D02*
D03*
Y814200D02*
D03*
X1386000Y845000D02*
D03*
Y814200D02*
D03*
X1382000Y845000D02*
D03*
Y814200D02*
D03*
X1378000Y845000D02*
D03*
Y814200D02*
D03*
X1374000Y845000D02*
D03*
Y814200D02*
D03*
X1370000Y845000D02*
D03*
Y814200D02*
D03*
X1366000Y845000D02*
D03*
Y814200D02*
D03*
X1362000Y845000D02*
D03*
Y814200D02*
D03*
X1358000Y845000D02*
D03*
Y814200D02*
D03*
X1354000Y845000D02*
D03*
Y814200D02*
D03*
X1350000Y845000D02*
D03*
Y814200D02*
D03*
X1346000Y845000D02*
D03*
Y814200D02*
D03*
X1342000Y845000D02*
D03*
Y814200D02*
D03*
X1338000Y845000D02*
D03*
Y814200D02*
D03*
X1334000Y845000D02*
D03*
Y814200D02*
D03*
X1330000Y845000D02*
D03*
Y814200D02*
D03*
X1326000Y845000D02*
D03*
Y814200D02*
D03*
X1322000Y845000D02*
D03*
Y814200D02*
D03*
X1318000Y845000D02*
D03*
Y814200D02*
D03*
X1314000Y845000D02*
D03*
Y814200D02*
D03*
X1310000Y845000D02*
D03*
Y814200D02*
D03*
X1306000Y845000D02*
D03*
Y814200D02*
D03*
X1302000Y845000D02*
D03*
Y814200D02*
D03*
X1298000Y845000D02*
D03*
Y814200D02*
D03*
X1294000Y845000D02*
D03*
Y814200D02*
D03*
X1290000Y845000D02*
D03*
Y814200D02*
D03*
X1286000Y845000D02*
D03*
Y814200D02*
D03*
X1282000Y845000D02*
D03*
Y814200D02*
D03*
X1278000Y845000D02*
D03*
Y814200D02*
D03*
X1274000Y845000D02*
D03*
Y814200D02*
D03*
X1270000Y845000D02*
D03*
Y814200D02*
D03*
X1266000Y845000D02*
D03*
Y814200D02*
D03*
X1262000Y845000D02*
D03*
Y814200D02*
D03*
X1258000Y845000D02*
D03*
Y814200D02*
D03*
X1254000Y845000D02*
D03*
Y814200D02*
D03*
X1250000Y845000D02*
D03*
Y814200D02*
D03*
X1246000Y845000D02*
D03*
Y814200D02*
D03*
X1242000Y845000D02*
D03*
Y814200D02*
D03*
X1238000Y845000D02*
D03*
Y814200D02*
D03*
X1234000Y845000D02*
D03*
Y814200D02*
D03*
X1230000Y845000D02*
D03*
Y814200D02*
D03*
X1226000Y845000D02*
D03*
Y814200D02*
D03*
X1422000Y505000D02*
D03*
Y474200D02*
D03*
X1418000Y505000D02*
D03*
Y474200D02*
D03*
X1414000Y505000D02*
D03*
Y474200D02*
D03*
X1410000Y505000D02*
D03*
Y474200D02*
D03*
X1406000Y505000D02*
D03*
Y474200D02*
D03*
X1402000Y505000D02*
D03*
Y474200D02*
D03*
X1398000Y505000D02*
D03*
Y474200D02*
D03*
X1394000Y505000D02*
D03*
Y474200D02*
D03*
X1390000Y505000D02*
D03*
Y474200D02*
D03*
X1386000Y505000D02*
D03*
Y474200D02*
D03*
X1382000Y505000D02*
D03*
Y474200D02*
D03*
X1378000Y505000D02*
D03*
Y474200D02*
D03*
X1374000Y505000D02*
D03*
Y474200D02*
D03*
X1370000Y505000D02*
D03*
Y474200D02*
D03*
X1366000Y505000D02*
D03*
Y474200D02*
D03*
X1362000Y505000D02*
D03*
Y474200D02*
D03*
X1358000Y505000D02*
D03*
Y474200D02*
D03*
X1354000Y505000D02*
D03*
Y474200D02*
D03*
X1350000Y505000D02*
D03*
Y474200D02*
D03*
X1346000Y505000D02*
D03*
Y474200D02*
D03*
X1342000Y505000D02*
D03*
Y474200D02*
D03*
X1338000Y505000D02*
D03*
Y474200D02*
D03*
X1334000Y505000D02*
D03*
Y474200D02*
D03*
X1330000Y505000D02*
D03*
Y474200D02*
D03*
X1326000Y505000D02*
D03*
Y474200D02*
D03*
X1322000Y505000D02*
D03*
Y474200D02*
D03*
X1318000Y505000D02*
D03*
Y474200D02*
D03*
X1314000Y505000D02*
D03*
Y474200D02*
D03*
X1310000Y505000D02*
D03*
Y474200D02*
D03*
X1306000Y505000D02*
D03*
Y474200D02*
D03*
X1302000Y505000D02*
D03*
Y474200D02*
D03*
X1298000Y505000D02*
D03*
Y474200D02*
D03*
X1294000Y505000D02*
D03*
Y474200D02*
D03*
X1290000Y505000D02*
D03*
Y474200D02*
D03*
X1286000Y505000D02*
D03*
Y474200D02*
D03*
X1282000Y505000D02*
D03*
Y474200D02*
D03*
X1278000Y505000D02*
D03*
Y474200D02*
D03*
X1274000Y505000D02*
D03*
Y474200D02*
D03*
X1270000Y505000D02*
D03*
Y474200D02*
D03*
X1266000Y505000D02*
D03*
Y474200D02*
D03*
X1262000Y505000D02*
D03*
Y474200D02*
D03*
X1258000Y505000D02*
D03*
Y474200D02*
D03*
X1254000Y505000D02*
D03*
Y474200D02*
D03*
X1250000Y505000D02*
D03*
Y474200D02*
D03*
X1246000Y505000D02*
D03*
Y474200D02*
D03*
X1242000Y505000D02*
D03*
Y474200D02*
D03*
X1238000Y505000D02*
D03*
Y474200D02*
D03*
X1234000Y505000D02*
D03*
Y474200D02*
D03*
X1230000Y505000D02*
D03*
Y474200D02*
D03*
X1226000Y505000D02*
D03*
Y474200D02*
D03*
D96*
X1050500Y664000D02*
D03*
X1033500Y642000D02*
D03*
X1050500D02*
D03*
X1033500Y664000D02*
D03*
D97*
X404500Y369000D02*
D03*
X429500D02*
D03*
D98*
X1124000Y664500D02*
D03*
Y679500D02*
D03*
D99*
X1577500Y1110500D02*
D03*
X1666500D02*
D03*
X1577500Y1165500D02*
D03*
X1666500D02*
D03*
D100*
X1622000Y1109500D02*
D03*
X1630000D02*
D03*
X1638000D02*
D03*
X1614000D02*
D03*
X1606000D02*
D03*
D101*
X1710500Y661000D02*
D03*
Y653000D02*
D03*
Y629000D02*
D03*
Y637000D02*
D03*
Y645000D02*
D03*
D102*
X1766500Y600500D02*
D03*
Y689500D02*
D03*
X1711500Y600500D02*
D03*
Y689500D02*
D03*
D103*
X422000Y568500D02*
D03*
Y539500D02*
D03*
X585000Y644500D02*
D03*
Y615500D02*
D03*
X270000Y920500D02*
D03*
Y891500D02*
D03*
X654240Y144320D02*
D03*
Y173320D02*
D03*
X911240D02*
D03*
Y144320D02*
D03*
X780240Y143320D02*
D03*
Y172320D02*
D03*
X1037240D02*
D03*
Y143320D02*
D03*
X1147240Y191820D02*
D03*
Y220820D02*
D03*
X1271240Y191820D02*
D03*
Y220820D02*
D03*
X1397240Y191820D02*
D03*
Y220820D02*
D03*
X1523240Y191820D02*
D03*
Y220820D02*
D03*
X404000Y133500D02*
D03*
Y162500D02*
D03*
X551430Y1068450D02*
D03*
Y1039450D02*
D03*
X678920Y1068450D02*
D03*
Y1039450D02*
D03*
X806410Y1068450D02*
D03*
Y1039450D02*
D03*
X933900Y1068450D02*
D03*
Y1039450D02*
D03*
X1061390Y1068450D02*
D03*
Y1039450D02*
D03*
X1188880Y1068450D02*
D03*
Y1039450D02*
D03*
X1316370Y1068450D02*
D03*
Y1039450D02*
D03*
X1443860Y1068450D02*
D03*
Y1039450D02*
D03*
D104*
X107000Y704000D02*
D03*
X123000D02*
D03*
X553000Y853000D02*
D03*
X569000D02*
D03*
X1693500Y584000D02*
D03*
X1677500D02*
D03*
X1170000Y290000D02*
D03*
X1186000D02*
D03*
X1588000Y178000D02*
D03*
X1604000D02*
D03*
D105*
X262000Y1010000D02*
D03*
X328000D02*
D03*
X193000Y1025000D02*
D03*
X127000D02*
D03*
D106*
X1580000Y584000D02*
D03*
X1614000D02*
D03*
D107*
X577330Y998130D02*
D03*
X704820D02*
D03*
X832310D02*
D03*
X959800D02*
D03*
X1087290D02*
D03*
X1214780D02*
D03*
X1342270D02*
D03*
X1469760D02*
D03*
D108*
X640330Y1020930D02*
D03*
Y975330D02*
D03*
X767820D02*
D03*
Y1020930D02*
D03*
X895310D02*
D03*
Y975330D02*
D03*
X1022800D02*
D03*
Y1020930D02*
D03*
X1150290D02*
D03*
Y975330D02*
D03*
X1277780D02*
D03*
Y1020930D02*
D03*
X1405270D02*
D03*
Y975330D02*
D03*
X1532760D02*
D03*
Y1020930D02*
D03*
D109*
X567240Y266320D02*
D03*
Y205320D02*
D03*
X824240D02*
D03*
Y266320D02*
D03*
X644240Y205320D02*
D03*
Y266320D02*
D03*
X901240D02*
D03*
Y205320D02*
D03*
X696240D02*
D03*
Y266320D02*
D03*
X953240D02*
D03*
Y205320D02*
D03*
X774240D02*
D03*
Y266320D02*
D03*
X1031240D02*
D03*
Y205320D02*
D03*
D110*
X695000Y322000D02*
D03*
Y328500D02*
D03*
Y335000D02*
D03*
Y341500D02*
D03*
Y302500D02*
D03*
Y309000D02*
D03*
Y315500D02*
D03*
X637000D02*
D03*
Y309000D02*
D03*
Y302500D02*
D03*
Y341500D02*
D03*
Y335000D02*
D03*
Y328500D02*
D03*
Y322000D02*
D03*
X894000Y322000D02*
D03*
Y328500D02*
D03*
Y335000D02*
D03*
Y341500D02*
D03*
Y302500D02*
D03*
Y309000D02*
D03*
Y315500D02*
D03*
X952000D02*
D03*
Y309000D02*
D03*
Y302500D02*
D03*
Y341500D02*
D03*
Y335000D02*
D03*
Y328500D02*
D03*
Y322000D02*
D03*
D111*
X627240Y404770D02*
D03*
Y417470D02*
D03*
Y430170D02*
D03*
Y442870D02*
D03*
X573240Y404770D02*
D03*
Y417470D02*
D03*
Y430170D02*
D03*
Y442870D02*
D03*
X830240D02*
D03*
Y430170D02*
D03*
Y417470D02*
D03*
Y404770D02*
D03*
X884240Y442870D02*
D03*
Y430170D02*
D03*
Y417470D02*
D03*
Y404770D02*
D03*
X1546500Y650900D02*
D03*
Y638200D02*
D03*
Y625500D02*
D03*
Y612800D02*
D03*
X1600500Y650900D02*
D03*
Y638200D02*
D03*
Y625500D02*
D03*
Y612800D02*
D03*
X1402000Y583918D02*
D03*
Y596618D02*
D03*
Y609318D02*
D03*
Y622018D02*
D03*
X1348000Y583918D02*
D03*
Y596618D02*
D03*
Y609318D02*
D03*
Y622018D02*
D03*
D112*
X160000Y654000D02*
D03*
X211000D02*
D03*
X143000D02*
D03*
X194000D02*
D03*
X177000D02*
D03*
D113*
Y556000D02*
D03*
D114*
X574398Y158771D02*
D03*
X555398D02*
D03*
X564898Y133771D02*
D03*
X702298Y158771D02*
D03*
X683298D02*
D03*
X692798Y133771D02*
D03*
X957398Y158771D02*
D03*
X938398D02*
D03*
X947898Y133771D02*
D03*
X830398Y158771D02*
D03*
X811398D02*
D03*
X820898Y133771D02*
D03*
X1087398Y160271D02*
D03*
X1068398D02*
D03*
X1077898Y135271D02*
D03*
X1212098Y160271D02*
D03*
X1193098D02*
D03*
X1202598Y135271D02*
D03*
X1337598Y160271D02*
D03*
X1318598D02*
D03*
X1328098Y135271D02*
D03*
X1463598Y160271D02*
D03*
X1444598D02*
D03*
X1454098Y135271D02*
D03*
X443000Y182500D02*
D03*
X462000D02*
D03*
X452500Y207500D02*
D03*
D115*
X1519750Y703000D02*
D03*
Y698000D02*
D03*
Y693000D02*
D03*
Y688000D02*
D03*
Y683000D02*
D03*
X1564250Y703000D02*
D03*
Y698000D02*
D03*
Y693000D02*
D03*
Y688000D02*
D03*
Y683000D02*
D03*
D116*
X1740000Y157000D02*
D03*
Y237000D02*
D03*
X1320000Y270000D02*
D03*
Y350000D02*
D03*
D117*
X38000Y144000D02*
D03*
Y182100D02*
D03*
Y220200D02*
D03*
Y258300D02*
D03*
Y296400D02*
D03*
Y905600D02*
D03*
Y943700D02*
D03*
Y981800D02*
D03*
Y1019900D02*
D03*
Y1058000D02*
D03*
Y715200D02*
D03*
Y753300D02*
D03*
Y791400D02*
D03*
Y829500D02*
D03*
Y867600D02*
D03*
Y334400D02*
D03*
Y372500D02*
D03*
Y410600D02*
D03*
Y448700D02*
D03*
Y486800D02*
D03*
Y524800D02*
D03*
Y562900D02*
D03*
Y601000D02*
D03*
Y639100D02*
D03*
Y677200D02*
D03*
D118*
X681506Y681001D02*
D03*
Y757001D02*
D03*
X727500Y632500D02*
D03*
Y567500D02*
D03*
X772500D02*
D03*
Y632500D02*
D03*
X140000Y805000D02*
D03*
X190000D02*
D03*
X427000Y464250D02*
D03*
Y439750D02*
D03*
X398000Y642000D02*
D03*
X348000D02*
D03*
X679000Y854000D02*
D03*
X629000D02*
D03*
X140000Y915000D02*
D03*
X190000D02*
D03*
D119*
X1739000Y1201000D02*
D03*
X1721000D02*
D03*
X61000Y-1000D02*
D03*
X79000D02*
D03*
X891000D02*
D03*
X909000D02*
D03*
X1721000D02*
D03*
X1739000D02*
D03*
X-1000Y78000D02*
D03*
Y60000D02*
D03*
Y609000D02*
D03*
Y591000D02*
D03*
Y1139000D02*
D03*
Y1121000D02*
D03*
X1801000Y61000D02*
D03*
Y79000D02*
D03*
Y591000D02*
D03*
Y609000D02*
D03*
Y1121000D02*
D03*
Y1139000D02*
D03*
X79000Y1201000D02*
D03*
X61000D02*
D03*
X909000D02*
D03*
X891000D02*
D03*
D120*
X1734000Y1200000D02*
D03*
X1726000D02*
D03*
X1730000D02*
D03*
X66000Y0D02*
D03*
X74000D02*
D03*
X70000D02*
D03*
X896000D02*
D03*
X904000D02*
D03*
X900000D02*
D03*
X1726000D02*
D03*
X1734000D02*
D03*
X1730000D02*
D03*
X0Y73000D02*
D03*
Y65000D02*
D03*
Y69000D02*
D03*
Y604000D02*
D03*
Y596000D02*
D03*
Y600000D02*
D03*
Y1134000D02*
D03*
Y1126000D02*
D03*
Y1130000D02*
D03*
X1800000Y66000D02*
D03*
Y74000D02*
D03*
Y70000D02*
D03*
Y596000D02*
D03*
Y604000D02*
D03*
Y600000D02*
D03*
Y1126000D02*
D03*
Y1134000D02*
D03*
Y1130000D02*
D03*
X74000Y1200000D02*
D03*
X66000D02*
D03*
X70000D02*
D03*
X904000D02*
D03*
X896000D02*
D03*
X900000D02*
D03*
D121*
X467700Y148000D02*
D03*
X442300D02*
D03*
X314700D02*
D03*
X289300D02*
D03*
X1509798Y148771D02*
D03*
X1484398D02*
D03*
X950000Y612700D02*
D03*
Y587300D02*
D03*
X1601100Y349050D02*
D03*
X1626500Y336350D02*
D03*
X1601100Y399850D02*
D03*
Y374450D02*
D03*
Y425250D02*
D03*
X1626500Y412550D02*
D03*
Y387150D02*
D03*
Y361750D02*
D03*
X937400Y835400D02*
D03*
X886600D02*
D03*
X912000D02*
D03*
X188700Y148000D02*
D03*
X163300D02*
D03*
X611120Y1054000D02*
D03*
X585720D02*
D03*
X738610D02*
D03*
X713210D02*
D03*
X866100D02*
D03*
X840700D02*
D03*
X993590D02*
D03*
X968190D02*
D03*
X1121080D02*
D03*
X1095680D02*
D03*
X1248570D02*
D03*
X1223170D02*
D03*
X1376060D02*
D03*
X1350660D02*
D03*
X1503550D02*
D03*
X1478150D02*
D03*
X299400Y851000D02*
D03*
X248600D02*
D03*
X274000D02*
D03*
X623598Y147271D02*
D03*
X598198D02*
D03*
X751498Y147271D02*
D03*
X726098D02*
D03*
X1006598Y147271D02*
D03*
X981198D02*
D03*
X879598D02*
D03*
X854198D02*
D03*
X1133598Y148771D02*
D03*
X1108198D02*
D03*
X1258998D02*
D03*
X1233598D02*
D03*
X1384398D02*
D03*
X1358998D02*
D03*
X850000Y587300D02*
D03*
Y612700D02*
D03*
X460700Y1055000D02*
D03*
X435300D02*
D03*
X1576000Y41500D02*
D03*
Y16100D02*
D03*
Y66900D02*
D03*
X1639000Y16600D02*
D03*
Y67400D02*
D03*
Y42000D02*
D03*
X926000Y506000D02*
D03*
X900600D02*
D03*
X951400D02*
D03*
X937400Y810000D02*
D03*
X886600D02*
D03*
X912000D02*
D03*
X937400Y784600D02*
D03*
X886600D02*
D03*
X912000D02*
D03*
D122*
X1659500Y458300D02*
D03*
Y303400D02*
D03*
X1621000Y498000D02*
D03*
X1691000D02*
D03*
Y553000D02*
D03*
X1621000D02*
D03*
X339000Y309000D02*
D03*
X139000D02*
D03*
X498600Y1099950D02*
D03*
X447800D02*
D03*
X397000D02*
D03*
X329000Y100000D02*
D03*
X278200D02*
D03*
X404610D02*
D03*
X455410D02*
D03*
X506210D02*
D03*
X139200Y1100000D02*
D03*
X190000D02*
D03*
X573020Y1099950D02*
D03*
X623820D02*
D03*
X700510D02*
D03*
X751310D02*
D03*
X828000D02*
D03*
X878800D02*
D03*
X955490D02*
D03*
X1006290D02*
D03*
X1082980D02*
D03*
X1133780D02*
D03*
X1210470D02*
D03*
X1261270D02*
D03*
X1337960D02*
D03*
X1388760D02*
D03*
X1465450D02*
D03*
X1516250D02*
D03*
X633900Y100000D02*
D03*
X583100D02*
D03*
X760920D02*
D03*
X710120D02*
D03*
X887940D02*
D03*
X837140D02*
D03*
X1014960D02*
D03*
X964160D02*
D03*
X1396020D02*
D03*
X1345220D02*
D03*
X1269000D02*
D03*
X1218200D02*
D03*
X1523040D02*
D03*
X1472240D02*
D03*
X1141980D02*
D03*
X1091180D02*
D03*
X201000D02*
D03*
X150200D02*
D03*
D123*
X1739000Y421700D02*
D03*
Y340000D02*
D03*
Y314600D02*
D03*
Y447100D02*
D03*
D124*
X1690000Y323700D02*
D03*
Y438000D02*
D03*
D125*
X1700600Y1068500D02*
D03*
Y923500D02*
D03*
D126*
X1760100Y1068500D02*
D03*
Y923500D02*
D03*
D127*
X500000Y787000D02*
D03*
Y767000D02*
D03*
D128*
X300000Y1065000D02*
D03*
Y1125000D02*
D03*
D129*
X252000Y1090000D02*
D03*
D130*
X1686000Y525500D02*
D03*
X1666000D02*
D03*
X1646000D02*
D03*
X1626000D02*
D03*
D131*
X1600000Y1136000D02*
D03*
X1644000D02*
D03*
X1737000Y623000D02*
D03*
Y667000D02*
D03*
D132*
X1059000Y824600D02*
D03*
X1539000D02*
D03*
Y494600D02*
D03*
X1059000D02*
D03*
D133*
X50000Y50000D02*
D03*
X50000Y1150000D02*
D03*
X1750000Y50000D02*
D03*
Y1150000D02*
D03*
D134*
X456000Y905000D02*
D03*
X486000D02*
D03*
Y875000D02*
D03*
X456000D02*
D03*
X426000D02*
D03*
Y905000D02*
D03*
Y935000D02*
D03*
X456000D02*
D03*
X486000D02*
D03*
X495000Y645000D02*
D03*
X515000D02*
D03*
Y670000D02*
D03*
X535000D02*
D03*
X515000Y695000D02*
D03*
X495000D02*
D03*
Y670000D02*
D03*
X535000Y695000D02*
D03*
Y645000D02*
D03*
X602330Y978130D02*
D03*
Y998130D02*
D03*
X577330D02*
D03*
Y1018130D02*
D03*
X552330Y998130D02*
D03*
Y978130D02*
D03*
X577330D02*
D03*
X552330Y1018130D02*
D03*
X602330D02*
D03*
X729820D02*
D03*
X679820D02*
D03*
X704820Y978130D02*
D03*
X679820D02*
D03*
Y998130D02*
D03*
X704820Y1018130D02*
D03*
Y998130D02*
D03*
X729820D02*
D03*
Y978130D02*
D03*
X857310D02*
D03*
Y998130D02*
D03*
X832310D02*
D03*
Y1018130D02*
D03*
X807310Y998130D02*
D03*
Y978130D02*
D03*
X832310D02*
D03*
X807310Y1018130D02*
D03*
X857310D02*
D03*
X984800D02*
D03*
X934800D02*
D03*
X959800Y978130D02*
D03*
X934800D02*
D03*
Y998130D02*
D03*
X959800Y1018130D02*
D03*
Y998130D02*
D03*
X984800D02*
D03*
Y978130D02*
D03*
X1112290D02*
D03*
Y998130D02*
D03*
X1087290D02*
D03*
Y1018130D02*
D03*
X1062290Y998130D02*
D03*
Y978130D02*
D03*
X1087290D02*
D03*
X1062290Y1018130D02*
D03*
X1112290D02*
D03*
X1239780D02*
D03*
X1189780D02*
D03*
X1214780Y978130D02*
D03*
X1189780D02*
D03*
Y998130D02*
D03*
X1214780Y1018130D02*
D03*
Y998130D02*
D03*
X1239780D02*
D03*
Y978130D02*
D03*
X1367270D02*
D03*
Y998130D02*
D03*
X1342270D02*
D03*
Y1018130D02*
D03*
X1317270Y998130D02*
D03*
Y978130D02*
D03*
X1342270D02*
D03*
X1317270Y1018130D02*
D03*
X1367270D02*
D03*
X1494760D02*
D03*
X1444760D02*
D03*
X1469760Y978130D02*
D03*
X1444760D02*
D03*
Y998130D02*
D03*
X1469760Y1018130D02*
D03*
Y998130D02*
D03*
X1494760D02*
D03*
Y978130D02*
D03*
X177000Y554000D02*
D03*
Y524000D02*
D03*
X147000D02*
D03*
Y554000D02*
D03*
Y584000D02*
D03*
X177000D02*
D03*
X207000D02*
D03*
Y554000D02*
D03*
Y524000D02*
D03*
M02*
