G04*
G04 #@! TF.GenerationSoftware,Altium Limited,Altium Designer,22.1.2 (22)*
G04*
G04 Layer_Color=128*
%FSLAX44Y44*%
%MOMM*%
G71*
G04*
G04 #@! TF.SameCoordinates,29E8C143-3DC4-495F-BF5F-5F13AAE0725B*
G04*
G04*
G04 #@! TF.FilePolarity,Positive*
G04*
G01*
G75*
%ADD159C,0.0508*%
D159*
X1735000Y157000D02*
X1745000D01*
X1740000Y152000D02*
Y162000D01*
X1735000Y237000D02*
X1745000D01*
X1740000Y232000D02*
Y242000D01*
X31500Y144000D02*
X44500D01*
X38000Y137500D02*
Y150500D01*
X31500Y182100D02*
X44500D01*
X38000Y175600D02*
Y188600D01*
X31500Y220200D02*
X44500D01*
X38000Y213700D02*
Y226700D01*
X31500Y258300D02*
X44500D01*
X38000Y251800D02*
Y264800D01*
X31500Y296400D02*
X44500D01*
X38000Y289900D02*
Y302900D01*
X676506Y681001D02*
X686506D01*
X681506Y676001D02*
Y686001D01*
X676506Y757001D02*
X686506D01*
X681506Y752001D02*
Y762001D01*
X1736500Y1201000D02*
X1741500D01*
X1739000Y1198500D02*
Y1203500D01*
X1718500Y1201000D02*
X1723500D01*
X1721000Y1198500D02*
Y1203500D01*
X1732500Y1200000D02*
X1735500D01*
X1734000Y1198500D02*
Y1201500D01*
X1724500Y1200000D02*
X1727500D01*
X1726000Y1198500D02*
Y1201500D01*
X1728500Y1200000D02*
X1731500D01*
X1730000Y1198500D02*
Y1201500D01*
X463450Y148000D02*
X471950D01*
X467700Y143750D02*
Y152250D01*
X438050Y148000D02*
X446550D01*
X442300Y143750D02*
Y152250D01*
X310450Y148000D02*
X318950D01*
X314700Y143750D02*
Y152250D01*
X285050Y148000D02*
X293550D01*
X289300Y143750D02*
Y152250D01*
X1505548Y148771D02*
X1514048D01*
X1509798Y144521D02*
Y153021D01*
X1480148Y148771D02*
X1488648D01*
X1484398Y144521D02*
Y153021D01*
X945750Y612700D02*
X954250D01*
X950000Y608450D02*
Y616950D01*
X945750Y587300D02*
X954250D01*
X950000Y583050D02*
Y591550D01*
X722500Y632500D02*
X732500D01*
X727500Y627500D02*
Y637500D01*
X722500Y567500D02*
X732500D01*
X727500Y562500D02*
Y572500D01*
X767500Y567500D02*
X777500D01*
X772500Y562500D02*
Y572500D01*
X767500Y632500D02*
X777500D01*
X772500Y627500D02*
Y637500D01*
X1596650Y349050D02*
X1605550D01*
X1601100Y344600D02*
Y353500D01*
X1651350Y458300D02*
X1667650D01*
X1659500Y450150D02*
Y466450D01*
X1733900Y421700D02*
X1744100D01*
X1739000Y416600D02*
Y426800D01*
X1673750Y323700D02*
X1706250D01*
X1690000Y307450D02*
Y339950D01*
X1673750Y438000D02*
X1706250D01*
X1690000Y421750D02*
Y454250D01*
X1733900Y340000D02*
X1744100D01*
X1739000Y334900D02*
Y345100D01*
X1733900Y314600D02*
X1744100D01*
X1739000Y309500D02*
Y319700D01*
X1733900Y447100D02*
X1744100D01*
X1739000Y442000D02*
Y452200D01*
X1651350Y303400D02*
X1667650D01*
X1659500Y295250D02*
Y311550D01*
X1622050Y336350D02*
X1630950D01*
X1626500Y331900D02*
Y340800D01*
X1596650Y399850D02*
X1605550D01*
X1601100Y395400D02*
Y404300D01*
X1596650Y374450D02*
X1605550D01*
X1601100Y370000D02*
Y378900D01*
X1596650Y425250D02*
X1605550D01*
X1601100Y420800D02*
Y429700D01*
X1622050Y412550D02*
X1630950D01*
X1626500Y408100D02*
Y417000D01*
X1622050Y387150D02*
X1630950D01*
X1626500Y382700D02*
Y391600D01*
X1622050Y361750D02*
X1630950D01*
X1626500Y357300D02*
Y366200D01*
X933150Y835400D02*
X941650D01*
X937400Y831150D02*
Y839650D01*
X882350Y835400D02*
X890850D01*
X886600Y831150D02*
Y839650D01*
X907750Y835400D02*
X916250D01*
X912000Y831150D02*
Y839650D01*
X1696100Y1068500D02*
X1705100D01*
X1700600Y1064000D02*
Y1073000D01*
X1755600Y1068500D02*
X1764600D01*
X1760100Y1064000D02*
Y1073000D01*
X1755600Y923500D02*
X1764600D01*
X1760100Y919000D02*
Y928000D01*
X1696100Y923500D02*
X1705100D01*
X1700600Y919000D02*
Y928000D01*
X496500Y787000D02*
X503500D01*
X500000Y783500D02*
Y790500D01*
X496500Y767000D02*
X503500D01*
X500000Y763500D02*
Y770500D01*
X135500Y805000D02*
X144500D01*
X140000Y800500D02*
Y809500D01*
X185500Y805000D02*
X194500D01*
X190000Y800500D02*
Y809500D01*
X296000Y1065000D02*
X304000D01*
X300000Y1061000D02*
Y1069000D01*
X296000Y1125000D02*
X304000D01*
X300000Y1121000D02*
Y1129000D01*
X248000Y1090000D02*
X256000D01*
X252000Y1086000D02*
Y1094000D01*
X1681500Y525500D02*
X1690500D01*
X1686000Y521000D02*
Y530000D01*
X1661500Y525500D02*
X1670500D01*
X1666000Y521000D02*
Y530000D01*
X1641500Y525500D02*
X1650500D01*
X1646000Y521000D02*
Y530000D01*
X1621500Y525500D02*
X1630500D01*
X1626000Y521000D02*
Y530000D01*
X1612000Y498000D02*
X1630000D01*
X1621000Y489000D02*
Y507000D01*
X1682000Y498000D02*
X1700000D01*
X1691000Y489000D02*
Y507000D01*
X1682000Y553000D02*
X1700000D01*
X1691000Y544000D02*
Y562000D01*
X1612000Y553000D02*
X1630000D01*
X1621000Y544000D02*
Y562000D01*
X332500Y309000D02*
X345500D01*
X339000Y302500D02*
Y315500D01*
X132500Y309000D02*
X145500D01*
X139000Y302500D02*
Y315500D01*
X422000Y464250D02*
X432000D01*
X427000Y459250D02*
Y469250D01*
X422000Y439750D02*
X432000D01*
X427000Y434750D02*
Y444750D01*
X1595500Y1136000D02*
X1604500D01*
X1600000Y1131500D02*
Y1140500D01*
X1639500Y1136000D02*
X1648500D01*
X1644000Y1131500D02*
Y1140500D01*
X1732500Y623000D02*
X1741500D01*
X1737000Y618500D02*
Y627500D01*
X1732500Y667000D02*
X1741500D01*
X1737000Y662500D02*
Y671500D01*
X491600Y1099950D02*
X505600D01*
X498600Y1092950D02*
Y1106950D01*
X440800Y1099950D02*
X454800D01*
X447800Y1092950D02*
Y1106950D01*
X390000Y1099950D02*
X404000D01*
X397000Y1092950D02*
Y1106950D01*
X322000Y100000D02*
X336000D01*
X329000Y93000D02*
Y107000D01*
X271200Y100000D02*
X285200D01*
X278200Y93000D02*
Y107000D01*
X393500Y642000D02*
X402500D01*
X398000Y637500D02*
Y646500D01*
X343500Y642000D02*
X352500D01*
X348000Y637500D02*
Y646500D01*
X674500Y854000D02*
X683500D01*
X679000Y849500D02*
Y858500D01*
X624500Y854000D02*
X633500D01*
X629000Y849500D02*
Y858500D01*
X184450Y148000D02*
X192950D01*
X188700Y143750D02*
Y152250D01*
X159050Y148000D02*
X167550D01*
X163300Y143750D02*
Y152250D01*
X606870Y1054000D02*
X615370D01*
X611120Y1049750D02*
Y1058250D01*
X581470Y1054000D02*
X589970D01*
X585720Y1049750D02*
Y1058250D01*
X734360Y1054000D02*
X742860D01*
X738610Y1049750D02*
Y1058250D01*
X708960Y1054000D02*
X717460D01*
X713210Y1049750D02*
Y1058250D01*
X861850Y1054000D02*
X870350D01*
X866100Y1049750D02*
Y1058250D01*
X836450Y1054000D02*
X844950D01*
X840700Y1049750D02*
Y1058250D01*
X989340Y1054000D02*
X997840D01*
X993590Y1049750D02*
Y1058250D01*
X963940Y1054000D02*
X972440D01*
X968190Y1049750D02*
Y1058250D01*
X1116830Y1054000D02*
X1125330D01*
X1121080Y1049750D02*
Y1058250D01*
X1091430Y1054000D02*
X1099930D01*
X1095680Y1049750D02*
Y1058250D01*
X1244320Y1054000D02*
X1252820D01*
X1248570Y1049750D02*
Y1058250D01*
X1218920Y1054000D02*
X1227420D01*
X1223170Y1049750D02*
Y1058250D01*
X1371810Y1054000D02*
X1380310D01*
X1376060Y1049750D02*
Y1058250D01*
X1346410Y1054000D02*
X1354910D01*
X1350660Y1049750D02*
Y1058250D01*
X1499300Y1054000D02*
X1507800D01*
X1503550Y1049750D02*
Y1058250D01*
X1473900Y1054000D02*
X1482400D01*
X1478150Y1049750D02*
Y1058250D01*
X397610Y100000D02*
X411610D01*
X404610Y93000D02*
Y107000D01*
X448410Y100000D02*
X462410D01*
X455410Y93000D02*
Y107000D01*
X499210Y100000D02*
X513210D01*
X506210Y93000D02*
Y107000D01*
X132200Y1100000D02*
X146200D01*
X139200Y1093000D02*
Y1107000D01*
X183000Y1100000D02*
X197000D01*
X190000Y1093000D02*
Y1107000D01*
X295150Y851000D02*
X303650D01*
X299400Y846750D02*
Y855250D01*
X244350Y851000D02*
X252850D01*
X248600Y846750D02*
Y855250D01*
X269750Y851000D02*
X278250D01*
X274000Y846750D02*
Y855250D01*
X566020Y1099950D02*
X580020D01*
X573020Y1092950D02*
Y1106950D01*
X616820Y1099950D02*
X630820D01*
X623820Y1092950D02*
Y1106950D01*
X693510Y1099950D02*
X707510D01*
X700510Y1092950D02*
Y1106950D01*
X744310Y1099950D02*
X758310D01*
X751310Y1092950D02*
Y1106950D01*
X821000Y1099950D02*
X835000D01*
X828000Y1092950D02*
Y1106950D01*
X871800Y1099950D02*
X885800D01*
X878800Y1092950D02*
Y1106950D01*
X948490Y1099950D02*
X962490D01*
X955490Y1092950D02*
Y1106950D01*
X999290Y1099950D02*
X1013290D01*
X1006290Y1092950D02*
Y1106950D01*
X1075980Y1099950D02*
X1089980D01*
X1082980Y1092950D02*
Y1106950D01*
X1126780Y1099950D02*
X1140780D01*
X1133780Y1092950D02*
Y1106950D01*
X1203470Y1099950D02*
X1217470D01*
X1210470Y1092950D02*
Y1106950D01*
X1254270Y1099950D02*
X1268270D01*
X1261270Y1092950D02*
Y1106950D01*
X1330960Y1099950D02*
X1344960D01*
X1337960Y1092950D02*
Y1106950D01*
X1381760Y1099950D02*
X1395760D01*
X1388760Y1092950D02*
Y1106950D01*
X1458450Y1099950D02*
X1472450D01*
X1465450Y1092950D02*
Y1106950D01*
X1509250Y1099950D02*
X1523250D01*
X1516250Y1092950D02*
Y1106950D01*
X626900Y100000D02*
X640900D01*
X633900Y93000D02*
Y107000D01*
X576100Y100000D02*
X590100D01*
X583100Y93000D02*
Y107000D01*
X753920Y100000D02*
X767920D01*
X760920Y93000D02*
Y107000D01*
X703120Y100000D02*
X717120D01*
X710120Y93000D02*
Y107000D01*
X880940Y100000D02*
X894940D01*
X887940Y93000D02*
Y107000D01*
X830140Y100000D02*
X844140D01*
X837140Y93000D02*
Y107000D01*
X1007960Y100000D02*
X1021960D01*
X1014960Y93000D02*
Y107000D01*
X957160Y100000D02*
X971160D01*
X964160Y93000D02*
Y107000D01*
X1389020Y100000D02*
X1403020D01*
X1396020Y93000D02*
Y107000D01*
X1338220Y100000D02*
X1352220D01*
X1345220Y93000D02*
Y107000D01*
X1262000Y100000D02*
X1276000D01*
X1269000Y93000D02*
Y107000D01*
X1211200Y100000D02*
X1225200D01*
X1218200Y93000D02*
Y107000D01*
X1516040Y100000D02*
X1530040D01*
X1523040Y93000D02*
Y107000D01*
X1465240Y100000D02*
X1479240D01*
X1472240Y93000D02*
Y107000D01*
X1134980Y100000D02*
X1148980D01*
X1141980Y93000D02*
Y107000D01*
X1084180Y100000D02*
X1098180D01*
X1091180Y93000D02*
Y107000D01*
X619348Y147271D02*
X627848D01*
X623598Y143021D02*
Y151521D01*
X593948Y147271D02*
X602448D01*
X598198Y143021D02*
Y151521D01*
X747248Y147271D02*
X755748D01*
X751498Y143021D02*
Y151521D01*
X721848Y147271D02*
X730348D01*
X726098Y143021D02*
Y151521D01*
X1002348Y147271D02*
X1010848D01*
X1006598Y143021D02*
Y151521D01*
X976948Y147271D02*
X985448D01*
X981198Y143021D02*
Y151521D01*
X875348Y147271D02*
X883848D01*
X879598Y143021D02*
Y151521D01*
X849948Y147271D02*
X858448D01*
X854198Y143021D02*
Y151521D01*
X1129348Y148771D02*
X1137848D01*
X1133598Y144521D02*
Y153021D01*
X1103948Y148771D02*
X1112448D01*
X1108198Y144521D02*
Y153021D01*
X1254748Y148771D02*
X1263248D01*
X1258998Y144521D02*
Y153021D01*
X1229348Y148771D02*
X1237848D01*
X1233598Y144521D02*
Y153021D01*
X1380148Y148771D02*
X1388648D01*
X1384398Y144521D02*
Y153021D01*
X1354748Y148771D02*
X1363248D01*
X1358998Y144521D02*
Y153021D01*
X845750Y587300D02*
X854250D01*
X850000Y583050D02*
Y591550D01*
X845750Y612700D02*
X854250D01*
X850000Y608450D02*
Y616950D01*
X31500Y905600D02*
X44500D01*
X38000Y899100D02*
Y912100D01*
X31500Y943700D02*
X44500D01*
X38000Y937200D02*
Y950200D01*
X31500Y981800D02*
X44500D01*
X38000Y975300D02*
Y988300D01*
X31500Y1019900D02*
X44500D01*
X38000Y1013400D02*
Y1026400D01*
X31500Y1058000D02*
X44500D01*
X38000Y1051500D02*
Y1064500D01*
X31500Y715200D02*
X44500D01*
X38000Y708700D02*
Y721700D01*
X31500Y753300D02*
X44500D01*
X38000Y746800D02*
Y759800D01*
X31500Y791400D02*
X44500D01*
X38000Y784900D02*
Y797900D01*
X31500Y829500D02*
X44500D01*
X38000Y823000D02*
Y836000D01*
X31500Y867600D02*
X44500D01*
X38000Y861100D02*
Y874100D01*
X31500Y334400D02*
X44500D01*
X38000Y327900D02*
Y340900D01*
X31500Y372500D02*
X44500D01*
X38000Y366000D02*
Y379000D01*
X31500Y410600D02*
X44500D01*
X38000Y404100D02*
Y417100D01*
X31500Y448700D02*
X44500D01*
X38000Y442200D02*
Y455200D01*
X31500Y486800D02*
X44500D01*
X38000Y480300D02*
Y493300D01*
X194000Y100000D02*
X208000D01*
X201000Y93000D02*
Y107000D01*
X143200Y100000D02*
X157200D01*
X150200Y93000D02*
Y107000D01*
X1315000Y270000D02*
X1325000D01*
X1320000Y265000D02*
Y275000D01*
X1315000Y350000D02*
X1325000D01*
X1320000Y345000D02*
Y355000D01*
X31500Y524800D02*
X44500D01*
X38000Y518300D02*
Y531300D01*
X31500Y562900D02*
X44500D01*
X38000Y556400D02*
Y569400D01*
X31500Y601000D02*
X44500D01*
X38000Y594500D02*
Y607500D01*
X31500Y639100D02*
X44500D01*
X38000Y632600D02*
Y645600D01*
X31500Y677200D02*
X44500D01*
X38000Y670700D02*
Y683700D01*
X456450Y1055000D02*
X464950D01*
X460700Y1050750D02*
Y1059250D01*
X431050Y1055000D02*
X439550D01*
X435300Y1050750D02*
Y1059250D01*
X1571750Y41500D02*
X1580250D01*
X1576000Y37250D02*
Y45750D01*
X1571750Y16100D02*
X1580250D01*
X1576000Y11850D02*
Y20350D01*
X1571750Y66900D02*
X1580250D01*
X1576000Y62650D02*
Y71150D01*
X1634750Y16600D02*
X1643250D01*
X1639000Y12350D02*
Y20850D01*
X1634750Y67400D02*
X1643250D01*
X1639000Y63150D02*
Y71650D01*
X1634750Y42000D02*
X1643250D01*
X1639000Y37750D02*
Y46250D01*
X921750Y506000D02*
X930250D01*
X926000Y501750D02*
Y510250D01*
X896350Y506000D02*
X904850D01*
X900600Y501750D02*
Y510250D01*
X947150Y506000D02*
X955650D01*
X951400Y501750D02*
Y510250D01*
X135500Y915000D02*
X144500D01*
X140000Y910500D02*
Y919500D01*
X185500Y915000D02*
X194500D01*
X190000Y910500D02*
Y919500D01*
X933150Y810000D02*
X941650D01*
X937400Y805750D02*
Y814250D01*
X882350Y810000D02*
X890850D01*
X886600Y805750D02*
Y814250D01*
X907750Y810000D02*
X916250D01*
X912000Y805750D02*
Y814250D01*
X933150Y784600D02*
X941650D01*
X937400Y780350D02*
Y788850D01*
X882350Y784600D02*
X890850D01*
X886600Y780350D02*
Y788850D01*
X907750Y784600D02*
X916250D01*
X912000Y780350D02*
Y788850D01*
X58500Y-1000D02*
X63500D01*
X61000Y-3500D02*
Y1500D01*
X76500Y-1000D02*
X81500D01*
X79000Y-3500D02*
Y1500D01*
X64500Y0D02*
X67500D01*
X66000Y-1500D02*
Y1500D01*
X72500Y0D02*
X75500D01*
X74000Y-1500D02*
Y1500D01*
X68500Y0D02*
X71500D01*
X70000Y-1500D02*
Y1500D01*
X888500Y-1000D02*
X893500D01*
X891000Y-3500D02*
Y1500D01*
X906500Y-1000D02*
X911500D01*
X909000Y-3500D02*
Y1500D01*
X894500Y0D02*
X897500D01*
X896000Y-1500D02*
Y1500D01*
X902500Y0D02*
X905500D01*
X904000Y-1500D02*
Y1500D01*
X898500Y0D02*
X901500D01*
X900000Y-1500D02*
Y1500D01*
X1718500Y-1000D02*
X1723500D01*
X1721000Y-3500D02*
Y1500D01*
X1736500Y-1000D02*
X1741500D01*
X1739000Y-3500D02*
Y1500D01*
X1724500Y0D02*
X1727500D01*
X1726000Y-1500D02*
Y1500D01*
X1732500Y0D02*
X1735500D01*
X1734000Y-1500D02*
Y1500D01*
X1728500Y0D02*
X1731500D01*
X1730000Y-1500D02*
Y1500D01*
X-3500Y78000D02*
X1500D01*
X-1000Y75500D02*
Y80500D01*
X-3500Y60000D02*
X1500D01*
X-1000Y57500D02*
Y62500D01*
X-1500Y73000D02*
X1500D01*
X0Y71500D02*
Y74500D01*
X-1500Y65000D02*
X1500D01*
X0Y63500D02*
Y66500D01*
X-1500Y69000D02*
X1500D01*
X0Y67500D02*
Y70500D01*
X-3500Y609000D02*
X1500D01*
X-1000Y606500D02*
Y611500D01*
X-3500Y591000D02*
X1500D01*
X-1000Y588500D02*
Y593500D01*
X-1500Y604000D02*
X1500D01*
X0Y602500D02*
Y605500D01*
X-1500Y596000D02*
X1500D01*
X0Y594500D02*
Y597500D01*
X-1500Y600000D02*
X1500D01*
X0Y598500D02*
Y601500D01*
X-3500Y1139000D02*
X1500D01*
X-1000Y1136500D02*
Y1141500D01*
X-3500Y1121000D02*
X1500D01*
X-1000Y1118500D02*
Y1123500D01*
X-1500Y1134000D02*
X1500D01*
X0Y1132500D02*
Y1135500D01*
X-1500Y1126000D02*
X1500D01*
X0Y1124500D02*
Y1127500D01*
X-1500Y1130000D02*
X1500D01*
X0Y1128500D02*
Y1131500D01*
X1798500Y61000D02*
X1803500D01*
X1801000Y58500D02*
Y63500D01*
X1798500Y79000D02*
X1803500D01*
X1801000Y76500D02*
Y81500D01*
X1798500Y66000D02*
X1801500D01*
X1800000Y64500D02*
Y67500D01*
X1798500Y74000D02*
X1801500D01*
X1800000Y72500D02*
Y75500D01*
X1798500Y70000D02*
X1801500D01*
X1800000Y68500D02*
Y71500D01*
X1798500Y591000D02*
X1803500D01*
X1801000Y588500D02*
Y593500D01*
X1798500Y609000D02*
X1803500D01*
X1801000Y606500D02*
Y611500D01*
X1798500Y596000D02*
X1801500D01*
X1800000Y594500D02*
Y597500D01*
X1798500Y604000D02*
X1801500D01*
X1800000Y602500D02*
Y605500D01*
X1798500Y600000D02*
X1801500D01*
X1800000Y598500D02*
Y601500D01*
X1798500Y1121000D02*
X1803500D01*
X1801000Y1118500D02*
Y1123500D01*
X1798500Y1139000D02*
X1803500D01*
X1801000Y1136500D02*
Y1141500D01*
X1798500Y1126000D02*
X1801500D01*
X1800000Y1124500D02*
Y1127500D01*
X1798500Y1134000D02*
X1801500D01*
X1800000Y1132500D02*
Y1135500D01*
X1798500Y1130000D02*
X1801500D01*
X1800000Y1128500D02*
Y1131500D01*
X76500Y1201000D02*
X81500D01*
X79000Y1198500D02*
Y1203500D01*
X58500Y1201000D02*
X63500D01*
X61000Y1198500D02*
Y1203500D01*
X72500Y1200000D02*
X75500D01*
X74000Y1198500D02*
Y1201500D01*
X64500Y1200000D02*
X67500D01*
X66000Y1198500D02*
Y1201500D01*
X68500Y1200000D02*
X71500D01*
X70000Y1198500D02*
Y1201500D01*
X906500Y1201000D02*
X911500D01*
X909000Y1198500D02*
Y1203500D01*
X888500Y1201000D02*
X893500D01*
X891000Y1198500D02*
Y1203500D01*
X902500Y1200000D02*
X905500D01*
X904000Y1198500D02*
Y1201500D01*
X894500Y1200000D02*
X897500D01*
X896000Y1198500D02*
Y1201500D01*
X898500Y1200000D02*
X901500D01*
X900000Y1198500D02*
Y1201500D01*
X1046000Y824600D02*
X1072000D01*
X1059000Y811600D02*
Y837600D01*
X1526000Y824600D02*
X1552000D01*
X1539000Y811600D02*
Y837600D01*
X1526000Y494600D02*
X1552000D01*
X1539000Y481600D02*
Y507600D01*
X1046000Y494600D02*
X1072000D01*
X1059000Y481600D02*
Y507600D01*
X34500Y50000D02*
X65500D01*
X50000Y34500D02*
Y65500D01*
X34500Y1150000D02*
X65500D01*
X50000Y1134500D02*
Y1165500D01*
X1734500Y50000D02*
X1765500D01*
X1750000Y34500D02*
Y65500D01*
X1734500Y1150000D02*
X1765500D01*
X1750000Y1134500D02*
Y1165500D01*
X454500Y905000D02*
X457500D01*
X456000Y903500D02*
Y906500D01*
X484500Y905000D02*
X487500D01*
X486000Y903500D02*
Y906500D01*
X484500Y875000D02*
X487500D01*
X486000Y873500D02*
Y876500D01*
X454500Y875000D02*
X457500D01*
X456000Y873500D02*
Y876500D01*
X424500Y875000D02*
X427500D01*
X426000Y873500D02*
Y876500D01*
X424500Y905000D02*
X427500D01*
X426000Y903500D02*
Y906500D01*
X424500Y935000D02*
X427500D01*
X426000Y933500D02*
Y936500D01*
X454500Y935000D02*
X457500D01*
X456000Y933500D02*
Y936500D01*
X484500Y935000D02*
X487500D01*
X486000Y933500D02*
Y936500D01*
X493500Y645000D02*
X496500D01*
X495000Y643500D02*
Y646500D01*
X513500Y645000D02*
X516500D01*
X515000Y643500D02*
Y646500D01*
X513500Y670000D02*
X516500D01*
X515000Y668500D02*
Y671500D01*
X533500Y670000D02*
X536500D01*
X535000Y668500D02*
Y671500D01*
X513500Y695000D02*
X516500D01*
X515000Y693500D02*
Y696500D01*
X493500Y695000D02*
X496500D01*
X495000Y693500D02*
Y696500D01*
X493500Y670000D02*
X496500D01*
X495000Y668500D02*
Y671500D01*
X533500Y695000D02*
X536500D01*
X535000Y693500D02*
Y696500D01*
X533500Y645000D02*
X536500D01*
X535000Y643500D02*
Y646500D01*
X600830Y978130D02*
X603830D01*
X602330Y976630D02*
Y979630D01*
X600830Y998130D02*
X603830D01*
X602330Y996630D02*
Y999630D01*
X575830Y998130D02*
X578830D01*
X577330Y996630D02*
Y999630D01*
X575830Y1018130D02*
X578830D01*
X577330Y1016630D02*
Y1019630D01*
X550830Y998130D02*
X553830D01*
X552330Y996630D02*
Y999630D01*
X550830Y978130D02*
X553830D01*
X552330Y976630D02*
Y979630D01*
X575830Y978130D02*
X578830D01*
X577330Y976630D02*
Y979630D01*
X550830Y1018130D02*
X553830D01*
X552330Y1016630D02*
Y1019630D01*
X600830Y1018130D02*
X603830D01*
X602330Y1016630D02*
Y1019630D01*
X728320Y1018130D02*
X731320D01*
X729820Y1016630D02*
Y1019630D01*
X678320Y1018130D02*
X681320D01*
X679820Y1016630D02*
Y1019630D01*
X703320Y978130D02*
X706320D01*
X704820Y976630D02*
Y979630D01*
X678320Y978130D02*
X681320D01*
X679820Y976630D02*
Y979630D01*
X678320Y998130D02*
X681320D01*
X679820Y996630D02*
Y999630D01*
X703320Y1018130D02*
X706320D01*
X704820Y1016630D02*
Y1019630D01*
X703320Y998130D02*
X706320D01*
X704820Y996630D02*
Y999630D01*
X728320Y998130D02*
X731320D01*
X729820Y996630D02*
Y999630D01*
X728320Y978130D02*
X731320D01*
X729820Y976630D02*
Y979630D01*
X855810Y978130D02*
X858810D01*
X857310Y976630D02*
Y979630D01*
X855810Y998130D02*
X858810D01*
X857310Y996630D02*
Y999630D01*
X830810Y998130D02*
X833810D01*
X832310Y996630D02*
Y999630D01*
X830810Y1018130D02*
X833810D01*
X832310Y1016630D02*
Y1019630D01*
X805810Y998130D02*
X808810D01*
X807310Y996630D02*
Y999630D01*
X805810Y978130D02*
X808810D01*
X807310Y976630D02*
Y979630D01*
X830810Y978130D02*
X833810D01*
X832310Y976630D02*
Y979630D01*
X805810Y1018130D02*
X808810D01*
X807310Y1016630D02*
Y1019630D01*
X855810Y1018130D02*
X858810D01*
X857310Y1016630D02*
Y1019630D01*
X983300Y1018130D02*
X986300D01*
X984800Y1016630D02*
Y1019630D01*
X933300Y1018130D02*
X936300D01*
X934800Y1016630D02*
Y1019630D01*
X958300Y978130D02*
X961300D01*
X959800Y976630D02*
Y979630D01*
X933300Y978130D02*
X936300D01*
X934800Y976630D02*
Y979630D01*
X933300Y998130D02*
X936300D01*
X934800Y996630D02*
Y999630D01*
X958300Y1018130D02*
X961300D01*
X959800Y1016630D02*
Y1019630D01*
X958300Y998130D02*
X961300D01*
X959800Y996630D02*
Y999630D01*
X983300Y998130D02*
X986300D01*
X984800Y996630D02*
Y999630D01*
X983300Y978130D02*
X986300D01*
X984800Y976630D02*
Y979630D01*
X1110790Y978130D02*
X1113790D01*
X1112290Y976630D02*
Y979630D01*
X1110790Y998130D02*
X1113790D01*
X1112290Y996630D02*
Y999630D01*
X1085790Y998130D02*
X1088790D01*
X1087290Y996630D02*
Y999630D01*
X1085790Y1018130D02*
X1088790D01*
X1087290Y1016630D02*
Y1019630D01*
X1060790Y998130D02*
X1063790D01*
X1062290Y996630D02*
Y999630D01*
X1060790Y978130D02*
X1063790D01*
X1062290Y976630D02*
Y979630D01*
X1085790Y978130D02*
X1088790D01*
X1087290Y976630D02*
Y979630D01*
X1060790Y1018130D02*
X1063790D01*
X1062290Y1016630D02*
Y1019630D01*
X1110790Y1018130D02*
X1113790D01*
X1112290Y1016630D02*
Y1019630D01*
X1238280Y1018130D02*
X1241280D01*
X1239780Y1016630D02*
Y1019630D01*
X1188280Y1018130D02*
X1191280D01*
X1189780Y1016630D02*
Y1019630D01*
X1213280Y978130D02*
X1216280D01*
X1214780Y976630D02*
Y979630D01*
X1188280Y978130D02*
X1191280D01*
X1189780Y976630D02*
Y979630D01*
X1188280Y998130D02*
X1191280D01*
X1189780Y996630D02*
Y999630D01*
X1213280Y1018130D02*
X1216280D01*
X1214780Y1016630D02*
Y1019630D01*
X1213280Y998130D02*
X1216280D01*
X1214780Y996630D02*
Y999630D01*
X1238280Y998130D02*
X1241280D01*
X1239780Y996630D02*
Y999630D01*
X1238280Y978130D02*
X1241280D01*
X1239780Y976630D02*
Y979630D01*
X1365770Y978130D02*
X1368770D01*
X1367270Y976630D02*
Y979630D01*
X1365770Y998130D02*
X1368770D01*
X1367270Y996630D02*
Y999630D01*
X1340770Y998130D02*
X1343770D01*
X1342270Y996630D02*
Y999630D01*
X1340770Y1018130D02*
X1343770D01*
X1342270Y1016630D02*
Y1019630D01*
X1315770Y998130D02*
X1318770D01*
X1317270Y996630D02*
Y999630D01*
X1315770Y978130D02*
X1318770D01*
X1317270Y976630D02*
Y979630D01*
X1340770Y978130D02*
X1343770D01*
X1342270Y976630D02*
Y979630D01*
X1315770Y1018130D02*
X1318770D01*
X1317270Y1016630D02*
Y1019630D01*
X1365770Y1018130D02*
X1368770D01*
X1367270Y1016630D02*
Y1019630D01*
X1493260Y1018130D02*
X1496260D01*
X1494760Y1016630D02*
Y1019630D01*
X1443260Y1018130D02*
X1446260D01*
X1444760Y1016630D02*
Y1019630D01*
X1468260Y978130D02*
X1471260D01*
X1469760Y976630D02*
Y979630D01*
X1443260Y978130D02*
X1446260D01*
X1444760Y976630D02*
Y979630D01*
X1443260Y998130D02*
X1446260D01*
X1444760Y996630D02*
Y999630D01*
X1468260Y1018130D02*
X1471260D01*
X1469760Y1016630D02*
Y1019630D01*
X1468260Y998130D02*
X1471260D01*
X1469760Y996630D02*
Y999630D01*
X1493260Y998130D02*
X1496260D01*
X1494760Y996630D02*
Y999630D01*
X1493260Y978130D02*
X1496260D01*
X1494760Y976630D02*
Y979630D01*
X175500Y554000D02*
X178500D01*
X177000Y552500D02*
Y555500D01*
X175500Y524000D02*
X178500D01*
X177000Y522500D02*
Y525500D01*
X145500Y524000D02*
X148500D01*
X147000Y522500D02*
Y525500D01*
X145500Y554000D02*
X148500D01*
X147000Y552500D02*
Y555500D01*
X145500Y584000D02*
X148500D01*
X147000Y582500D02*
Y585500D01*
X175500Y584000D02*
X178500D01*
X177000Y582500D02*
Y585500D01*
X205500Y584000D02*
X208500D01*
X207000Y582500D02*
Y585500D01*
X205500Y554000D02*
X208500D01*
X207000Y552500D02*
Y555500D01*
X205500Y524000D02*
X208500D01*
X207000Y522500D02*
Y525500D01*
X897500Y892000D02*
X900500D01*
X899000Y890500D02*
Y893500D01*
X978500Y893000D02*
X981500D01*
X980000Y891500D02*
Y894500D01*
X1059500Y893000D02*
X1062500D01*
X1061000Y891500D02*
Y894500D01*
X1120500Y894000D02*
X1123500D01*
X1122000Y892500D02*
Y895500D01*
X1678500Y1057000D02*
X1681500D01*
X1680000Y1055500D02*
Y1058500D01*
X1640500Y721000D02*
X1643500D01*
X1642000Y719500D02*
Y722500D01*
X1445500Y436000D02*
X1448500D01*
X1447000Y434500D02*
Y437500D01*
X1474500Y403000D02*
X1477500D01*
X1476000Y401500D02*
Y404500D01*
X1544500Y311000D02*
X1547500D01*
X1546000Y309500D02*
Y312500D01*
X1596500Y280000D02*
X1599500D01*
X1598000Y278500D02*
Y281500D01*
X1546500Y294000D02*
X1549500D01*
X1548000Y292500D02*
Y295500D01*
X618500Y259550D02*
X621500D01*
X620000Y258050D02*
Y261050D01*
X729500Y743000D02*
X732500D01*
X731000Y741500D02*
Y744500D01*
X1198500Y468000D02*
X1201500D01*
X1200000Y466500D02*
Y469500D01*
X1162500Y532000D02*
X1165500D01*
X1164000Y530500D02*
Y533500D01*
X1233500Y459000D02*
X1236500D01*
X1235000Y457500D02*
Y460500D01*
X1172500Y489000D02*
X1175500D01*
X1174000Y487500D02*
Y490500D01*
X787500Y771000D02*
X790500D01*
X789000Y769500D02*
Y772500D01*
X1351500Y245000D02*
X1354500D01*
X1353000Y243500D02*
Y246500D01*
X1133500Y264000D02*
X1136500D01*
X1135000Y262500D02*
Y265500D01*
X1158500Y293000D02*
X1161500D01*
X1160000Y291500D02*
Y294500D01*
X1138500Y340000D02*
X1141500D01*
X1140000Y338500D02*
Y341500D01*
X978500Y260000D02*
X981500D01*
X980000Y258500D02*
Y261500D01*
X838243Y219743D02*
X841243D01*
X839743Y218243D02*
Y221243D01*
X538500Y260000D02*
X541500D01*
X540000Y258500D02*
Y261500D01*
X858500Y259550D02*
X861500D01*
X860000Y258050D02*
Y261050D01*
X958510Y220000D02*
X961510D01*
X960010Y218500D02*
Y221500D01*
X738500Y259550D02*
X741500D01*
X740000Y258050D02*
Y261050D01*
X1758500Y1100000D02*
X1761500D01*
X1760000Y1098500D02*
Y1101500D01*
X1738500Y1060000D02*
X1741500D01*
X1740000Y1058500D02*
Y1061500D01*
X1758500Y1020000D02*
X1761500D01*
X1760000Y1018500D02*
Y1021500D01*
X1738500Y980000D02*
X1741500D01*
X1740000Y978500D02*
Y981500D01*
X1758500Y940000D02*
X1761500D01*
X1760000Y938500D02*
Y941500D01*
X1738500Y900000D02*
X1741500D01*
X1740000Y898500D02*
Y901500D01*
X1738500Y740000D02*
X1741500D01*
X1740000Y738500D02*
Y741500D01*
X1758500Y620000D02*
X1761500D01*
X1760000Y618500D02*
Y621500D01*
X1738500Y580000D02*
X1741500D01*
X1740000Y578500D02*
Y581500D01*
X1758500Y540000D02*
X1761500D01*
X1760000Y538500D02*
Y541500D01*
X1738500Y500000D02*
X1741500D01*
X1740000Y498500D02*
Y501500D01*
X1758500Y460000D02*
X1761500D01*
X1760000Y458500D02*
Y461500D01*
X1758500Y380000D02*
X1761500D01*
X1760000Y378500D02*
Y381500D01*
X1758500Y300000D02*
X1761500D01*
X1760000Y298500D02*
Y301500D01*
X1738500Y260000D02*
X1741500D01*
X1740000Y258500D02*
Y261500D01*
X1758500Y220000D02*
X1761500D01*
X1760000Y218500D02*
Y221500D01*
X1738500Y180000D02*
X1741500D01*
X1740000Y178500D02*
Y181500D01*
X1758500Y140000D02*
X1761500D01*
X1760000Y138500D02*
Y141500D01*
X1738500Y100000D02*
X1741500D01*
X1740000Y98500D02*
Y101500D01*
X1698500Y1140000D02*
X1701500D01*
X1700000Y1138500D02*
Y1141500D01*
X1718500Y1020000D02*
X1721500D01*
X1720000Y1018500D02*
Y1021500D01*
X1718500Y940000D02*
X1721500D01*
X1720000Y938500D02*
Y941500D01*
X1698500Y900000D02*
X1701500D01*
X1700000Y898500D02*
Y901500D01*
X1718500Y620000D02*
X1721500D01*
X1720000Y618500D02*
Y621500D01*
X1718500Y540000D02*
X1721500D01*
X1720000Y538500D02*
Y541500D01*
X1718500Y460000D02*
X1721500D01*
X1720000Y458500D02*
Y461500D01*
X1718500Y380000D02*
X1721500D01*
X1720000Y378500D02*
Y381500D01*
X1718500Y300000D02*
X1721500D01*
X1720000Y298500D02*
Y301500D01*
X1698500Y260000D02*
X1701500D01*
X1700000Y258500D02*
Y261500D01*
X1718500Y220000D02*
X1721500D01*
X1720000Y218500D02*
Y221500D01*
X1698500Y180000D02*
X1701500D01*
X1700000Y178500D02*
Y181500D01*
X1718500Y140000D02*
X1721500D01*
X1720000Y138500D02*
Y141500D01*
X1698500Y20000D02*
X1701500D01*
X1700000Y18500D02*
Y21500D01*
X1658500Y1140000D02*
X1661500D01*
X1660000Y1138500D02*
Y1141500D01*
X1658500Y1060000D02*
X1661500D01*
X1660000Y1058500D02*
Y1061500D01*
X1658500Y980000D02*
X1661500D01*
X1660000Y978500D02*
Y981500D01*
X1678500Y940000D02*
X1681500D01*
X1680000Y938500D02*
Y941500D01*
X1678500Y700000D02*
X1681500D01*
X1680000Y698500D02*
Y701500D01*
X1678500Y460000D02*
X1681500D01*
X1680000Y458500D02*
Y461500D01*
X1678500Y380000D02*
X1681500D01*
X1680000Y378500D02*
Y381500D01*
X1678500Y300000D02*
X1681500D01*
X1680000Y298500D02*
Y301500D01*
X1658500Y260000D02*
X1661500D01*
X1660000Y258500D02*
Y261500D01*
X1678500Y220000D02*
X1681500D01*
X1680000Y218500D02*
Y221500D01*
X1678500Y140000D02*
X1681500D01*
X1680000Y138500D02*
Y141500D01*
X1658500Y100000D02*
X1661500D01*
X1660000Y98500D02*
Y101500D01*
X1678500Y60000D02*
X1681500D01*
X1680000Y58500D02*
Y61500D01*
X1658500Y20000D02*
X1661500D01*
X1660000Y18500D02*
Y21500D01*
X1618500Y1140000D02*
X1621500D01*
X1620000Y1138500D02*
Y1141500D01*
X1638500Y860000D02*
X1641500D01*
X1640000Y858500D02*
Y861500D01*
X1638500Y460000D02*
X1641500D01*
X1640000Y458500D02*
Y461500D01*
X1638500Y380000D02*
X1641500D01*
X1640000Y378500D02*
Y381500D01*
X1638500Y300000D02*
X1641500D01*
X1640000Y298500D02*
Y301500D01*
X1618500Y100000D02*
X1621500D01*
X1620000Y98500D02*
Y101500D01*
X1578500Y1140000D02*
X1581500D01*
X1580000Y1138500D02*
Y1141500D01*
X1578500Y1060000D02*
X1581500D01*
X1580000Y1058500D02*
Y1061500D01*
X1598500Y1020000D02*
X1601500D01*
X1600000Y1018500D02*
Y1021500D01*
X1598500Y700000D02*
X1601500D01*
X1600000Y698500D02*
Y701500D01*
X1598500Y460000D02*
X1601500D01*
X1600000Y458500D02*
Y461500D01*
X1578500Y420000D02*
X1581500D01*
X1580000Y418500D02*
Y421500D01*
X1578500Y340000D02*
X1581500D01*
X1580000Y338500D02*
Y341500D01*
X1538500Y1140000D02*
X1541500D01*
X1540000Y1138500D02*
Y1141500D01*
X1558500Y1100000D02*
X1561500D01*
X1560000Y1098500D02*
Y1101500D01*
X1538500Y1060000D02*
X1541500D01*
X1540000Y1058500D02*
Y1061500D01*
X1538500Y580000D02*
X1541500D01*
X1540000Y578500D02*
Y581500D01*
X1558500Y540000D02*
X1561500D01*
X1560000Y538500D02*
Y541500D01*
X1538500Y420000D02*
X1541500D01*
X1540000Y418500D02*
Y421500D01*
X1538500Y100000D02*
X1541500D01*
X1540000Y98500D02*
Y101500D01*
X1538500Y20000D02*
X1541500D01*
X1540000Y18500D02*
Y21500D01*
X1498500Y1140000D02*
X1501500D01*
X1500000Y1138500D02*
Y1141500D01*
X1518500Y940000D02*
X1521500D01*
X1520000Y938500D02*
Y941500D01*
X1498500Y820000D02*
X1501500D01*
X1500000Y818500D02*
Y821500D01*
X1498500Y660000D02*
X1501500D01*
X1500000Y658500D02*
Y661500D01*
X1498500Y580000D02*
X1501500D01*
X1500000Y578500D02*
Y581500D01*
X1518500Y540000D02*
X1521500D01*
X1520000Y538500D02*
Y541500D01*
X1518500Y460000D02*
X1521500D01*
X1520000Y458500D02*
Y461500D01*
X1498500Y340000D02*
X1501500D01*
X1500000Y338500D02*
Y341500D01*
X1498500Y260000D02*
X1501500D01*
X1500000Y258500D02*
Y261500D01*
X1518500Y140000D02*
X1521500D01*
X1520000Y138500D02*
Y141500D01*
X1518500Y60000D02*
X1521500D01*
X1520000Y58500D02*
Y61500D01*
X1498500Y20000D02*
X1501500D01*
X1500000Y18500D02*
Y21500D01*
X1458500Y1140000D02*
X1461500D01*
X1460000Y1138500D02*
Y1141500D01*
X1458500Y1060000D02*
X1461500D01*
X1460000Y1058500D02*
Y1061500D01*
X1458500Y660000D02*
X1461500D01*
X1460000Y658500D02*
Y661500D01*
X1478500Y620000D02*
X1481500D01*
X1480000Y618500D02*
Y621500D01*
X1458500Y580000D02*
X1461500D01*
X1460000Y578500D02*
Y581500D01*
X1458500Y500000D02*
X1461500D01*
X1460000Y498500D02*
Y501500D01*
X1458500Y260000D02*
X1461500D01*
X1460000Y258500D02*
Y261500D01*
X1478500Y220000D02*
X1481500D01*
X1480000Y218500D02*
Y221500D01*
X1458500Y180000D02*
X1461500D01*
X1460000Y178500D02*
Y181500D01*
X1478500Y60000D02*
X1481500D01*
X1480000Y58500D02*
Y61500D01*
X1458500Y20000D02*
X1461500D01*
X1460000Y18500D02*
Y21500D01*
X1418500Y1140000D02*
X1421500D01*
X1420000Y1138500D02*
Y1141500D01*
X1438500Y1100000D02*
X1441500D01*
X1440000Y1098500D02*
Y1101500D01*
X1418500Y1060000D02*
X1421500D01*
X1420000Y1058500D02*
Y1061500D01*
X1438500Y540000D02*
X1441500D01*
X1440000Y538500D02*
Y541500D01*
X1438500Y460000D02*
X1441500D01*
X1440000Y458500D02*
Y461500D01*
X1418500Y420000D02*
X1421500D01*
X1420000Y418500D02*
Y421500D01*
X1418500Y340000D02*
X1421500D01*
X1420000Y338500D02*
Y341500D01*
X1438500Y300000D02*
X1441500D01*
X1440000Y298500D02*
Y301500D01*
X1418500Y260000D02*
X1421500D01*
X1420000Y258500D02*
Y261500D01*
X1438500Y140000D02*
X1441500D01*
X1440000Y138500D02*
Y141500D01*
X1418500Y100000D02*
X1421500D01*
X1420000Y98500D02*
Y101500D01*
X1438500Y60000D02*
X1441500D01*
X1440000Y58500D02*
Y61500D01*
X1418500Y20000D02*
X1421500D01*
X1420000Y18500D02*
Y21500D01*
X1378500Y1140000D02*
X1381500D01*
X1380000Y1138500D02*
Y1141500D01*
X1398500Y700000D02*
X1401500D01*
X1400000Y698500D02*
Y701500D01*
X1378500Y580000D02*
X1381500D01*
X1380000Y578500D02*
Y581500D01*
X1398500Y300000D02*
X1401500D01*
X1400000Y298500D02*
Y301500D01*
X1378500Y180000D02*
X1381500D01*
X1380000Y178500D02*
Y181500D01*
X1398500Y60000D02*
X1401500D01*
X1400000Y58500D02*
Y61500D01*
X1378500Y20000D02*
X1381500D01*
X1380000Y18500D02*
Y21500D01*
X1338500Y1140000D02*
X1341500D01*
X1340000Y1138500D02*
Y1141500D01*
X1358500Y1100000D02*
X1361500D01*
X1360000Y1098500D02*
Y1101500D01*
X1358500Y940000D02*
X1361500D01*
X1360000Y938500D02*
Y941500D01*
X1338500Y900000D02*
X1341500D01*
X1340000Y898500D02*
Y901500D01*
X1358500Y780000D02*
X1361500D01*
X1360000Y778500D02*
Y781500D01*
X1338500Y740000D02*
X1341500D01*
X1340000Y738500D02*
Y741500D01*
X1358500Y300000D02*
X1361500D01*
X1360000Y298500D02*
Y301500D01*
X1338500Y260000D02*
X1341500D01*
X1340000Y258500D02*
Y261500D01*
X1358500Y220000D02*
X1361500D01*
X1360000Y218500D02*
Y221500D01*
X1338500Y180000D02*
X1341500D01*
X1340000Y178500D02*
Y181500D01*
X1358500Y60000D02*
X1361500D01*
X1360000Y58500D02*
Y61500D01*
X1338500Y20000D02*
X1341500D01*
X1340000Y18500D02*
Y21500D01*
X1298500Y1140000D02*
X1301500D01*
X1300000Y1138500D02*
Y1141500D01*
X1318500Y1100000D02*
X1321500D01*
X1320000Y1098500D02*
Y1101500D01*
X1298500Y1060000D02*
X1301500D01*
X1300000Y1058500D02*
Y1061500D01*
X1298500Y980000D02*
X1301500D01*
X1300000Y978500D02*
Y981500D01*
X1318500Y940000D02*
X1321500D01*
X1320000Y938500D02*
Y941500D01*
X1298500Y900000D02*
X1301500D01*
X1300000Y898500D02*
Y901500D01*
X1318500Y860000D02*
X1321500D01*
X1320000Y858500D02*
Y861500D01*
X1318500Y780000D02*
X1321500D01*
X1320000Y778500D02*
Y781500D01*
X1298500Y740000D02*
X1301500D01*
X1300000Y738500D02*
Y741500D01*
X1318500Y700000D02*
X1321500D01*
X1320000Y698500D02*
Y701500D01*
X1318500Y380000D02*
X1321500D01*
X1320000Y378500D02*
Y381500D01*
X1298500Y260000D02*
X1301500D01*
X1300000Y258500D02*
Y261500D01*
X1318500Y140000D02*
X1321500D01*
X1320000Y138500D02*
Y141500D01*
X1298500Y100000D02*
X1301500D01*
X1300000Y98500D02*
Y101500D01*
X1298500Y20000D02*
X1301500D01*
X1300000Y18500D02*
Y21500D01*
X1258500Y1140000D02*
X1261500D01*
X1260000Y1138500D02*
Y1141500D01*
X1278500Y1100000D02*
X1281500D01*
X1280000Y1098500D02*
Y1101500D01*
X1258500Y1060000D02*
X1261500D01*
X1260000Y1058500D02*
Y1061500D01*
X1258500Y980000D02*
X1261500D01*
X1260000Y978500D02*
Y981500D01*
X1258500Y900000D02*
X1261500D01*
X1260000Y898500D02*
Y901500D01*
X1278500Y860000D02*
X1281500D01*
X1280000Y858500D02*
Y861500D01*
X1278500Y380000D02*
X1281500D01*
X1280000Y378500D02*
Y381500D01*
X1258500Y340000D02*
X1261500D01*
X1260000Y338500D02*
Y341500D01*
X1258500Y260000D02*
X1261500D01*
X1260000Y258500D02*
Y261500D01*
X1258500Y20000D02*
X1261500D01*
X1260000Y18500D02*
Y21500D01*
X1218500Y1140000D02*
X1221500D01*
X1220000Y1138500D02*
Y1141500D01*
X1238500Y1100000D02*
X1241500D01*
X1240000Y1098500D02*
Y1101500D01*
X1238500Y940000D02*
X1241500D01*
X1240000Y938500D02*
Y941500D01*
X1218500Y900000D02*
X1221500D01*
X1220000Y898500D02*
Y901500D01*
X1238500Y860000D02*
X1241500D01*
X1240000Y858500D02*
Y861500D01*
X1238500Y380000D02*
X1241500D01*
X1240000Y378500D02*
Y381500D01*
X1238500Y220000D02*
X1241500D01*
X1240000Y218500D02*
Y221500D01*
X1218500Y180000D02*
X1221500D01*
X1220000Y178500D02*
Y181500D01*
X1218500Y20000D02*
X1221500D01*
X1220000Y18500D02*
Y21500D01*
X1178500Y1140000D02*
X1181500D01*
X1180000Y1138500D02*
Y1141500D01*
X1198500Y940000D02*
X1201500D01*
X1200000Y938500D02*
Y941500D01*
X1198500Y860000D02*
X1201500D01*
X1200000Y858500D02*
Y861500D01*
X1178500Y820000D02*
X1181500D01*
X1180000Y818500D02*
Y821500D01*
X1178500Y660000D02*
X1181500D01*
X1180000Y658500D02*
Y661500D01*
X1198500Y380000D02*
X1201500D01*
X1200000Y378500D02*
Y381500D01*
X1178500Y180000D02*
X1181500D01*
X1180000Y178500D02*
Y181500D01*
X1178500Y100000D02*
X1181500D01*
X1180000Y98500D02*
Y101500D01*
X1178500Y20000D02*
X1181500D01*
X1180000Y18500D02*
Y21500D01*
X1138500Y1140000D02*
X1141500D01*
X1140000Y1138500D02*
Y1141500D01*
X1158500Y1100000D02*
X1161500D01*
X1160000Y1098500D02*
Y1101500D01*
X1138500Y1060000D02*
X1141500D01*
X1140000Y1058500D02*
Y1061500D01*
X1138500Y820000D02*
X1141500D01*
X1140000Y818500D02*
Y821500D01*
X1138500Y420000D02*
X1141500D01*
X1140000Y418500D02*
Y421500D01*
X1158500Y380000D02*
X1161500D01*
X1160000Y378500D02*
Y381500D01*
X1138500Y20000D02*
X1141500D01*
X1140000Y18500D02*
Y21500D01*
X1098500Y1140000D02*
X1101500D01*
X1100000Y1138500D02*
Y1141500D01*
X1118500Y940000D02*
X1121500D01*
X1120000Y938500D02*
Y941500D01*
X1118500Y860000D02*
X1121500D01*
X1120000Y858500D02*
Y861500D01*
X1098500Y820000D02*
X1101500D01*
X1100000Y818500D02*
Y821500D01*
X1118500Y700000D02*
X1121500D01*
X1120000Y698500D02*
Y701500D01*
X1098500Y500000D02*
X1101500D01*
X1100000Y498500D02*
Y501500D01*
X1098500Y180000D02*
X1101500D01*
X1100000Y178500D02*
Y181500D01*
X1118500Y140000D02*
X1121500D01*
X1120000Y138500D02*
Y141500D01*
X1098500Y20000D02*
X1101500D01*
X1100000Y18500D02*
Y21500D01*
X1058500Y1140000D02*
X1061500D01*
X1060000Y1138500D02*
Y1141500D01*
X1078500Y860000D02*
X1081500D01*
X1080000Y858500D02*
Y861500D01*
X1078500Y700000D02*
X1081500D01*
X1080000Y698500D02*
Y701500D01*
X1058500Y420000D02*
X1061500D01*
X1060000Y418500D02*
Y421500D01*
X1058500Y20000D02*
X1061500D01*
X1060000Y18500D02*
Y21500D01*
X1018500Y1140000D02*
X1021500D01*
X1020000Y1138500D02*
Y1141500D01*
X1038500Y1100000D02*
X1041500D01*
X1040000Y1098500D02*
Y1101500D01*
X1018500Y1060000D02*
X1021500D01*
X1020000Y1058500D02*
Y1061500D01*
X1038500Y860000D02*
X1041500D01*
X1040000Y858500D02*
Y861500D01*
X1018500Y820000D02*
X1021500D01*
X1020000Y818500D02*
Y821500D01*
X1038500Y700000D02*
X1041500D01*
X1040000Y698500D02*
Y701500D01*
X1018500Y500000D02*
X1021500D01*
X1020000Y498500D02*
Y501500D01*
X1038500Y380000D02*
X1041500D01*
X1040000Y378500D02*
Y381500D01*
X1018500Y180000D02*
X1021500D01*
X1020000Y178500D02*
Y181500D01*
X1018500Y20000D02*
X1021500D01*
X1020000Y18500D02*
Y21500D01*
X978500Y1140000D02*
X981500D01*
X980000Y1138500D02*
Y1141500D01*
X998500Y1020000D02*
X1001500D01*
X1000000Y1018500D02*
Y1021500D01*
X998500Y940000D02*
X1001500D01*
X1000000Y938500D02*
Y941500D01*
X998500Y860000D02*
X1001500D01*
X1000000Y858500D02*
Y861500D01*
X978500Y740000D02*
X981500D01*
X980000Y738500D02*
Y741500D01*
X998500Y460000D02*
X1001500D01*
X1000000Y458500D02*
Y461500D01*
X978500Y20000D02*
X981500D01*
X980000Y18500D02*
Y21500D01*
X938500Y1140000D02*
X941500D01*
X940000Y1138500D02*
Y1141500D01*
X958500Y860000D02*
X961500D01*
X960000Y858500D02*
Y861500D01*
X958500Y780000D02*
X961500D01*
X960000Y778500D02*
Y781500D01*
X938500Y500000D02*
X941500D01*
X940000Y498500D02*
Y501500D01*
X938500Y420000D02*
X941500D01*
X940000Y418500D02*
Y421500D01*
X958500Y140000D02*
X961500D01*
X960000Y138500D02*
Y141500D01*
X938500Y100000D02*
X941500D01*
X940000Y98500D02*
Y101500D01*
X938500Y20000D02*
X941500D01*
X940000Y18500D02*
Y21500D01*
X898500Y1140000D02*
X901500D01*
X900000Y1138500D02*
Y1141500D01*
X918500Y1100000D02*
X921500D01*
X920000Y1098500D02*
Y1101500D01*
X898500Y1060000D02*
X901500D01*
X900000Y1058500D02*
Y1061500D01*
X918500Y940000D02*
X921500D01*
X920000Y938500D02*
Y941500D01*
X918500Y860000D02*
X921500D01*
X920000Y858500D02*
Y861500D01*
X898500Y740000D02*
X901500D01*
X900000Y738500D02*
Y741500D01*
X918500Y300000D02*
X921500D01*
X920000Y298500D02*
Y301500D01*
X918500Y220000D02*
X921500D01*
X920000Y218500D02*
Y221500D01*
X918500Y60000D02*
X921500D01*
X920000Y58500D02*
Y61500D01*
X898500Y20000D02*
X901500D01*
X900000Y18500D02*
Y21500D01*
X858500Y1140000D02*
X861500D01*
X860000Y1138500D02*
Y1141500D01*
X878500Y940000D02*
X881500D01*
X880000Y938500D02*
Y941500D01*
X858500Y820000D02*
X861500D01*
X860000Y818500D02*
Y821500D01*
X858500Y660000D02*
X861500D01*
X860000Y658500D02*
Y661500D01*
X878500Y460000D02*
X881500D01*
X880000Y458500D02*
Y461500D01*
X878500Y220000D02*
X881500D01*
X880000Y218500D02*
Y221500D01*
X858500Y180000D02*
X861500D01*
X860000Y178500D02*
Y181500D01*
X858500Y100000D02*
X861500D01*
X860000Y98500D02*
Y101500D01*
X878500Y60000D02*
X881500D01*
X880000Y58500D02*
Y61500D01*
X858500Y20000D02*
X861500D01*
X860000Y18500D02*
Y21500D01*
X818500Y1140000D02*
X821500D01*
X820000Y1138500D02*
Y1141500D01*
X818500Y1060000D02*
X821500D01*
X820000Y1058500D02*
Y1061500D01*
X818500Y820000D02*
X821500D01*
X820000Y818500D02*
Y821500D01*
X838500Y780000D02*
X841500D01*
X840000Y778500D02*
Y781500D01*
X818500Y740000D02*
X821500D01*
X820000Y738500D02*
Y741500D01*
X818500Y660000D02*
X821500D01*
X820000Y658500D02*
Y661500D01*
X818500Y100000D02*
X821500D01*
X820000Y98500D02*
Y101500D01*
X838500Y60000D02*
X841500D01*
X840000Y58500D02*
Y61500D01*
X818500Y20000D02*
X821500D01*
X820000Y18500D02*
Y21500D01*
X778500Y1140000D02*
X781500D01*
X780000Y1138500D02*
Y1141500D01*
X798500Y1100000D02*
X801500D01*
X800000Y1098500D02*
Y1101500D01*
X778500Y1060000D02*
X781500D01*
X780000Y1058500D02*
Y1061500D01*
X798500Y940000D02*
X801500D01*
X800000Y938500D02*
Y941500D01*
X778500Y820000D02*
X781500D01*
X780000Y818500D02*
Y821500D01*
X778500Y660000D02*
X781500D01*
X780000Y658500D02*
Y661500D01*
X778500Y580000D02*
X781500D01*
X780000Y578500D02*
Y581500D01*
X778500Y420000D02*
X781500D01*
X780000Y418500D02*
Y421500D01*
X798500Y300000D02*
X801500D01*
X800000Y298500D02*
Y301500D01*
X798500Y220000D02*
X801500D01*
X800000Y218500D02*
Y221500D01*
X778500Y100000D02*
X781500D01*
X780000Y98500D02*
Y101500D01*
X798500Y60000D02*
X801500D01*
X800000Y58500D02*
Y61500D01*
X778500Y20000D02*
X781500D01*
X780000Y18500D02*
Y21500D01*
X738500Y1140000D02*
X741500D01*
X740000Y1138500D02*
Y1141500D01*
X738500Y820000D02*
X741500D01*
X740000Y818500D02*
Y821500D01*
X758500Y700000D02*
X761500D01*
X760000Y698500D02*
Y701500D01*
X738500Y660000D02*
X741500D01*
X740000Y658500D02*
Y661500D01*
X738500Y580000D02*
X741500D01*
X740000Y578500D02*
Y581500D01*
X738500Y420000D02*
X741500D01*
X740000Y418500D02*
Y421500D01*
X758500Y380000D02*
X761500D01*
X760000Y378500D02*
Y381500D01*
X758500Y220000D02*
X761500D01*
X760000Y218500D02*
Y221500D01*
X738500Y100000D02*
X741500D01*
X740000Y98500D02*
Y101500D01*
X758500Y60000D02*
X761500D01*
X760000Y58500D02*
Y61500D01*
X738500Y20000D02*
X741500D01*
X740000Y18500D02*
Y21500D01*
X698500Y1140000D02*
X701500D01*
X700000Y1138500D02*
Y1141500D01*
X718500Y1100000D02*
X721500D01*
X720000Y1098500D02*
Y1101500D01*
X698500Y1060000D02*
X701500D01*
X700000Y1058500D02*
Y1061500D01*
X698500Y820000D02*
X701500D01*
X700000Y818500D02*
Y821500D01*
X718500Y700000D02*
X721500D01*
X720000Y698500D02*
Y701500D01*
X698500Y660000D02*
X701500D01*
X700000Y658500D02*
Y661500D01*
X698500Y420000D02*
X701500D01*
X700000Y418500D02*
Y421500D01*
X718500Y220000D02*
X721500D01*
X720000Y218500D02*
Y221500D01*
X718500Y60000D02*
X721500D01*
X720000Y58500D02*
Y61500D01*
X698500Y20000D02*
X701500D01*
X700000Y18500D02*
Y21500D01*
X658500Y1140000D02*
X661500D01*
X660000Y1138500D02*
Y1141500D01*
X678500Y1100000D02*
X681500D01*
X680000Y1098500D02*
Y1101500D01*
X658500Y1060000D02*
X661500D01*
X660000Y1058500D02*
Y1061500D01*
X658500Y980000D02*
X661500D01*
X660000Y978500D02*
Y981500D01*
X678500Y940000D02*
X681500D01*
X680000Y938500D02*
Y941500D01*
X678500Y700000D02*
X681500D01*
X680000Y698500D02*
Y701500D01*
X678500Y620000D02*
X681500D01*
X680000Y618500D02*
Y621500D01*
X658500Y580000D02*
X661500D01*
X660000Y578500D02*
Y581500D01*
X658500Y340000D02*
X661500D01*
X660000Y338500D02*
Y341500D01*
X678500Y220000D02*
X681500D01*
X680000Y218500D02*
Y221500D01*
X678500Y140000D02*
X681500D01*
X680000Y138500D02*
Y141500D01*
X658500Y100000D02*
X661500D01*
X660000Y98500D02*
Y101500D01*
X678500Y60000D02*
X681500D01*
X680000Y58500D02*
Y61500D01*
X658500Y20000D02*
X661500D01*
X660000Y18500D02*
Y21500D01*
X618500Y1140000D02*
X621500D01*
X620000Y1138500D02*
Y1141500D01*
X638500Y220000D02*
X641500D01*
X640000Y218500D02*
Y221500D01*
X638500Y140000D02*
X641500D01*
X640000Y138500D02*
Y141500D01*
X638500Y60000D02*
X641500D01*
X640000Y58500D02*
Y61500D01*
X618500Y20000D02*
X621500D01*
X620000Y18500D02*
Y21500D01*
X578500Y1140000D02*
X581500D01*
X580000Y1138500D02*
Y1141500D01*
X598500Y1100000D02*
X601500D01*
X600000Y1098500D02*
Y1101500D01*
X598500Y940000D02*
X601500D01*
X600000Y938500D02*
Y941500D01*
X578500Y900000D02*
X581500D01*
X580000Y898500D02*
Y901500D01*
X598500Y700000D02*
X601500D01*
X600000Y698500D02*
Y701500D01*
X598500Y60000D02*
X601500D01*
X600000Y58500D02*
Y61500D01*
X578500Y20000D02*
X581500D01*
X580000Y18500D02*
Y21500D01*
X538500Y1140000D02*
X541500D01*
X540000Y1138500D02*
Y1141500D01*
X558500Y940000D02*
X561500D01*
X560000Y938500D02*
Y941500D01*
X558500Y700000D02*
X561500D01*
X560000Y698500D02*
Y701500D01*
X558500Y220000D02*
X561500D01*
X560000Y218500D02*
Y221500D01*
X538500Y100000D02*
X541500D01*
X540000Y98500D02*
Y101500D01*
X558500Y60000D02*
X561500D01*
X560000Y58500D02*
Y61500D01*
X538500Y20000D02*
X541500D01*
X540000Y18500D02*
Y21500D01*
X498500Y1140000D02*
X501500D01*
X500000Y1138500D02*
Y1141500D01*
X518500Y1100000D02*
X521500D01*
X520000Y1098500D02*
Y1101500D01*
X518500Y620000D02*
X521500D01*
X520000Y618500D02*
Y621500D01*
X498500Y580000D02*
X501500D01*
X500000Y578500D02*
Y581500D01*
X518500Y220000D02*
X521500D01*
X520000Y218500D02*
Y221500D01*
X518500Y60000D02*
X521500D01*
X520000Y58500D02*
Y61500D01*
X498500Y20000D02*
X501500D01*
X500000Y18500D02*
Y21500D01*
X458500Y1140000D02*
X461500D01*
X460000Y1138500D02*
Y1141500D01*
X478500Y1100000D02*
X481500D01*
X480000Y1098500D02*
Y1101500D01*
X458500Y980000D02*
X461500D01*
X460000Y978500D02*
Y981500D01*
X478500Y700000D02*
X481500D01*
X480000Y698500D02*
Y701500D01*
X458500Y660000D02*
X461500D01*
X460000Y658500D02*
Y661500D01*
X478500Y300000D02*
X481500D01*
X480000Y298500D02*
Y301500D01*
X478500Y140000D02*
X481500D01*
X480000Y138500D02*
Y141500D01*
X478500Y60000D02*
X481500D01*
X480000Y58500D02*
Y61500D01*
X458500Y20000D02*
X461500D01*
X460000Y18500D02*
Y21500D01*
X418500Y1140000D02*
X421500D01*
X420000Y1138500D02*
Y1141500D01*
X438500Y700000D02*
X441500D01*
X440000Y698500D02*
Y701500D01*
X418500Y660000D02*
X421500D01*
X420000Y658500D02*
Y661500D01*
X438500Y300000D02*
X441500D01*
X440000Y298500D02*
Y301500D01*
X438500Y60000D02*
X441500D01*
X440000Y58500D02*
Y61500D01*
X418500Y20000D02*
X421500D01*
X420000Y18500D02*
Y21500D01*
X378500Y1140000D02*
X381500D01*
X380000Y1138500D02*
Y1141500D01*
X378500Y1060000D02*
X381500D01*
X380000Y1058500D02*
Y1061500D01*
X378500Y980000D02*
X381500D01*
X380000Y978500D02*
Y981500D01*
X398500Y700000D02*
X401500D01*
X400000Y698500D02*
Y701500D01*
X398500Y620000D02*
X401500D01*
X400000Y618500D02*
Y621500D01*
X398500Y220000D02*
X401500D01*
X400000Y218500D02*
Y221500D01*
X378500Y100000D02*
X381500D01*
X380000Y98500D02*
Y101500D01*
X398500Y60000D02*
X401500D01*
X400000Y58500D02*
Y61500D01*
X378500Y20000D02*
X381500D01*
X380000Y18500D02*
Y21500D01*
X338500Y1140000D02*
X341500D01*
X340000Y1138500D02*
Y1141500D01*
X358500Y1100000D02*
X361500D01*
X360000Y1098500D02*
Y1101500D01*
X358500Y1020000D02*
X361500D01*
X360000Y1018500D02*
Y1021500D01*
X358500Y860000D02*
X361500D01*
X360000Y858500D02*
Y861500D01*
X358500Y700000D02*
X361500D01*
X360000Y698500D02*
Y701500D01*
X358500Y380000D02*
X361500D01*
X360000Y378500D02*
Y381500D01*
X338500Y340000D02*
X341500D01*
X340000Y338500D02*
Y341500D01*
X358500Y300000D02*
X361500D01*
X360000Y298500D02*
Y301500D01*
X338500Y260000D02*
X341500D01*
X340000Y258500D02*
Y261500D01*
X358500Y220000D02*
X361500D01*
X360000Y218500D02*
Y221500D01*
X358500Y60000D02*
X361500D01*
X360000Y58500D02*
Y61500D01*
X338500Y20000D02*
X341500D01*
X340000Y18500D02*
Y21500D01*
X298500Y1140000D02*
X301500D01*
X300000Y1138500D02*
Y1141500D01*
X318500Y1100000D02*
X321500D01*
X320000Y1098500D02*
Y1101500D01*
X318500Y860000D02*
X321500D01*
X320000Y858500D02*
Y861500D01*
X318500Y700000D02*
X321500D01*
X320000Y698500D02*
Y701500D01*
X318500Y620000D02*
X321500D01*
X320000Y618500D02*
Y621500D01*
X318500Y460000D02*
X321500D01*
X320000Y458500D02*
Y461500D01*
X298500Y100000D02*
X301500D01*
X300000Y98500D02*
Y101500D01*
X318500Y60000D02*
X321500D01*
X320000Y58500D02*
Y61500D01*
X298500Y20000D02*
X301500D01*
X300000Y18500D02*
Y21500D01*
X258500Y1140000D02*
X261500D01*
X260000Y1138500D02*
Y1141500D01*
X278500Y1100000D02*
X281500D01*
X280000Y1098500D02*
Y1101500D01*
X258500Y1060000D02*
X261500D01*
X260000Y1058500D02*
Y1061500D01*
X278500Y460000D02*
X281500D01*
X280000Y458500D02*
Y461500D01*
X278500Y380000D02*
X281500D01*
X280000Y378500D02*
Y381500D01*
X258500Y340000D02*
X261500D01*
X260000Y338500D02*
Y341500D01*
X278500Y300000D02*
X281500D01*
X280000Y298500D02*
Y301500D01*
X258500Y260000D02*
X261500D01*
X260000Y258500D02*
Y261500D01*
X278500Y220000D02*
X281500D01*
X280000Y218500D02*
Y221500D01*
X258500Y180000D02*
X261500D01*
X260000Y178500D02*
Y181500D01*
X258500Y100000D02*
X261500D01*
X260000Y98500D02*
Y101500D01*
X278500Y60000D02*
X281500D01*
X280000Y58500D02*
Y61500D01*
X258500Y20000D02*
X261500D01*
X260000Y18500D02*
Y21500D01*
X218500Y1140000D02*
X221500D01*
X220000Y1138500D02*
Y1141500D01*
X218500Y1060000D02*
X221500D01*
X220000Y1058500D02*
Y1061500D01*
X238500Y380000D02*
X241500D01*
X240000Y378500D02*
Y381500D01*
X238500Y300000D02*
X241500D01*
X240000Y298500D02*
Y301500D01*
X238500Y220000D02*
X241500D01*
X240000Y218500D02*
Y221500D01*
X238500Y140000D02*
X241500D01*
X240000Y138500D02*
Y141500D01*
X238500Y60000D02*
X241500D01*
X240000Y58500D02*
Y61500D01*
X218500Y20000D02*
X221500D01*
X220000Y18500D02*
Y21500D01*
X178500Y1140000D02*
X181500D01*
X180000Y1138500D02*
Y1141500D01*
X178500Y1060000D02*
X181500D01*
X180000Y1058500D02*
Y1061500D01*
X198500Y380000D02*
X201500D01*
X200000Y378500D02*
Y381500D01*
X178500Y340000D02*
X181500D01*
X180000Y338500D02*
Y341500D01*
X198500Y300000D02*
X201500D01*
X200000Y298500D02*
Y301500D01*
X178500Y260000D02*
X181500D01*
X180000Y258500D02*
Y261500D01*
X198500Y220000D02*
X201500D01*
X200000Y218500D02*
Y221500D01*
X178500Y180000D02*
X181500D01*
X180000Y178500D02*
Y181500D01*
X198500Y60000D02*
X201500D01*
X200000Y58500D02*
Y61500D01*
X178500Y20000D02*
X181500D01*
X180000Y18500D02*
Y21500D01*
X138500Y1140000D02*
X141500D01*
X140000Y1138500D02*
Y1141500D01*
X138500Y980000D02*
X141500D01*
X140000Y978500D02*
Y981500D01*
X158500Y460000D02*
X161500D01*
X160000Y458500D02*
Y461500D01*
X158500Y380000D02*
X161500D01*
X160000Y378500D02*
Y381500D01*
X138500Y340000D02*
X141500D01*
X140000Y338500D02*
Y341500D01*
X158500Y300000D02*
X161500D01*
X160000Y298500D02*
Y301500D01*
X138500Y260000D02*
X141500D01*
X140000Y258500D02*
Y261500D01*
X158500Y220000D02*
X161500D01*
X160000Y218500D02*
Y221500D01*
X158500Y60000D02*
X161500D01*
X160000Y58500D02*
Y61500D01*
X138500Y20000D02*
X141500D01*
X140000Y18500D02*
Y21500D01*
X98500Y1140000D02*
X101500D01*
X100000Y1138500D02*
Y1141500D01*
X98500Y1060000D02*
X101500D01*
X100000Y1058500D02*
Y1061500D01*
X98500Y980000D02*
X101500D01*
X100000Y978500D02*
Y981500D01*
X118500Y940000D02*
X121500D01*
X120000Y938500D02*
Y941500D01*
X98500Y900000D02*
X101500D01*
X100000Y898500D02*
Y901500D01*
X118500Y860000D02*
X121500D01*
X120000Y858500D02*
Y861500D01*
X98500Y820000D02*
X101500D01*
X100000Y818500D02*
Y821500D01*
X118500Y780000D02*
X121500D01*
X120000Y778500D02*
Y781500D01*
X98500Y660000D02*
X101500D01*
X100000Y658500D02*
Y661500D01*
X98500Y580000D02*
X101500D01*
X100000Y578500D02*
Y581500D01*
X98500Y500000D02*
X101500D01*
X100000Y498500D02*
Y501500D01*
X118500Y460000D02*
X121500D01*
X120000Y458500D02*
Y461500D01*
X118500Y380000D02*
X121500D01*
X120000Y378500D02*
Y381500D01*
X98500Y340000D02*
X101500D01*
X100000Y338500D02*
Y341500D01*
X118500Y300000D02*
X121500D01*
X120000Y298500D02*
Y301500D01*
X98500Y260000D02*
X101500D01*
X100000Y258500D02*
Y261500D01*
X118500Y220000D02*
X121500D01*
X120000Y218500D02*
Y221500D01*
X118500Y140000D02*
X121500D01*
X120000Y138500D02*
Y141500D01*
X118500Y60000D02*
X121500D01*
X120000Y58500D02*
Y61500D01*
X98500Y20000D02*
X101500D01*
X100000Y18500D02*
Y21500D01*
X78500Y1100000D02*
X81500D01*
X80000Y1098500D02*
Y1101500D01*
X58500Y1060000D02*
X61500D01*
X60000Y1058500D02*
Y1061500D01*
X58500Y980000D02*
X61500D01*
X60000Y978500D02*
Y981500D01*
X58500Y900000D02*
X61500D01*
X60000Y898500D02*
Y901500D01*
X78500Y860000D02*
X81500D01*
X80000Y858500D02*
Y861500D01*
X78500Y780000D02*
X81500D01*
X80000Y778500D02*
Y781500D01*
X58500Y740000D02*
X61500D01*
X60000Y738500D02*
Y741500D01*
X78500Y700000D02*
X81500D01*
X80000Y698500D02*
Y701500D01*
X58500Y660000D02*
X61500D01*
X60000Y658500D02*
Y661500D01*
X78500Y620000D02*
X81500D01*
X80000Y618500D02*
Y621500D01*
X78500Y540000D02*
X81500D01*
X80000Y538500D02*
Y541500D01*
X58500Y420000D02*
X61500D01*
X60000Y418500D02*
Y421500D01*
X58500Y340000D02*
X61500D01*
X60000Y338500D02*
Y341500D01*
X58500Y260000D02*
X61500D01*
X60000Y258500D02*
Y261500D01*
X58500Y180000D02*
X61500D01*
X60000Y178500D02*
Y181500D01*
X78500Y140000D02*
X81500D01*
X80000Y138500D02*
Y141500D01*
X38500Y1100000D02*
X41500D01*
X40000Y1098500D02*
Y1101500D01*
X18500Y1060000D02*
X21500D01*
X20000Y1058500D02*
Y1061500D01*
X18500Y980000D02*
X21500D01*
X20000Y978500D02*
Y981500D01*
X18500Y900000D02*
X21500D01*
X20000Y898500D02*
Y901500D01*
X18500Y260000D02*
X21500D01*
X20000Y258500D02*
Y261500D01*
X18500Y180000D02*
X21500D01*
X20000Y178500D02*
Y181500D01*
X18500Y100000D02*
X21500D01*
X20000Y98500D02*
Y101500D01*
X278500Y1180000D02*
X281500D01*
X280000Y1178500D02*
Y1181500D01*
X478500Y1180000D02*
X481500D01*
X480000Y1178500D02*
Y1181500D01*
X678500Y1180000D02*
X681500D01*
X680000Y1178500D02*
Y1181500D01*
X878500Y1180000D02*
X881500D01*
X880000Y1178500D02*
Y1181500D01*
X1078500Y1180000D02*
X1081500D01*
X1080000Y1178500D02*
Y1181500D01*
X1278500Y1180000D02*
X1281500D01*
X1280000Y1178500D02*
Y1181500D01*
X1478500Y1180000D02*
X1481500D01*
X1480000Y1178500D02*
Y1181500D01*
X1708500Y1180000D02*
X1711500D01*
X1710000Y1178500D02*
Y1181500D01*
X118500Y1180000D02*
X121500D01*
X120000Y1178500D02*
Y1181500D01*
X1118500Y750000D02*
X1121500D01*
X1120000Y748500D02*
Y751500D01*
X1028500Y740000D02*
X1031500D01*
X1030000Y738500D02*
Y741500D01*
X1278500Y340000D02*
X1281500D01*
X1280000Y338500D02*
Y341500D01*
X268500Y720000D02*
X271500D01*
X270000Y718500D02*
Y721500D01*
X188500Y720000D02*
X191500D01*
X190000Y718500D02*
Y721500D01*
X818500Y880000D02*
X821500D01*
X820000Y878500D02*
Y881500D01*
X738500Y880000D02*
X741500D01*
X740000Y878500D02*
Y881500D01*
X362500Y433000D02*
X365500D01*
X364000Y431500D02*
Y434500D01*
X219500Y436000D02*
X222500D01*
X221000Y434500D02*
Y437500D01*
X514500Y239000D02*
X517500D01*
X516000Y237500D02*
Y240500D01*
X479500Y371000D02*
X482500D01*
X481000Y369500D02*
Y372500D01*
X545500Y454000D02*
X548500D01*
X547000Y452500D02*
Y455500D01*
X505500Y413000D02*
X508500D01*
X507000Y411500D02*
Y414500D01*
X1404500Y727000D02*
X1407500D01*
X1406000Y725500D02*
Y728500D01*
X1244500Y801000D02*
X1247500D01*
X1246000Y799500D02*
Y802500D01*
X1224500Y512000D02*
X1227500D01*
X1226000Y510500D02*
Y513500D01*
X850605Y430235D02*
X853605D01*
X852105Y428735D02*
Y431735D01*
X992500Y625000D02*
X995500D01*
X994000Y623500D02*
Y626500D01*
X971500Y651000D02*
X974500D01*
X973000Y649500D02*
Y652500D01*
X1222500Y287000D02*
X1225500D01*
X1224000Y285500D02*
Y288500D01*
X1506500Y678000D02*
X1509500D01*
X1508000Y676500D02*
Y679500D01*
X1578500Y570000D02*
X1581500D01*
X1580000Y568500D02*
Y571500D01*
X1592435Y667465D02*
X1595435D01*
X1593936Y665965D02*
Y668965D01*
X1612500Y638000D02*
X1615500D01*
X1614000Y636500D02*
Y639500D01*
X492500Y536000D02*
X495500D01*
X494000Y534500D02*
Y537500D01*
X910500Y706095D02*
X913500D01*
X912000Y704595D02*
Y707595D01*
X475454Y433046D02*
X478454D01*
X476954Y431546D02*
Y434546D01*
X464500Y529000D02*
X467500D01*
X466000Y527500D02*
Y530500D01*
X489500Y401000D02*
X492500D01*
X491000Y399500D02*
Y402500D01*
X1205500Y709000D02*
X1208500D01*
X1207000Y707500D02*
Y710500D01*
X1004500Y718000D02*
X1007500D01*
X1006000Y716500D02*
Y719500D01*
X471500Y524000D02*
X474500D01*
X473000Y522500D02*
Y525500D01*
X481454Y439046D02*
X484454D01*
X482954Y437546D02*
Y440546D01*
X499500Y401000D02*
X502500D01*
X501000Y399500D02*
Y402500D01*
X1188500Y710000D02*
X1191500D01*
X1190000Y708500D02*
Y711500D01*
X1009651Y708730D02*
X1012651D01*
X1011151Y707230D02*
Y710230D01*
X1593500Y799000D02*
X1596500D01*
X1595000Y797500D02*
Y800500D01*
X1507500Y613000D02*
X1510500D01*
X1509000Y611500D02*
Y614500D01*
X1488500Y560000D02*
X1491500D01*
X1490000Y558500D02*
Y561500D01*
X1482492Y567993D02*
X1485492D01*
X1483992Y566493D02*
Y569493D01*
X1398500Y462000D02*
X1401500D01*
X1400000Y460500D02*
Y463500D01*
X1322500Y489600D02*
X1325500D01*
X1324000Y488100D02*
Y491100D01*
X1215230Y757151D02*
X1218230D01*
X1216730Y755651D02*
Y758651D01*
X990880Y760581D02*
X993880D01*
X992380Y759081D02*
Y762081D01*
X677500Y602000D02*
X680500D01*
X679000Y600500D02*
Y603500D01*
X677500Y593000D02*
X680500D01*
X679000Y591500D02*
Y594500D01*
X890500Y605000D02*
X893500D01*
X892000Y603500D02*
Y606500D01*
X878500Y604000D02*
X881500D01*
X880000Y602500D02*
Y605500D01*
X1188500Y723000D02*
X1191500D01*
X1190000Y721500D02*
Y724500D01*
X1526349Y928270D02*
X1529349D01*
X1527849Y926770D02*
Y929770D01*
X1525500Y916730D02*
X1528500D01*
X1527000Y915230D02*
Y918230D01*
X1163500Y880000D02*
X1166500D01*
X1165000Y878500D02*
Y881500D01*
X1165500Y872000D02*
X1168500D01*
X1167000Y870500D02*
Y873500D01*
X1165500Y864000D02*
X1168500D01*
X1167000Y862500D02*
Y865500D01*
X1154500Y898000D02*
X1157500D01*
X1156000Y896500D02*
Y899500D01*
X1156500Y733000D02*
X1159500D01*
X1158000Y731500D02*
Y734500D01*
X1185500Y740000D02*
X1188500D01*
X1187000Y738500D02*
Y741500D01*
X1223500Y588000D02*
X1226500D01*
X1225000Y586500D02*
Y589500D01*
X1374500Y462000D02*
X1377500D01*
X1376000Y460500D02*
Y463500D01*
X1398500Y454000D02*
X1401500D01*
X1400000Y452500D02*
Y455500D01*
X1374500Y454000D02*
X1377500D01*
X1376000Y452500D02*
Y455500D01*
X1382500Y454000D02*
X1385500D01*
X1384000Y452500D02*
Y455500D01*
X1390500Y454000D02*
X1393500D01*
X1392000Y452500D02*
Y455500D01*
X1270500Y637000D02*
X1273500D01*
X1272000Y635500D02*
Y638500D01*
X1062500Y670000D02*
X1065500D01*
X1064000Y668500D02*
Y671500D01*
X1061500Y661000D02*
X1064500D01*
X1063000Y659500D02*
Y662500D01*
X1243500Y486000D02*
X1246500D01*
X1245000Y484500D02*
Y487500D01*
X1239457Y495042D02*
X1242458D01*
X1240957Y493542D02*
Y496542D01*
X1251500Y483930D02*
X1254500D01*
X1253000Y482430D02*
Y485430D01*
X1233500Y484000D02*
X1236500D01*
X1235000Y482500D02*
Y485500D01*
X1328500Y518000D02*
X1331500D01*
X1330000Y516500D02*
Y519500D01*
X1393500Y534000D02*
X1396500D01*
X1395000Y532500D02*
Y535500D01*
X1387475Y596618D02*
X1390475D01*
X1388975Y595117D02*
Y598117D01*
X1146500Y640000D02*
X1149500D01*
X1148000Y638500D02*
Y641500D01*
X1504500Y348000D02*
X1507500D01*
X1506000Y346500D02*
Y349500D01*
X1420500Y802000D02*
X1423500D01*
X1422000Y800500D02*
Y803500D01*
X1428500Y844000D02*
X1431500D01*
X1430000Y842500D02*
Y845500D01*
X1567500Y940000D02*
X1570500D01*
X1569000Y938500D02*
Y941500D01*
X1567500Y948000D02*
X1570500D01*
X1569000Y946500D02*
Y949500D01*
X1513440Y928940D02*
X1516440D01*
X1514940Y927440D02*
Y930440D01*
X1062500Y635000D02*
X1065500D01*
X1064000Y633500D02*
Y636500D01*
X1033500Y652730D02*
X1036500D01*
X1035000Y651230D02*
Y654230D01*
X1130500Y604000D02*
X1133500D01*
X1132000Y602500D02*
Y605500D01*
X1070000Y627000D02*
X1073000D01*
X1071500Y625500D02*
Y628500D01*
X1080500Y635000D02*
X1083500D01*
X1082000Y633500D02*
Y636500D01*
X1080500Y627000D02*
X1083500D01*
X1082000Y625500D02*
Y628500D01*
X1175500Y579000D02*
X1178500D01*
X1177000Y577500D02*
Y580500D01*
X1284500Y575000D02*
X1287500D01*
X1286000Y573500D02*
Y576500D01*
X1184500Y579000D02*
X1187500D01*
X1186000Y577500D02*
Y580500D01*
X1142208Y579292D02*
X1145208D01*
X1143708Y577792D02*
Y580792D01*
X1144500Y615000D02*
X1147500D01*
X1146000Y613500D02*
Y616500D01*
X1130500Y580000D02*
X1133500D01*
X1132000Y578500D02*
Y581500D01*
X1144500Y623000D02*
X1147500D01*
X1146000Y621500D02*
Y624500D01*
X1080450Y656000D02*
X1083450D01*
X1081950Y654500D02*
Y657500D01*
X1049000Y627000D02*
X1052000D01*
X1050500Y625500D02*
Y628500D01*
X1059500Y627000D02*
X1062500D01*
X1061000Y625500D02*
Y628500D01*
X1080450Y664000D02*
X1083450D01*
X1081950Y662500D02*
Y665500D01*
X1080450Y680000D02*
X1083450D01*
X1081950Y678500D02*
Y681500D01*
X1080450Y688000D02*
X1083450D01*
X1081950Y686500D02*
Y689500D01*
X1080500Y643000D02*
X1083500D01*
X1082000Y641500D02*
Y644500D01*
X1069958Y680000D02*
X1072958D01*
X1071458Y678500D02*
Y681500D01*
X1080450Y672000D02*
X1083450D01*
X1081950Y670500D02*
Y673500D01*
X1139500Y672000D02*
X1142500D01*
X1141000Y670500D02*
Y673500D01*
X1088450Y679000D02*
X1091450D01*
X1089950Y677500D02*
Y680500D01*
X1135500Y679000D02*
X1138500D01*
X1137000Y677500D02*
Y680500D01*
X1059467Y680000D02*
X1062467D01*
X1060967Y678500D02*
Y681500D01*
X1048975Y680000D02*
X1051975D01*
X1050475Y678500D02*
Y681500D01*
X1202500Y699417D02*
X1205500D01*
X1204000Y697917D02*
Y700917D01*
X1178500Y698000D02*
X1181500D01*
X1180000Y696500D02*
Y699500D01*
X1194868Y696632D02*
X1197868D01*
X1196368Y695132D02*
Y698132D01*
X1203500Y579000D02*
X1206500D01*
X1205000Y577500D02*
Y580500D01*
X1204500Y587000D02*
X1207500D01*
X1206000Y585500D02*
Y588500D01*
X1217500Y641000D02*
X1220500D01*
X1219000Y639500D02*
Y642500D01*
X1217500Y649000D02*
X1220500D01*
X1219000Y647500D02*
Y650500D01*
X1218500Y581000D02*
X1221500D01*
X1220000Y579500D02*
Y582500D01*
X1225500Y622000D02*
X1228500D01*
X1227000Y620500D02*
Y623500D01*
X1226500Y663000D02*
X1229500D01*
X1228000Y661500D02*
Y664500D01*
X1236700Y596800D02*
X1239700D01*
X1238200Y595300D02*
Y598300D01*
X1237500Y693000D02*
X1240500D01*
X1239000Y691500D02*
Y694500D01*
X1246500Y597000D02*
X1249500D01*
X1248000Y595500D02*
Y598500D01*
X1262500Y635000D02*
X1265500D01*
X1264000Y633500D02*
Y636500D01*
X1264500Y689000D02*
X1267500D01*
X1266000Y687500D02*
Y690500D01*
X1266500Y667000D02*
X1269500D01*
X1268000Y665500D02*
Y668500D01*
X1272223Y645800D02*
X1275223D01*
X1273723Y644300D02*
Y647300D01*
X1257500Y693000D02*
X1260500D01*
X1259000Y691500D02*
Y694500D01*
X1145500Y666000D02*
X1148500D01*
X1147000Y664500D02*
Y667500D01*
X1112945Y656000D02*
X1115946D01*
X1114445Y654500D02*
Y657500D01*
X1088574Y656000D02*
X1091574D01*
X1090074Y654500D02*
Y657500D01*
X1121069Y656000D02*
X1124069D01*
X1122569Y654500D02*
Y657500D01*
X1129193Y656000D02*
X1132193D01*
X1130693Y654500D02*
Y657500D01*
X1088450Y665000D02*
X1091450D01*
X1089950Y663500D02*
Y666500D01*
X1096698Y656000D02*
X1099698D01*
X1098198Y654500D02*
Y657500D01*
X1137317Y656000D02*
X1140317D01*
X1138817Y654500D02*
Y657500D01*
X1090022Y643000D02*
X1093022D01*
X1091522Y641500D02*
Y644500D01*
X1099544Y643000D02*
X1102544D01*
X1101044Y641500D02*
Y644500D01*
X1109067Y643000D02*
X1112067D01*
X1110567Y641500D02*
Y644500D01*
X1128111Y643000D02*
X1131111D01*
X1129611Y641500D02*
Y644500D01*
X1137633Y643000D02*
X1140633D01*
X1139133Y641500D02*
Y644500D01*
X1118589Y643000D02*
X1121589D01*
X1120089Y641500D02*
Y644500D01*
X1109500Y711000D02*
X1112500D01*
X1111000Y709500D02*
Y712500D01*
X1098467Y688000D02*
X1101467D01*
X1099967Y686500D02*
Y689500D01*
X1146500Y702000D02*
X1149500D01*
X1148000Y700500D02*
Y703500D01*
X1168000Y723500D02*
X1171000D01*
X1169500Y722000D02*
Y725000D01*
X1116483Y688000D02*
X1119483D01*
X1117983Y686500D02*
Y689500D01*
X1125492Y688000D02*
X1128492D01*
X1126992Y686500D02*
Y689500D01*
X1107475Y688000D02*
X1110475D01*
X1108975Y686500D02*
Y689500D01*
X1089458Y688000D02*
X1092458D01*
X1090958Y686500D02*
Y689500D01*
X1134500Y688000D02*
X1137500D01*
X1136000Y686500D02*
Y689500D01*
X1119500Y628000D02*
X1122500D01*
X1121000Y626500D02*
Y629500D01*
X1119800Y616300D02*
X1122800D01*
X1121300Y614800D02*
Y617800D01*
X1028000Y627000D02*
X1031000D01*
X1029500Y625500D02*
Y628500D01*
X1017500Y671167D02*
X1020500D01*
X1019000Y669667D02*
Y672666D01*
X995740Y669923D02*
X998740D01*
X997240Y668423D02*
Y671423D01*
X1017500Y627000D02*
X1020500D01*
X1019000Y625500D02*
Y628500D01*
X1017500Y635833D02*
X1020500D01*
X1019000Y634333D02*
Y637333D01*
X1017500Y644667D02*
X1020500D01*
X1019000Y643167D02*
Y646167D01*
X1017500Y653500D02*
X1020500D01*
X1019000Y652000D02*
Y655000D01*
X984500Y670000D02*
X987500D01*
X986000Y668500D02*
Y671500D01*
X992500Y653000D02*
X995500D01*
X994000Y651500D02*
Y654500D01*
X1002500Y691000D02*
X1005500D01*
X1004000Y689500D02*
Y692500D01*
X1017500Y662333D02*
X1020500D01*
X1019000Y660833D02*
Y663833D01*
X1366589Y421155D02*
X1369589D01*
X1368089Y419655D02*
Y422655D01*
X1371500Y403000D02*
X1374500D01*
X1373000Y401500D02*
Y404500D01*
X1361500Y397000D02*
X1364500D01*
X1363000Y395500D02*
Y398500D01*
X1313772Y482918D02*
X1316772D01*
X1315272Y481418D02*
Y484418D01*
X1295500Y496000D02*
X1298500D01*
X1297000Y494500D02*
Y497500D01*
X1248500Y495800D02*
X1251500D01*
X1250000Y494300D02*
Y497300D01*
X1264500Y495800D02*
X1267500D01*
X1266000Y494300D02*
Y497300D01*
X1284500Y495800D02*
X1287500D01*
X1286000Y494300D02*
Y497300D01*
X1330440Y464000D02*
X1333440D01*
X1331940Y462500D02*
Y465500D01*
X1328734Y483260D02*
X1331734D01*
X1330234Y481760D02*
Y484760D01*
X1348500Y533000D02*
X1351500D01*
X1350000Y531500D02*
Y534500D01*
X1342552Y525698D02*
X1345552D01*
X1344052Y524198D02*
Y527198D01*
X514500Y407000D02*
X517500D01*
X516000Y405500D02*
Y408500D01*
X1599500Y129000D02*
X1602500D01*
X1601000Y127500D02*
Y130500D01*
X1111485Y446015D02*
X1114485D01*
X1112985Y444515D02*
Y447515D01*
X1107500Y425000D02*
X1110500D01*
X1109000Y423500D02*
Y426500D01*
X1019500Y714000D02*
X1022500D01*
X1021000Y712500D02*
Y715500D01*
X1562500Y630000D02*
X1565500D01*
X1564000Y628500D02*
Y631500D01*
X1332500Y801000D02*
X1335500D01*
X1334000Y799500D02*
Y802500D01*
X1324500Y801000D02*
X1327500D01*
X1326000Y799500D02*
Y802500D01*
X1401500Y835000D02*
X1404500D01*
X1403000Y833500D02*
Y836500D01*
X1147281Y891359D02*
X1150281D01*
X1148781Y889859D02*
Y892859D01*
X1145485Y870532D02*
X1148485D01*
X1146985Y869032D02*
Y872032D01*
X1143500Y879000D02*
X1146500D01*
X1145000Y877500D02*
Y880500D01*
X1133500Y890000D02*
X1136500D01*
X1135000Y888500D02*
Y891500D01*
X1173500Y893000D02*
X1176500D01*
X1175000Y891500D02*
Y894500D01*
X1167533Y887049D02*
X1170533D01*
X1169033Y885549D02*
Y888549D01*
X1214750Y800295D02*
X1217750D01*
X1216250Y798795D02*
Y801795D01*
X1292500Y575795D02*
X1295500D01*
X1294000Y574295D02*
Y577295D01*
X1316769Y455000D02*
X1319769D01*
X1318269Y453500D02*
Y456500D01*
X1307295Y461205D02*
X1310295D01*
X1308795Y459705D02*
Y462705D01*
X1319870Y520630D02*
X1322870D01*
X1321370Y519130D02*
Y522130D01*
X1279750Y533000D02*
X1282750D01*
X1281250Y531500D02*
Y534500D01*
X1282500Y515000D02*
X1285500D01*
X1284000Y513500D02*
Y516500D01*
X1269500Y529000D02*
X1272500D01*
X1271000Y527500D02*
Y530500D01*
X1202500Y533000D02*
X1205500D01*
X1204000Y531500D02*
Y534500D01*
X1305500Y663000D02*
X1308500D01*
X1307000Y661500D02*
Y664500D01*
X1305500Y654000D02*
X1308500D01*
X1307000Y652500D02*
Y655500D01*
X998533Y769049D02*
X1001533D01*
X1000033Y767549D02*
Y770549D01*
X978500Y788000D02*
X981500D01*
X980000Y786500D02*
Y789500D01*
X971500Y783000D02*
X974500D01*
X973000Y781500D02*
Y784500D01*
X884542Y596958D02*
X887542D01*
X886042Y595457D02*
Y598457D01*
X895708Y596822D02*
X898708D01*
X897208Y595322D02*
Y598322D01*
X841500Y541000D02*
X844500D01*
X843000Y539500D02*
Y542500D01*
X847500Y547000D02*
X850500D01*
X849000Y545500D02*
Y548500D01*
X831500Y529000D02*
X834500D01*
X833000Y527500D02*
Y530500D01*
X823500Y529000D02*
X826500D01*
X825000Y527500D02*
Y530500D01*
X806500Y496000D02*
X809500D01*
X808000Y494500D02*
Y497500D01*
X501500Y536000D02*
X504500D01*
X503000Y534500D02*
Y537500D01*
X475500Y517000D02*
X478500D01*
X477000Y515500D02*
Y518500D01*
X481500Y511000D02*
X484500D01*
X483000Y509500D02*
Y512500D01*
X496405Y514000D02*
X499405D01*
X497905Y512500D02*
Y515500D01*
X569500Y518000D02*
X572500D01*
X571000Y516500D02*
Y519500D01*
X1188500Y732000D02*
X1191500D01*
X1190000Y730500D02*
Y733500D01*
X1148500Y735000D02*
X1151500D01*
X1150000Y733500D02*
Y736500D01*
X1319933Y411183D02*
X1322933D01*
X1321433Y409683D02*
Y412683D01*
X1361110Y411617D02*
X1364110D01*
X1362610Y410117D02*
Y413117D01*
X1359028Y428944D02*
X1362028D01*
X1360528Y427444D02*
Y430444D01*
X1361500Y437000D02*
X1364500D01*
X1363000Y435500D02*
Y438500D01*
X1306680Y452180D02*
X1309680D01*
X1308180Y450680D02*
Y453680D01*
X1403500Y369000D02*
X1406500D01*
X1405000Y367500D02*
Y370500D01*
X1363500Y364000D02*
X1366500D01*
X1365000Y362500D02*
Y365500D01*
X1240500Y270000D02*
X1243500D01*
X1242000Y268500D02*
Y271500D01*
X1241500Y312000D02*
X1244500D01*
X1243000Y310500D02*
Y313500D01*
X1231500Y317000D02*
X1234500D01*
X1233000Y315500D02*
Y318500D01*
X1074500Y396000D02*
X1077500D01*
X1076000Y394500D02*
Y397500D01*
X601500Y315000D02*
X604500D01*
X603000Y313500D02*
Y316500D01*
X858500Y315000D02*
X861500D01*
X860000Y313500D02*
Y316500D01*
X970500Y468000D02*
X973500D01*
X972000Y466500D02*
Y469500D01*
X980500Y465075D02*
X983500D01*
X982000Y463575D02*
Y466575D01*
X1149876Y456376D02*
X1152876D01*
X1151376Y454876D02*
Y457876D01*
X1110899Y520399D02*
X1113899D01*
X1112399Y518899D02*
Y521899D01*
X1104500Y493000D02*
X1107500D01*
X1106000Y491500D02*
Y494500D01*
X1094500Y530000D02*
X1097500D01*
X1096000Y528500D02*
Y531500D01*
X876500Y639000D02*
X879500D01*
X878000Y637500D02*
Y640500D01*
X884500Y639000D02*
X887500D01*
X886000Y637500D02*
Y640500D01*
X914498Y648083D02*
X917498D01*
X915998Y646582D02*
Y649583D01*
X909942Y682200D02*
X912943D01*
X911442Y680700D02*
Y683700D01*
X890500Y685000D02*
X893500D01*
X892000Y683500D02*
Y686500D01*
X1331323Y529823D02*
X1334323D01*
X1332823Y528323D02*
Y531323D01*
X1380056Y524085D02*
X1383056D01*
X1381556Y522584D02*
Y525584D01*
X1386500Y529000D02*
X1389500D01*
X1388000Y527500D02*
Y530500D01*
X1027992Y680000D02*
X1030992D01*
X1029492Y678500D02*
Y681500D01*
X1038483Y680000D02*
X1041483D01*
X1039983Y678500D02*
Y681500D01*
X1038500Y627000D02*
X1041500D01*
X1040000Y625500D02*
Y628500D01*
X1017500Y680000D02*
X1020500D01*
X1019000Y678500D02*
Y681500D01*
X1128500Y529000D02*
X1131500D01*
X1130000Y527500D02*
Y530500D01*
X973500Y714000D02*
X976500D01*
X975000Y712500D02*
Y715500D01*
X867500Y687000D02*
X870500D01*
X869000Y685500D02*
Y688500D01*
X398500Y354000D02*
X401500D01*
X400000Y352500D02*
Y355500D01*
X391500Y358000D02*
X394500D01*
X393000Y356500D02*
Y359500D01*
X391500Y366000D02*
X394500D01*
X393000Y364500D02*
Y367500D01*
X391500Y374000D02*
X394500D01*
X393000Y372500D02*
Y375500D01*
X391500Y382000D02*
X394500D01*
X393000Y380500D02*
Y383500D01*
X391500Y390000D02*
X394500D01*
X393000Y388500D02*
Y391500D01*
X391500Y398000D02*
X394500D01*
X393000Y396500D02*
Y399500D01*
X399500Y398000D02*
X402500D01*
X401000Y396500D02*
Y399500D01*
X433500Y344000D02*
X436500D01*
X435000Y342500D02*
Y345500D01*
X433500Y352000D02*
X436500D01*
X435000Y350500D02*
Y353500D01*
X439500Y358000D02*
X442500D01*
X441000Y356500D02*
Y359500D01*
X439500Y366000D02*
X442500D01*
X441000Y364500D02*
Y367500D01*
X439500Y374000D02*
X442500D01*
X441000Y372500D02*
Y375500D01*
X439500Y382000D02*
X442500D01*
X441000Y380500D02*
Y383500D01*
X407500Y398000D02*
X410500D01*
X409000Y396500D02*
Y399500D01*
X415500Y398000D02*
X418500D01*
X417000Y396500D02*
Y399500D01*
X439500Y390000D02*
X442500D01*
X441000Y388500D02*
Y391500D01*
X439500Y398000D02*
X442500D01*
X441000Y396500D02*
Y399500D01*
X431500Y398000D02*
X434500D01*
X433000Y396500D02*
Y399500D01*
X423500Y398000D02*
X426500D01*
X425000Y396500D02*
Y399500D01*
X409100Y383000D02*
X412100D01*
X410600Y381500D02*
Y384500D01*
X421500Y383000D02*
X424500D01*
X423000Y381500D02*
Y384500D01*
X537500Y210000D02*
X540500D01*
X539000Y208500D02*
Y211500D01*
X421500Y172000D02*
X424500D01*
X423000Y170500D02*
Y173500D01*
X475500Y202000D02*
X478500D01*
X477000Y200500D02*
Y203500D01*
X1655500Y396000D02*
X1658500D01*
X1657000Y394500D02*
Y397500D01*
X1655500Y359000D02*
X1658500D01*
X1657000Y357500D02*
Y360500D01*
X1395500Y489000D02*
X1398500D01*
X1397000Y487500D02*
Y490500D01*
X1557500Y275000D02*
X1560500D01*
X1559000Y273500D02*
Y276500D01*
X1569500Y211250D02*
X1572500D01*
X1571000Y209750D02*
Y212750D01*
X1575700Y178000D02*
X1578700D01*
X1577200Y176500D02*
Y179500D01*
X1592500Y199000D02*
X1595500D01*
X1594000Y197500D02*
Y200500D01*
X1642500Y174000D02*
X1645500D01*
X1644000Y172500D02*
Y175500D01*
X1430500Y432000D02*
X1433500D01*
X1432000Y430500D02*
Y433500D01*
X1390500Y516000D02*
X1393500D01*
X1392000Y514500D02*
Y517500D01*
X1650500Y868000D02*
X1653500D01*
X1652000Y866500D02*
Y869500D01*
X1527500Y643000D02*
X1530500D01*
X1529000Y641500D02*
Y644500D01*
X1589500Y715000D02*
X1592500D01*
X1591000Y713500D02*
Y716500D01*
X1590500Y705000D02*
X1593500D01*
X1592000Y703500D02*
Y706500D01*
X1736500Y869000D02*
X1739500D01*
X1738000Y867500D02*
Y870500D01*
X1492500Y717000D02*
X1495500D01*
X1494000Y715500D02*
Y718500D01*
X1492500Y706000D02*
X1495500D01*
X1494000Y704500D02*
Y707500D01*
X1366500Y374000D02*
X1369500D01*
X1368000Y372500D02*
Y375500D01*
X1409500Y363000D02*
X1412500D01*
X1411000Y361500D02*
Y364500D01*
X1436500Y403000D02*
X1439500D01*
X1438000Y401500D02*
Y404500D01*
X1252500Y448000D02*
X1255500D01*
X1254000Y446500D02*
Y449500D01*
X1515500Y450000D02*
X1518500D01*
X1517000Y448500D02*
Y451500D01*
X1261500Y448000D02*
X1264500D01*
X1263000Y446500D02*
Y449500D01*
X1430500Y411000D02*
X1433500D01*
X1432000Y409500D02*
Y412500D01*
X1416500Y516000D02*
X1419500D01*
X1418000Y514500D02*
Y517500D01*
X1352500Y520000D02*
X1355500D01*
X1354000Y518500D02*
Y521500D01*
X1561700Y638200D02*
X1564700D01*
X1563200Y636700D02*
Y639700D01*
X1328500Y455000D02*
X1331500D01*
X1330000Y453500D02*
Y456500D01*
X329500Y848000D02*
X332500D01*
X331000Y846500D02*
Y849500D01*
X291500Y819000D02*
X294500D01*
X293000Y817500D02*
Y820500D01*
X238500Y792000D02*
X241500D01*
X240000Y790500D02*
Y793500D01*
X1623500Y108000D02*
X1626500D01*
X1625000Y106500D02*
Y109500D01*
X1612500Y598000D02*
X1615500D01*
X1614000Y596500D02*
Y599500D01*
X272500Y819000D02*
X275500D01*
X274000Y817500D02*
Y820500D01*
X1220040Y765540D02*
X1223040D01*
X1221540Y764040D02*
Y767040D01*
X961500Y750000D02*
X964500D01*
X963000Y748500D02*
Y751500D01*
X909500Y599000D02*
X912500D01*
X911000Y597500D02*
Y600500D01*
X924218Y655717D02*
X927217D01*
X925717Y654218D02*
Y657217D01*
X1163500Y351000D02*
X1166500D01*
X1165000Y349500D02*
Y352500D01*
X1154500Y349000D02*
X1157500D01*
X1156000Y347500D02*
Y350500D01*
X1095500Y379000D02*
X1098500D01*
X1097000Y377500D02*
Y380500D01*
X1183500Y531000D02*
X1186500D01*
X1185000Y529500D02*
Y532500D01*
X1190500Y489000D02*
X1193500D01*
X1192000Y487500D02*
Y490500D01*
X1069500Y250000D02*
X1072500D01*
X1071000Y248500D02*
Y251500D01*
X923500Y190000D02*
X926500D01*
X925000Y188500D02*
Y191500D01*
X848500Y187000D02*
X851500D01*
X850000Y185500D02*
Y188500D01*
X1174500Y531000D02*
X1177500D01*
X1176000Y529500D02*
Y532500D01*
X1181500Y489000D02*
X1184500D01*
X1183000Y487500D02*
Y490500D01*
X1118500Y250000D02*
X1121500D01*
X1120000Y248500D02*
Y251500D01*
X975300Y186200D02*
X978300D01*
X976800Y184700D02*
Y187700D01*
X1379999Y648501D02*
X1382999D01*
X1381499Y647001D02*
Y650001D01*
X844500Y307000D02*
X847500D01*
X846000Y305500D02*
Y308500D01*
X1023500Y332000D02*
X1026500D01*
X1025000Y330500D02*
Y333500D01*
X1023500Y319000D02*
X1026500D01*
X1025000Y317500D02*
Y320500D01*
X1101500Y352000D02*
X1104500D01*
X1103000Y350500D02*
Y353500D01*
X513500Y295000D02*
X516500D01*
X515000Y293500D02*
Y296500D01*
X504500Y217000D02*
X507500D01*
X506000Y215500D02*
Y218500D01*
X608500Y403000D02*
X611500D01*
X610000Y401500D02*
Y404500D01*
X819500Y368000D02*
X822500D01*
X821000Y366500D02*
Y369500D01*
X805500Y290000D02*
X808500D01*
X807000Y288500D02*
Y291500D01*
X819500Y316000D02*
X822500D01*
X821000Y314500D02*
Y317500D01*
X820500Y336000D02*
X823500D01*
X822000Y334500D02*
Y337500D01*
X811500Y322000D02*
X814500D01*
X813000Y320500D02*
Y323500D01*
X803500Y382000D02*
X806500D01*
X805000Y380500D02*
Y383500D01*
X814500Y417600D02*
X817500D01*
X816000Y416100D02*
Y419100D01*
X814500Y404900D02*
X817500D01*
X816000Y403400D02*
Y406400D01*
X819500Y381000D02*
X822500D01*
X821000Y379500D02*
Y382500D01*
X814500Y443000D02*
X817500D01*
X816000Y441500D02*
Y444500D01*
X801500Y423000D02*
X804500D01*
X803000Y421500D02*
Y424500D01*
X1038500Y306000D02*
X1041500D01*
X1040000Y304500D02*
Y307500D01*
X1023500Y293000D02*
X1026500D01*
X1025000Y291500D02*
Y294500D01*
X1036500Y293000D02*
X1039500D01*
X1038000Y291500D02*
Y294500D01*
X1025080Y371000D02*
X1028080D01*
X1026580Y369500D02*
Y372500D01*
X1023500Y306000D02*
X1026500D01*
X1025000Y304500D02*
Y307500D01*
X870500Y166000D02*
X873500D01*
X872000Y164500D02*
Y167500D01*
X863500Y370000D02*
X866500D01*
X865000Y368500D02*
Y371500D01*
X881500Y322000D02*
X884500D01*
X883000Y320500D02*
Y323500D01*
X861500Y250000D02*
X864500D01*
X863000Y248500D02*
Y251500D01*
X882500Y346000D02*
X885500D01*
X884000Y344500D02*
Y347500D01*
X868500Y383000D02*
X871500D01*
X870000Y381500D02*
Y384500D01*
X865500Y403000D02*
X868500D01*
X867000Y401500D02*
Y404500D01*
X900500Y392000D02*
X903500D01*
X902000Y390500D02*
Y393500D01*
X920320Y404820D02*
X923320D01*
X921820Y403320D02*
Y406320D01*
X901500Y380000D02*
X904500D01*
X903000Y378500D02*
Y381500D01*
X930920Y382000D02*
X933920D01*
X932420Y380500D02*
Y383500D01*
X1001500Y380000D02*
X1004500D01*
X1003000Y378500D02*
Y381500D01*
X913970Y417470D02*
X916970D01*
X915470Y415970D02*
Y418970D01*
X913478Y442870D02*
X916478D01*
X914978Y441370D02*
Y444370D01*
X951500Y280000D02*
X954500D01*
X953000Y278500D02*
Y281500D01*
X962500Y320000D02*
X965500D01*
X964000Y318500D02*
Y321500D01*
X969700Y283286D02*
X972700D01*
X971200Y281786D02*
Y284786D01*
X979500Y284000D02*
X982500D01*
X981000Y282500D02*
Y285500D01*
X976500Y370000D02*
X979500D01*
X978000Y368500D02*
Y371500D01*
X930920Y369000D02*
X933920D01*
X932420Y367500D02*
Y370500D01*
X936700Y186200D02*
X939700D01*
X938200Y184700D02*
Y187700D01*
X936898Y148571D02*
X939898D01*
X938398Y147071D02*
Y150071D01*
X1009500Y360000D02*
X1012500D01*
X1011000Y358500D02*
Y361500D01*
X989080Y319000D02*
X992080D01*
X990580Y317500D02*
Y320500D01*
X992500Y311000D02*
X995500D01*
X994000Y309500D02*
Y312500D01*
X997500Y166000D02*
X1000500D01*
X999000Y164500D02*
Y167500D01*
X991500Y250000D02*
X994500D01*
X993000Y248500D02*
Y251500D01*
X991500Y215000D02*
X994500D01*
X993000Y213500D02*
Y216500D01*
X928500Y78000D02*
X931500D01*
X930000Y76500D02*
Y79500D01*
X819500Y253000D02*
X822500D01*
X821000Y251500D02*
Y254500D01*
X1044500Y77000D02*
X1047500D01*
X1046000Y75500D02*
Y78500D01*
X809898Y148571D02*
X812898D01*
X811398Y147071D02*
Y150071D01*
X809700Y186200D02*
X812700D01*
X811200Y184700D02*
Y187700D01*
X624500Y346000D02*
X627500D01*
X626000Y344500D02*
Y347500D01*
X722500Y284000D02*
X725500D01*
X724000Y282500D02*
Y285500D01*
X735500Y311000D02*
X738500D01*
X737000Y309500D02*
Y312500D01*
X720200Y186200D02*
X723200D01*
X721700Y184700D02*
Y187700D01*
X1065500Y233000D02*
X1068500D01*
X1067000Y231500D02*
Y234500D01*
X592300Y186200D02*
X595300D01*
X593800Y184700D02*
Y187700D01*
X1108500Y400000D02*
X1111500D01*
X1110000Y398500D02*
Y401500D01*
X1055500Y233000D02*
X1058500D01*
X1057000Y231500D02*
Y234500D01*
X1563500Y597000D02*
X1566500D01*
X1565000Y595500D02*
Y598500D01*
X1513500Y547000D02*
X1516500D01*
X1515000Y545500D02*
Y548500D01*
X1525500Y147000D02*
X1528500D01*
X1527000Y145500D02*
Y148500D01*
X1149300Y146500D02*
X1152300D01*
X1150800Y145000D02*
Y148000D01*
X1274000Y146500D02*
X1277000D01*
X1275500Y145000D02*
Y148000D01*
X1399500Y147000D02*
X1402500D01*
X1401000Y145500D02*
Y148500D01*
X1521727Y178878D02*
X1524727D01*
X1523228Y177377D02*
Y180378D01*
X614531Y166000D02*
X617531D01*
X616031Y164500D02*
Y167500D01*
X742291Y166000D02*
X745291D01*
X743791Y164500D02*
Y167500D01*
X643500Y392000D02*
X646500D01*
X645000Y390500D02*
Y393500D01*
X644500Y380000D02*
X647500D01*
X646000Y378500D02*
Y381500D01*
X663320Y404820D02*
X666320D01*
X664820Y403320D02*
Y406320D01*
X611500Y383000D02*
X614500D01*
X613000Y381500D02*
Y384500D01*
X752500Y360000D02*
X755500D01*
X754000Y358500D02*
Y361500D01*
X766500Y332000D02*
X769500D01*
X768000Y330500D02*
Y333500D01*
X1328300Y618800D02*
X1331300D01*
X1329800Y617300D02*
Y620300D01*
X1382500Y665000D02*
X1385500D01*
X1384000Y663500D02*
Y666500D01*
X1160500Y748000D02*
X1163500D01*
X1162000Y746500D02*
Y749500D01*
X1293500Y527000D02*
X1296500D01*
X1295000Y525500D02*
Y528500D01*
X1303500Y528000D02*
X1306500D01*
X1305000Y526500D02*
Y529500D01*
X914551Y620563D02*
X917551D01*
X916051Y619063D02*
Y622063D01*
X788000Y597500D02*
X791000D01*
X789500Y596000D02*
Y599000D01*
X1548500Y406000D02*
X1551500D01*
X1550000Y404500D02*
Y407500D01*
X1548500Y322000D02*
X1551500D01*
X1550000Y320500D02*
Y323500D01*
X1548500Y370000D02*
X1551500D01*
X1550000Y368500D02*
Y371500D01*
X1169500Y305000D02*
X1172500D01*
X1171000Y303500D02*
Y306500D01*
X500452Y520952D02*
X503452D01*
X501952Y519452D02*
Y522452D01*
X637279Y598000D02*
X640279D01*
X638779Y596500D02*
Y599500D01*
X520500Y479000D02*
X523500D01*
X522000Y477500D02*
Y480500D01*
X496500Y455000D02*
X499500D01*
X498000Y453500D02*
Y456500D01*
X491500Y521805D02*
X494500D01*
X493000Y520305D02*
Y523305D01*
X483500Y521805D02*
X486500D01*
X485000Y520305D02*
Y523305D01*
X454500Y307000D02*
X457500D01*
X456000Y305500D02*
Y308500D01*
X462500Y251000D02*
X465500D01*
X464000Y249500D02*
Y252500D01*
X556500Y595000D02*
X559500D01*
X558000Y593500D02*
Y596500D01*
X661500Y78000D02*
X664500D01*
X663000Y76500D02*
Y79500D01*
X787500Y77000D02*
X790500D01*
X789000Y75500D02*
Y78500D01*
X1094500Y72000D02*
X1097500D01*
X1096000Y70500D02*
Y73500D01*
X1111500Y72000D02*
X1114500D01*
X1113000Y70500D02*
Y73500D01*
X1103500Y65000D02*
X1106500D01*
X1105000Y63500D02*
Y66500D01*
X1120500Y65000D02*
X1123500D01*
X1122000Y63500D02*
Y66500D01*
X1084500Y65000D02*
X1087500D01*
X1086000Y63500D02*
Y66500D01*
X515850Y174350D02*
X518850D01*
X517350Y172850D02*
Y175850D01*
X484500Y217000D02*
X487500D01*
X486000Y215500D02*
Y218500D01*
X604500Y250000D02*
X607500D01*
X606000Y248500D02*
Y251500D01*
X734500Y250000D02*
X737500D01*
X736000Y248500D02*
Y251500D01*
X563500Y336000D02*
X566500D01*
X565000Y334500D02*
Y337500D01*
X554500Y322000D02*
X557500D01*
X556000Y320500D02*
Y323500D01*
X553700Y186200D02*
X556700D01*
X555200Y184700D02*
Y187700D01*
X681600Y186200D02*
X684600D01*
X683100Y184700D02*
Y187700D01*
X681798Y148571D02*
X684798D01*
X683298Y147071D02*
Y150071D01*
X553898Y148571D02*
X556898D01*
X555398Y147071D02*
Y150071D01*
X528450Y226200D02*
X531450D01*
X529950Y224700D02*
Y227700D01*
X528500Y120000D02*
X531500D01*
X530000Y118500D02*
Y121500D01*
X515800Y120000D02*
X518800D01*
X517300Y118500D02*
Y121500D01*
X548500Y290000D02*
X551500D01*
X550000Y288500D02*
Y291500D01*
X778000Y721663D02*
X781000D01*
X779500Y720163D02*
Y723163D01*
X1093500Y352000D02*
X1096500D01*
X1095000Y350500D02*
Y353500D01*
X915500Y665000D02*
X918500D01*
X917000Y663500D02*
Y666500D01*
X373500Y460000D02*
X376500D01*
X375000Y458500D02*
Y461500D01*
X373500Y470000D02*
X376500D01*
X375000Y468500D02*
Y471500D01*
X403500Y460000D02*
X406500D01*
X405000Y458500D02*
Y461500D01*
X393500Y460000D02*
X396500D01*
X395000Y458500D02*
Y461500D01*
X383500Y460000D02*
X386500D01*
X385000Y458500D02*
Y461500D01*
X383500Y470000D02*
X386500D01*
X385000Y468500D02*
Y471500D01*
X393500Y470000D02*
X396500D01*
X395000Y468500D02*
Y471500D01*
X403500Y470000D02*
X406500D01*
X405000Y468500D02*
Y471500D01*
X510500Y534000D02*
X513500D01*
X512000Y532500D02*
Y535500D01*
X487454Y445046D02*
X490454D01*
X488954Y443546D02*
Y446546D01*
X565500Y494000D02*
X568500D01*
X567000Y492500D02*
Y495500D01*
X1120500Y427000D02*
X1123500D01*
X1122000Y425500D02*
Y428500D01*
X855500Y470345D02*
X858500D01*
X857000Y468845D02*
Y471845D01*
X901500Y532000D02*
X904500D01*
X903000Y530500D02*
Y533500D01*
X503155Y205650D02*
X506155D01*
X504655Y204150D02*
Y207150D01*
X653500Y755000D02*
X656500D01*
X655000Y753500D02*
Y756500D01*
X643500Y755000D02*
X646500D01*
X645000Y753500D02*
Y756500D01*
X633500Y755000D02*
X636500D01*
X635000Y753500D02*
Y756500D01*
X633500Y745000D02*
X636500D01*
X635000Y743500D02*
Y746500D01*
X643500Y745000D02*
X646500D01*
X645000Y743500D02*
Y746500D01*
X653500Y745000D02*
X656500D01*
X655000Y743500D02*
Y746500D01*
X623500Y755000D02*
X626500D01*
X625000Y753500D02*
Y756500D01*
X623500Y745000D02*
X626500D01*
X625000Y743500D02*
Y746500D01*
X478500Y737000D02*
X481500D01*
X480000Y735500D02*
Y738500D01*
X1269500Y537000D02*
X1272500D01*
X1271000Y535500D02*
Y538500D01*
X1149500Y531000D02*
X1152500D01*
X1151000Y529500D02*
Y532500D01*
X1240500Y448000D02*
X1243500D01*
X1242000Y446500D02*
Y449500D01*
X1122500Y446000D02*
X1125500D01*
X1124000Y444500D02*
Y447500D01*
X1107700Y391800D02*
X1110700D01*
X1109200Y390300D02*
Y393300D01*
X1083500Y392000D02*
X1086500D01*
X1085000Y390500D02*
Y393500D01*
X656478Y442870D02*
X659478D01*
X657978Y441370D02*
Y444370D01*
X656970Y417470D02*
X659970D01*
X658470Y415970D02*
Y418970D01*
X959500Y470345D02*
X962500D01*
X961000Y468845D02*
Y471845D01*
X460000Y207500D02*
X463000D01*
X461500Y206000D02*
Y209000D01*
X607500Y514000D02*
X610500D01*
X609000Y512500D02*
Y515500D01*
X601500Y507500D02*
X604500D01*
X603000Y506000D02*
Y509000D01*
X601500Y520500D02*
X604500D01*
X603000Y519000D02*
Y522000D01*
X1573700Y116800D02*
X1576700D01*
X1575200Y115300D02*
Y118300D01*
X1398500Y516000D02*
X1401500D01*
X1400000Y514500D02*
Y517500D01*
X381500Y434000D02*
X384500D01*
X383000Y432500D02*
Y435500D01*
X381500Y426000D02*
X384500D01*
X383000Y424500D02*
Y427500D01*
X1408500Y463000D02*
X1411500D01*
X1410000Y461500D02*
Y464500D01*
X1444500Y534000D02*
X1447500D01*
X1446000Y532500D02*
Y535500D01*
X1447500Y578000D02*
X1450500D01*
X1449000Y576500D02*
Y579500D01*
X1346500Y631000D02*
X1349500D01*
X1348000Y629500D02*
Y632500D01*
X1199500Y495000D02*
X1202500D01*
X1201000Y493500D02*
Y496500D01*
X1304500Y426000D02*
X1307500D01*
X1306000Y424500D02*
Y427500D01*
X1300500Y433000D02*
X1303500D01*
X1302000Y431500D02*
Y434500D01*
X1329500Y496000D02*
X1332500D01*
X1331000Y494500D02*
Y497500D01*
X1327500Y447000D02*
X1330500D01*
X1329000Y445500D02*
Y448500D01*
X1128500Y436000D02*
X1131500D01*
X1130000Y434500D02*
Y437500D01*
X1302500Y519000D02*
X1305500D01*
X1304000Y517500D02*
Y520500D01*
X383500Y300000D02*
X386500D01*
X385000Y298500D02*
Y301500D01*
X396500Y301000D02*
X399500D01*
X398000Y299500D02*
Y302500D01*
X1522390Y412000D02*
X1525390D01*
X1523890Y410500D02*
Y413500D01*
X671500Y78000D02*
X674500D01*
X673000Y76500D02*
Y79500D01*
X797500Y77000D02*
X800500D01*
X799000Y75500D02*
Y78500D01*
X1088300Y229800D02*
X1091300D01*
X1089800Y228300D02*
Y231300D01*
X1100700Y229800D02*
X1103700D01*
X1102200Y228300D02*
Y231300D01*
X1173300Y147000D02*
X1176300D01*
X1174800Y145500D02*
Y148500D01*
X1067300Y170000D02*
X1070300D01*
X1068800Y168500D02*
Y171500D01*
X1167300Y180000D02*
X1170300D01*
X1168800Y178500D02*
Y181500D01*
X1064300Y181000D02*
X1067300D01*
X1065800Y179500D02*
Y182500D01*
X1298000Y147000D02*
X1301000D01*
X1299500Y145500D02*
Y148500D01*
X1192000Y170000D02*
X1195000D01*
X1193500Y168500D02*
Y171500D01*
X1292000Y180000D02*
X1295000D01*
X1293500Y178500D02*
Y181500D01*
X1189000Y181000D02*
X1192000D01*
X1190500Y179500D02*
Y182500D01*
X1423500Y147000D02*
X1426500D01*
X1425000Y145500D02*
Y148500D01*
X1317500Y170000D02*
X1320500D01*
X1319000Y168500D02*
Y171500D01*
X1417500Y180000D02*
X1420500D01*
X1419000Y178500D02*
Y181500D01*
X1314500Y181000D02*
X1317500D01*
X1316000Y179500D02*
Y182500D01*
X1440500Y181000D02*
X1443500D01*
X1442000Y179500D02*
Y182500D01*
X1543500Y180000D02*
X1546500D01*
X1545000Y178500D02*
Y181500D01*
X1443500Y170000D02*
X1446500D01*
X1445000Y168500D02*
Y171500D01*
X1549500Y147000D02*
X1552500D01*
X1551000Y145500D02*
Y148500D01*
X1395915Y179065D02*
X1398915D01*
X1397415Y177565D02*
Y180565D01*
X1269915Y179065D02*
X1272915D01*
X1271415Y177565D02*
Y180565D01*
X1145740Y179240D02*
X1148740D01*
X1147240Y177740D02*
Y180740D01*
X1270500Y232000D02*
X1273500D01*
X1272000Y230500D02*
Y233500D01*
X1339500Y231000D02*
X1342500D01*
X1341000Y229500D02*
Y232500D01*
X1093500Y295000D02*
X1096500D01*
X1095000Y293500D02*
Y296500D01*
X1100000Y270500D02*
X1103000D01*
X1101500Y269000D02*
Y272000D01*
X1087000Y270500D02*
X1090000D01*
X1088500Y269000D02*
Y272000D01*
X1154500Y741000D02*
X1157500D01*
X1156000Y739500D02*
Y742500D01*
X581500Y844000D02*
X584500D01*
X583000Y842500D02*
Y845500D01*
X465500Y675000D02*
X468500D01*
X467000Y673500D02*
Y676500D01*
X490500Y566000D02*
X493500D01*
X492000Y564500D02*
Y567500D01*
X1678500Y840000D02*
X1681500D01*
X1680000Y838500D02*
Y841500D01*
X1671500Y856000D02*
X1674500D01*
X1673000Y854500D02*
Y857500D01*
X1593500Y815000D02*
X1596500D01*
X1595000Y813500D02*
Y816500D01*
X1603500Y800000D02*
X1606500D01*
X1605000Y798500D02*
Y801500D01*
X527500Y985000D02*
X530500D01*
X529000Y983500D02*
Y986500D01*
X508500Y985000D02*
X511500D01*
X510000Y983500D02*
Y986500D01*
X378500Y1028000D02*
X381500D01*
X380000Y1026500D02*
Y1029500D01*
X489450Y985050D02*
X492450D01*
X490950Y983550D02*
Y986550D01*
X588500Y875000D02*
X591500D01*
X590000Y873500D02*
Y876500D01*
X588500Y885000D02*
X591500D01*
X590000Y883500D02*
Y886500D01*
X618500Y875000D02*
X621500D01*
X620000Y873500D02*
Y876500D01*
X608500Y875000D02*
X611500D01*
X610000Y873500D02*
Y876500D01*
X598500Y875000D02*
X601500D01*
X600000Y873500D02*
Y876500D01*
X598500Y885000D02*
X601500D01*
X600000Y883500D02*
Y886500D01*
X608500Y885000D02*
X611500D01*
X610000Y883500D02*
Y886500D01*
X618500Y885000D02*
X621500D01*
X620000Y883500D02*
Y886500D01*
X707500Y509000D02*
X710500D01*
X709000Y507500D02*
Y510500D01*
X715500Y509000D02*
X718500D01*
X717000Y507500D02*
Y510500D01*
X555500Y493000D02*
X558500D01*
X557000Y491500D02*
Y494500D01*
X1203000Y772500D02*
X1206000D01*
X1204500Y771000D02*
Y774000D01*
X1245500Y773000D02*
X1248500D01*
X1247000Y771500D02*
Y774500D01*
X601500Y553000D02*
X604500D01*
X603000Y551500D02*
Y554500D01*
X1318700Y600800D02*
X1321700D01*
X1320200Y599300D02*
Y602300D01*
X1681500Y855000D02*
X1684500D01*
X1683000Y853500D02*
Y856500D01*
X1683500Y847000D02*
X1686500D01*
X1685000Y845500D02*
Y848500D01*
X1588204Y806296D02*
X1591204D01*
X1589704Y804796D02*
Y807796D01*
X1720450Y853500D02*
X1723450D01*
X1721950Y852000D02*
Y855000D01*
X1712450Y848500D02*
X1715450D01*
X1713950Y847000D02*
Y850000D01*
X825500Y507000D02*
X828500D01*
X827000Y505500D02*
Y508500D01*
X1285500Y527000D02*
X1288500D01*
X1287000Y525500D02*
Y528500D01*
X1505500Y651000D02*
X1508500D01*
X1507000Y649500D02*
Y652500D01*
X1675500Y690000D02*
X1678500D01*
X1677000Y688500D02*
Y691500D01*
X1667500Y704000D02*
X1670500D01*
X1669000Y702500D02*
Y705500D01*
X1628500Y702000D02*
X1631500D01*
X1630000Y700500D02*
Y703500D01*
X1569500Y712000D02*
X1572500D01*
X1571000Y710500D02*
Y713500D01*
X1188500Y824000D02*
X1191500D01*
X1190000Y822500D02*
Y825500D01*
X1560500Y999000D02*
X1563500D01*
X1562000Y997500D02*
Y1000500D01*
X1579500Y998000D02*
X1582500D01*
X1581000Y996500D02*
Y999500D01*
X1438828Y699103D02*
X1441828D01*
X1440328Y697603D02*
Y700603D01*
X1452500Y686000D02*
X1455500D01*
X1454000Y684500D02*
Y687500D01*
X705560Y937000D02*
X708560D01*
X707060Y935500D02*
Y938500D01*
X833050Y937000D02*
X836050D01*
X834550Y935500D02*
Y938500D01*
X1343010Y937000D02*
X1346010D01*
X1344510Y935500D02*
Y938500D01*
X1470500Y937000D02*
X1473500D01*
X1472000Y935500D02*
Y938500D01*
X1215520Y937000D02*
X1218520D01*
X1217020Y935500D02*
Y938500D01*
X1088030Y937000D02*
X1091030D01*
X1089530Y935500D02*
Y938500D01*
X960540Y937000D02*
X963540D01*
X962040Y935500D02*
Y938500D01*
X578070Y937000D02*
X581070D01*
X579570Y935500D02*
Y938500D01*
X1440930Y682570D02*
X1443930D01*
X1442430Y681070D02*
Y684070D01*
X1435500Y689000D02*
X1438500D01*
X1437000Y687500D02*
Y690500D01*
X1566500Y1011000D02*
X1569500D01*
X1568000Y1009500D02*
Y1012500D01*
X1574500Y1011000D02*
X1577500D01*
X1576000Y1009500D02*
Y1012500D01*
X1669500Y948000D02*
X1672500D01*
X1671000Y946500D02*
Y949500D01*
X1667500Y977000D02*
X1670500D01*
X1669000Y975500D02*
Y978500D01*
X557500Y404900D02*
X560500D01*
X559000Y403400D02*
Y406400D01*
X557500Y417600D02*
X560500D01*
X559000Y416100D02*
Y419100D01*
X557500Y443000D02*
X560500D01*
X559000Y441500D02*
Y444500D01*
X719500Y370000D02*
X722500D01*
X721000Y368500D02*
Y371500D01*
X606500Y370000D02*
X609500D01*
X608000Y368500D02*
Y371500D01*
X744500Y380000D02*
X747500D01*
X746000Y378500D02*
Y381500D01*
X779500Y293000D02*
X782500D01*
X781000Y291500D02*
Y294500D01*
X766500Y293000D02*
X769500D01*
X768000Y291500D02*
Y294500D01*
X790000Y723420D02*
X793000D01*
X791500Y721920D02*
Y724920D01*
X624500Y322000D02*
X627500D01*
X626000Y320500D02*
Y323500D01*
X781500Y306000D02*
X784500D01*
X783000Y304500D02*
Y307500D01*
X712700Y283286D02*
X715700D01*
X714200Y281786D02*
Y284786D01*
X720680Y205820D02*
X723680D01*
X722180Y204320D02*
Y207320D01*
X694500Y280000D02*
X697500D01*
X696000Y278500D02*
Y281500D01*
X422500Y251000D02*
X425500D01*
X424000Y249500D02*
Y252500D01*
X1697500Y881000D02*
X1700500D01*
X1699000Y879500D02*
Y882500D01*
X1710500Y881000D02*
X1713500D01*
X1712000Y879500D02*
Y882500D01*
X818050Y920000D02*
X821050D01*
X819550Y918500D02*
Y921500D01*
X891050Y1010000D02*
X894050D01*
X892550Y1008500D02*
Y1011500D01*
X876050Y929000D02*
X879050D01*
X877550Y927500D02*
Y930500D01*
X853050Y926000D02*
X856050D01*
X854550Y924500D02*
Y927500D01*
X383500Y354000D02*
X386500D01*
X385000Y352500D02*
Y355500D01*
X562500Y253000D02*
X565500D01*
X564000Y251500D02*
Y254500D01*
X587500Y307000D02*
X590500D01*
X589000Y305500D02*
Y308500D01*
X562500Y316000D02*
X565500D01*
X564000Y314500D02*
Y317500D01*
X562500Y381000D02*
X565500D01*
X564000Y379500D02*
Y382500D01*
X562500Y368000D02*
X565500D01*
X564000Y366500D02*
Y369500D01*
X766500Y319000D02*
X769500D01*
X768000Y317500D02*
Y320500D01*
X766500Y306000D02*
X769500D01*
X768000Y304500D02*
Y307500D01*
X1391010Y1000000D02*
X1394010D01*
X1392510Y998500D02*
Y1001500D01*
X1401010Y1010000D02*
X1404010D01*
X1402510Y1008500D02*
Y1011500D01*
X1391010Y1010000D02*
X1394010D01*
X1392510Y1008500D02*
Y1011500D01*
X1401010Y1000000D02*
X1404010D01*
X1402510Y998500D02*
Y1001500D01*
X1263520Y1000000D02*
X1266520D01*
X1265020Y998500D02*
Y1001500D01*
X1273520Y1010000D02*
X1276520D01*
X1275020Y1008500D02*
Y1011500D01*
X1263520Y1010000D02*
X1266520D01*
X1265020Y1008500D02*
Y1011500D01*
X1273520Y1000000D02*
X1276520D01*
X1275020Y998500D02*
Y1001500D01*
X1136030Y1000000D02*
X1139030D01*
X1137530Y998500D02*
Y1001500D01*
X1146030Y1010000D02*
X1149030D01*
X1147530Y1008500D02*
Y1011500D01*
X1136030Y1010000D02*
X1139030D01*
X1137530Y1008500D02*
Y1011500D01*
X1146030Y1000000D02*
X1149030D01*
X1147530Y998500D02*
Y1001500D01*
X1008540Y1000000D02*
X1011540D01*
X1010040Y998500D02*
Y1001500D01*
X1018540Y1010000D02*
X1021540D01*
X1020040Y1008500D02*
Y1011500D01*
X1008540Y1010000D02*
X1011540D01*
X1010040Y1008500D02*
Y1011500D01*
X1018540Y1000000D02*
X1021540D01*
X1020040Y998500D02*
Y1001500D01*
X881050Y1000000D02*
X884050D01*
X882550Y998500D02*
Y1001500D01*
X881050Y1010000D02*
X884050D01*
X882550Y1008500D02*
Y1011500D01*
X891050Y1000000D02*
X894050D01*
X892550Y998500D02*
Y1001500D01*
X753560Y1000000D02*
X756560D01*
X755060Y998500D02*
Y1001500D01*
X763560Y1010000D02*
X766560D01*
X765060Y1008500D02*
Y1011500D01*
X753560Y1010000D02*
X756560D01*
X755060Y1008500D02*
Y1011500D01*
X763560Y1000000D02*
X766560D01*
X765060Y998500D02*
Y1001500D01*
X626070Y1000000D02*
X629070D01*
X627570Y998500D02*
Y1001500D01*
X636070Y1010000D02*
X639070D01*
X637570Y1008500D02*
Y1011500D01*
X626070Y1010000D02*
X629070D01*
X627570Y1008500D02*
Y1011500D01*
X636070Y1000000D02*
X639070D01*
X637570Y998500D02*
Y1001500D01*
X1528500Y1010000D02*
X1531500D01*
X1530000Y1008500D02*
Y1011500D01*
X563070Y920000D02*
X566070D01*
X564570Y918500D02*
Y921500D01*
X621070Y929000D02*
X624070D01*
X622570Y927500D02*
Y930500D01*
X598070Y926000D02*
X601070D01*
X599570Y924500D02*
Y927500D01*
X690560Y920000D02*
X693560D01*
X692060Y918500D02*
Y921500D01*
X748560Y929000D02*
X751560D01*
X750060Y927500D02*
Y930500D01*
X725560Y926000D02*
X728560D01*
X727060Y924500D02*
Y927500D01*
X945540Y920000D02*
X948540D01*
X947040Y918500D02*
Y921500D01*
X1003540Y929000D02*
X1006540D01*
X1005040Y927500D02*
Y930500D01*
X980540Y926000D02*
X983540D01*
X982040Y924500D02*
Y927500D01*
X1073030Y920000D02*
X1076030D01*
X1074530Y918500D02*
Y921500D01*
X1131030Y929000D02*
X1134030D01*
X1132530Y927500D02*
Y930500D01*
X1108030Y926000D02*
X1111030D01*
X1109530Y924500D02*
Y927500D01*
X1200520Y920000D02*
X1203520D01*
X1202020Y918500D02*
Y921500D01*
X1258520Y929000D02*
X1261520D01*
X1260020Y927500D02*
Y930500D01*
X1235520Y926000D02*
X1238520D01*
X1237020Y924500D02*
Y927500D01*
X1328010Y920000D02*
X1331010D01*
X1329510Y918500D02*
Y921500D01*
X1386010Y929000D02*
X1389010D01*
X1387510Y927500D02*
Y930500D01*
X1363010Y926000D02*
X1366010D01*
X1364510Y924500D02*
Y927500D01*
X705500Y320000D02*
X708500D01*
X707000Y318500D02*
Y321500D01*
X732080Y319000D02*
X735080D01*
X733580Y317500D02*
Y320500D01*
X768080Y371000D02*
X771080D01*
X769580Y369500D02*
Y372500D01*
X673920Y369000D02*
X676920D01*
X675420Y367500D02*
Y370500D01*
X673920Y382000D02*
X676920D01*
X675420Y380500D02*
Y383500D01*
X1603500Y1155000D02*
X1606500D01*
X1605000Y1153500D02*
Y1156500D01*
X1633500Y1155000D02*
X1636500D01*
X1635000Y1153500D02*
Y1156500D01*
X413500Y1039000D02*
X416500D01*
X415000Y1037500D02*
Y1040500D01*
X458500Y1035200D02*
X461500D01*
X460000Y1033700D02*
Y1036700D01*
X473500Y1005000D02*
X476500D01*
X475000Y1003500D02*
Y1006500D01*
X458500Y996800D02*
X461500D01*
X460000Y995300D02*
Y998300D01*
X416000Y994300D02*
X419000D01*
X417500Y992800D02*
Y995800D01*
X398500Y994000D02*
X401500D01*
X400000Y992500D02*
Y995500D01*
X527600Y1067000D02*
X530600D01*
X529100Y1065500D02*
Y1068500D01*
X583500Y656700D02*
X586500D01*
X585000Y655200D02*
Y658200D01*
X560500Y650200D02*
X563500D01*
X562000Y648700D02*
Y651700D01*
X465500Y650200D02*
X468500D01*
X467000Y648700D02*
Y651700D01*
X420500Y580700D02*
X423500D01*
X422000Y579200D02*
Y582200D01*
X398500Y581200D02*
X401500D01*
X400000Y579700D02*
Y582700D01*
X228500Y695000D02*
X231500D01*
X230000Y693500D02*
Y696500D01*
X223500Y635000D02*
X226500D01*
X225000Y633500D02*
Y636500D01*
X223500Y645000D02*
X226500D01*
X225000Y643500D02*
Y646500D01*
X223500Y655000D02*
X226500D01*
X225000Y653500D02*
Y656500D01*
X223500Y665000D02*
X226500D01*
X225000Y663500D02*
Y666500D01*
X223500Y675000D02*
X226500D01*
X225000Y673500D02*
Y676500D01*
X218500Y685000D02*
X221500D01*
X220000Y683500D02*
Y686500D01*
X208500Y685000D02*
X211500D01*
X210000Y683500D02*
Y686500D01*
X243500Y680000D02*
X246500D01*
X245000Y678500D02*
Y681500D01*
X243500Y670000D02*
X246500D01*
X245000Y668500D02*
Y671500D01*
X243500Y660000D02*
X246500D01*
X245000Y658500D02*
Y661500D01*
X298500Y660000D02*
X301500D01*
X300000Y658500D02*
Y661500D01*
X298500Y670000D02*
X301500D01*
X300000Y668500D02*
Y671500D01*
X298500Y680000D02*
X301500D01*
X300000Y678500D02*
Y681500D01*
X288500Y690000D02*
X291500D01*
X290000Y688500D02*
Y691500D01*
X278500Y690000D02*
X281500D01*
X280000Y688500D02*
Y691500D01*
X268500Y690000D02*
X271500D01*
X270000Y688500D02*
Y691500D01*
X258500Y690000D02*
X261500D01*
X260000Y688500D02*
Y691500D01*
X203300Y704800D02*
X206300D01*
X204800Y703300D02*
Y706300D01*
X92500Y686000D02*
X95500D01*
X94000Y684500D02*
Y687500D01*
X94300Y704000D02*
X97300D01*
X95800Y702500D02*
Y705500D01*
X94800Y728000D02*
X97800D01*
X96300Y726500D02*
Y729500D01*
X540500Y853000D02*
X543500D01*
X542000Y851500D02*
Y854500D01*
X527500Y875000D02*
X530500D01*
X529000Y873500D02*
Y876500D01*
X283700Y946200D02*
X286700D01*
X285200Y944700D02*
Y947700D01*
X268500Y931200D02*
X271500D01*
X270000Y929700D02*
Y932700D01*
X293500Y918200D02*
X296500D01*
X295000Y916700D02*
Y919700D01*
X313500Y910000D02*
X316500D01*
X315000Y908500D02*
Y911500D01*
X383500Y945000D02*
X386500D01*
X385000Y943500D02*
Y946500D01*
X383500Y935000D02*
X386500D01*
X385000Y933500D02*
Y936500D01*
X328500Y935000D02*
X331500D01*
X330000Y933500D02*
Y936500D01*
X328500Y945000D02*
X331500D01*
X330000Y943500D02*
Y946500D01*
X368500Y955000D02*
X371500D01*
X370000Y953500D02*
Y956500D01*
X358500Y955000D02*
X361500D01*
X360000Y953500D02*
Y956500D01*
X348500Y955000D02*
X351500D01*
X350000Y953500D02*
Y956500D01*
X338500Y955000D02*
X341500D01*
X340000Y953500D02*
Y956500D01*
X323500Y790000D02*
X326500D01*
X325000Y788500D02*
Y791500D01*
X323500Y800000D02*
X326500D01*
X325000Y798500D02*
Y801500D01*
X323500Y810000D02*
X326500D01*
X325000Y808500D02*
Y811500D01*
X323500Y820000D02*
X326500D01*
X325000Y818500D02*
Y821500D01*
X333500Y820000D02*
X336500D01*
X335000Y818500D02*
Y821500D01*
X343500Y820000D02*
X346500D01*
X345000Y818500D02*
Y821500D01*
X353500Y820000D02*
X356500D01*
X355000Y818500D02*
Y821500D01*
X363500Y820000D02*
X366500D01*
X365000Y818500D02*
Y821500D01*
X373500Y820000D02*
X376500D01*
X375000Y818500D02*
Y821500D01*
X383500Y820000D02*
X386500D01*
X385000Y818500D02*
Y821500D01*
X383500Y810000D02*
X386500D01*
X385000Y808500D02*
Y811500D01*
X383500Y800000D02*
X386500D01*
X385000Y798500D02*
Y801500D01*
X383500Y790000D02*
X386500D01*
X385000Y788500D02*
Y791500D01*
X1528500Y1000000D02*
X1531500D01*
X1530000Y998500D02*
Y1001500D01*
X1518500Y1010000D02*
X1521500D01*
X1520000Y1008500D02*
Y1011500D01*
X1518500Y1000000D02*
X1521500D01*
X1520000Y998500D02*
Y1001500D01*
X1661500Y511000D02*
X1664500D01*
X1663000Y509500D02*
Y512500D01*
X1647500Y511000D02*
X1650500D01*
X1649000Y509500D02*
Y512500D01*
X1382500Y462000D02*
X1385500D01*
X1384000Y460500D02*
Y463500D01*
X1390500Y462000D02*
X1393500D01*
X1392000Y460500D02*
Y463500D01*
X1265500Y513000D02*
X1268500D01*
X1267000Y511500D02*
Y514500D01*
X1231500Y288000D02*
X1234500D01*
X1233000Y286500D02*
Y289500D01*
X1260500Y537000D02*
X1263500D01*
X1262000Y535500D02*
Y538500D01*
X1224500Y483400D02*
X1227500D01*
X1226000Y481900D02*
Y484900D01*
X1268500Y483400D02*
X1271500D01*
X1270000Y481900D02*
Y484900D01*
X1288500Y483400D02*
X1291500D01*
X1290000Y481900D02*
Y484900D01*
X1340500Y483400D02*
X1343500D01*
X1342000Y481900D02*
Y484900D01*
X1352500Y483400D02*
X1355500D01*
X1354000Y481900D02*
Y484900D01*
X1364500Y483400D02*
X1367500D01*
X1366000Y481900D02*
Y484900D01*
X1368500Y495800D02*
X1371500D01*
X1370000Y494300D02*
Y497300D01*
X1352500Y495800D02*
X1355500D01*
X1354000Y494300D02*
Y497300D01*
X1340500Y495800D02*
X1343500D01*
X1342000Y494300D02*
Y497300D01*
X1558500Y1029000D02*
X1561500D01*
X1560000Y1027500D02*
Y1030500D01*
X1588500Y1013000D02*
X1591500D01*
X1590000Y1011500D02*
Y1014500D01*
X1692500Y573000D02*
X1695500D01*
X1694000Y571500D02*
Y574500D01*
X1690500Y661000D02*
X1693500D01*
X1692000Y659500D02*
Y662500D01*
X1765000Y707500D02*
X1768000D01*
X1766500Y706000D02*
Y709000D01*
X1710000Y707500D02*
X1713000D01*
X1711500Y706000D02*
Y709000D01*
X1765000Y582500D02*
X1768000D01*
X1766500Y581000D02*
Y584000D01*
X1710000Y582500D02*
X1713000D01*
X1711500Y581000D02*
Y584000D01*
X1668700Y606000D02*
X1671700D01*
X1670200Y604500D02*
Y607500D01*
X1662300Y615200D02*
X1665300D01*
X1663800Y613700D02*
Y616700D01*
X1723500Y881000D02*
X1726500D01*
X1725000Y879500D02*
Y882500D01*
X1787500Y875000D02*
X1790500D01*
X1789000Y873500D02*
Y876500D01*
X1787500Y737000D02*
X1790500D01*
X1789000Y735500D02*
Y738500D01*
X1752250Y753500D02*
X1755250D01*
X1753750Y752000D02*
Y755000D01*
X1752250Y768500D02*
X1755250D01*
X1753750Y767000D02*
Y770000D01*
X1752250Y783500D02*
X1755250D01*
X1753750Y782000D02*
Y785000D01*
X1752250Y798500D02*
X1755250D01*
X1753750Y797000D02*
Y800000D01*
X1752250Y813500D02*
X1755250D01*
X1753750Y812000D02*
Y815000D01*
X1752250Y828500D02*
X1755250D01*
X1753750Y827000D02*
Y830000D01*
X1752250Y843500D02*
X1755250D01*
X1753750Y842000D02*
Y845000D01*
X1416500Y823000D02*
X1419500D01*
X1418000Y821500D02*
Y824500D01*
X1416500Y853800D02*
X1419500D01*
X1418000Y852300D02*
Y855300D01*
X1344500Y836200D02*
X1347500D01*
X1346000Y834700D02*
Y837700D01*
X1332500Y836200D02*
X1335500D01*
X1334000Y834700D02*
Y837700D01*
X1320500Y836200D02*
X1323500D01*
X1322000Y834700D02*
Y837700D01*
X1308500Y836200D02*
X1311500D01*
X1310000Y834700D02*
Y837700D01*
X1296500Y836200D02*
X1299500D01*
X1298000Y834700D02*
Y837700D01*
X1284500Y836200D02*
X1287500D01*
X1286000Y834700D02*
Y837700D01*
X1272500Y836200D02*
X1275500D01*
X1274000Y834700D02*
Y837700D01*
X1260500Y836200D02*
X1263500D01*
X1262000Y834700D02*
Y837700D01*
X1248500Y836200D02*
X1251500D01*
X1250000Y834700D02*
Y837700D01*
X1236500Y836200D02*
X1239500D01*
X1238000Y834700D02*
Y837700D01*
X1236500Y823000D02*
X1239500D01*
X1238000Y821500D02*
Y824500D01*
X1248500Y823000D02*
X1251500D01*
X1250000Y821500D02*
Y824500D01*
X1260500Y823000D02*
X1263500D01*
X1262000Y821500D02*
Y824500D01*
X1272500Y823000D02*
X1275500D01*
X1274000Y821500D02*
Y824500D01*
X1284500Y823000D02*
X1287500D01*
X1286000Y821500D02*
Y824500D01*
X1296500Y823000D02*
X1299500D01*
X1298000Y821500D02*
Y824500D01*
X1332500Y823000D02*
X1335500D01*
X1334000Y821500D02*
Y824500D01*
X1344500Y823000D02*
X1347500D01*
X1346000Y821500D02*
Y824500D01*
X1356500Y823000D02*
X1359500D01*
X1358000Y821500D02*
Y824500D01*
X1356500Y836200D02*
X1359500D01*
X1358000Y834700D02*
Y837700D01*
X1368500Y823000D02*
X1371500D01*
X1370000Y821500D02*
Y824500D01*
X1368500Y836200D02*
X1371500D01*
X1370000Y834700D02*
Y837700D01*
X1392500Y836200D02*
X1395500D01*
X1394000Y834700D02*
Y837700D01*
X1380500Y836200D02*
X1383500D01*
X1382000Y834700D02*
Y837700D01*
X1380500Y823000D02*
X1383500D01*
X1382000Y821500D02*
Y824500D01*
X1392500Y823000D02*
X1395500D01*
X1394000Y821500D02*
Y824500D01*
X1404500Y823000D02*
X1407500D01*
X1406000Y821500D02*
Y824500D01*
X1707500Y1036000D02*
X1710500D01*
X1709000Y1034500D02*
Y1037500D01*
X1707500Y1021000D02*
X1710500D01*
X1709000Y1019500D02*
Y1022500D01*
X1707500Y1006000D02*
X1710500D01*
X1709000Y1004500D02*
Y1007500D01*
X1707500Y991000D02*
X1710500D01*
X1709000Y989500D02*
Y992500D01*
X1707500Y961000D02*
X1710500D01*
X1709000Y959500D02*
Y962500D01*
X1643500Y954000D02*
X1646500D01*
X1645000Y952500D02*
Y955500D01*
X1616500Y50000D02*
X1619500D01*
X1618000Y48500D02*
Y51500D01*
X1616500Y33000D02*
X1619500D01*
X1618000Y31500D02*
Y34500D01*
X1490500Y926000D02*
X1493500D01*
X1492000Y924500D02*
Y927500D01*
X1455500Y920000D02*
X1458500D01*
X1457000Y918500D02*
Y921500D01*
X1756500Y634000D02*
X1759500D01*
X1758000Y632500D02*
Y635500D01*
X1756500Y664000D02*
X1759500D01*
X1758000Y662500D02*
Y665500D01*
X298500Y950000D02*
X301500D01*
X300000Y948500D02*
Y951500D01*
X248500Y760000D02*
X251500D01*
X250000Y758500D02*
Y761500D01*
M02*
