M48
;Layer_Color=9474304
;FILE_FORMAT=4:4
METRIC,LZ
;TYPE=PLATED
T1F00S00C0.3000
T2F00S00C0.7000
T4F00S00C0.8500
T5F00S00C0.8900
T6F00S00C0.9000
T8F00S00C1.0000
T9F00S00C1.0200
T10F00S00C1.3000
T11F00S00C1.4000
T12F00S00C1.6300
T13F00S00C1.8000
T14F00S00C2.6000
T15F00S00C3.1000
;TYPE=NON_PLATED
T16F00S00C0.3000
T17F00S00C0.5000
T18F00S00C0.9000
T19F00S00C1.0000
T20F00S00C2.6000
T21F00S00C3.2500
%
T01
X0146Y0002
X015
X0154
X01618Y00033
Y0005
X0166Y0002
X017
X0142
X0138
X0134
X013
X0126
X0122
X0118
X0114
X011
X0106
X0102
X0098
X0094
X009
X0086
X0082
X0078
X0074
X007
X0066
X0062
X0058
X0054
X005
X0046
X0042
X0038
X0034
X003
X0026
X0022
X0018
X0014
X001
X0012Y0006
X0016
X002
X0024
Y0014
Y0022
X002
X0016
X0012
X001Y0026
X0014
X0018
X002Y003
X0024
Y0038
X002
X0016
X0012
X001Y0034
X0014
X0018
X0016Y003
X0012
X0006Y0034
Y0042
Y0026
X0002
Y0018
X0006
X0008Y0014
X0012
X0018Y0018
X0002Y001
X00221Y00436
X0028Y0038
X0026Y0034
X0028Y003
X0026Y0026
X0028Y0022
X0026Y0018
Y001
X003
X0032Y0006
X0036
X004
X0044
X0048
X0052
X0056
X006
X0064
Y0014
X00616031Y00166
X005938Y001862
X005552
X00555398Y00148571
X0053Y0012
X005173
X0054Y001
X0051735Y0017435
X00504655Y0020565
X00506Y00217
X0052Y0022
X0052995Y002262
X00539Y0021
X0056Y0022
X00564Y00253
X0054Y0026
X0055Y0029
X00556Y00322
X00564Y00316
X00565Y00336
X00564Y00368
Y00381
X00559Y004049
Y004176
Y00443
X00488954Y00445046
X00482954Y00439046
X00476954Y00433046
X00491Y00401
X00501
X00507Y00413
X00516Y00407
X00481Y00371
X00441Y00374
Y00366
Y00358
X00435Y00352
Y00344
X00441Y00382
Y0039
Y00398
X00433
X00425
X00417
X00409
X00401
X00393
Y0039
Y00382
Y00374
Y00366
Y00358
X004Y00354
X00385
X0036Y0038
X004106Y00383
X00423
X00383Y00426
Y00434
X00364Y00433
X0034Y0034
X0036Y003
X00385Y003
X00398Y00301
X0044Y003
X00456Y00307
X0048Y003
X00515Y00295
X00516Y00239
X00486Y00217
X00477Y00202
X004615Y002075
X00464Y00251
X00424
X004Y0022
X0036
X0034Y0026
X00423Y00172
X0048Y0014
X0038Y001
X0028Y0006
X00606Y0025
X0062Y0025955
X0064Y0022
X00626Y00322
Y00346
X00608Y0037
X00613Y00383
X0061Y00403
X00603Y00315
X00589Y00307
X0066Y0034
X0067542Y00369
Y00382
X00646Y0038
X00645Y00392
X0066482Y0040482
X0065847Y0041747
X00657978Y0044287
X007Y0042
X0074
X0078
X00803Y00423
X00816Y004176
Y004049
X00821Y00381
Y00368
X00805Y00382
X0076958Y00371
X0076Y0038
X00746Y0038
X00754Y0036
X00768Y00332
X00768Y00319
Y00306
Y00293
X00781Y00293
X00783Y00306
X008Y003
X00807Y0029
X00813Y00322
X00821Y00316
X00822Y00336
X00846Y00307
X0086Y00315
X00883Y00322
X00884Y00346
X00865Y0037
X0087Y00383
X00867Y00403
X00852105Y00430235
X00816Y00443
X00914978Y0044287
X0091547Y0041747
X0092182Y0040482
X00902Y00392
X00903Y0038
X0093242Y00382
Y00369
X00978Y0037
X01003Y0038
X01011Y0036
X0102658Y00371
X01025Y00332
X01025Y00319
Y00306
Y00293
X01038Y00293
X00994Y00311
X0099058Y00319
X00964Y0032
X009712Y00283286
X00981Y00284
X0098Y0026
X00993Y0025
Y00215
X0096001Y0022
X0092
X00925Y0019
X009382Y001862
X00938398Y00148571
X0096Y0014
X0094Y001
X0093Y00078
X0092Y0006
X0088
X0084
X008
X00799Y00077
X00789Y00077
X0078Y001
X0082
X0086
X00872Y00166
X0086Y0018
X0085Y00187
X008112Y001862
X00811398Y00148571
X008Y0022
X00839743Y00219743
X0088Y0022
X00863Y0025
X0086Y0025955
X00821Y00253
X0074Y0025955
X00736Y0025
X00724Y00284
X007142Y00283286
X00696Y0028
X00707Y0032
X0073358Y00319
X00737Y00311
X00721Y0037
X0072Y0022
X0072218Y0020582
X007217Y001862
X006831
X0068Y0022
X00683298Y00148571
X0068Y0014
X0066Y001
X00663Y00078
X00673Y00078
X0068Y0006
X0072
X0076
X0074Y001
X00743791Y00166
X0076Y0022
X0092Y003
X00953Y0028
X009768Y001862
X00999Y00166
X0102Y0018
X0094Y0042
X0106
X01076Y00396
X01085Y00392
X011092Y003918
X0111Y004
X01109Y00425
X01122Y00427
X0113Y00436
X01124Y00446
X01112985Y00446015
X0114Y0042
X0116Y0038
X01165Y00351
X01156Y00349
X0114Y0034
X01103Y00352
X01095
X01097Y00379
X0104Y0038
X0104Y00306
X01095Y00295
X011015Y002705
X010885Y002705
X01071Y0025
X01067Y00233
X01057
X010898Y002298
X011022
X0112Y0025
X01135Y00264
X0116Y00293
X01171Y00305
X01224Y00287
X01233Y00288
X01242Y0027
X0126Y0026
X013
X0134
X01353Y00245
X01341Y00231
X0136Y0022
X0134Y0018
X01316Y00181
X01319Y0017
X0132Y0014
X012995Y00147
X012755Y001465
X01271415Y00179065
X012935Y0018
X01272Y00232
X0124Y0022
X0122Y0018
X011905Y00181
X0118Y0018
X011688Y0018
X0114724Y0017924
X011508Y001465
X011748Y00147
X011935Y0017
X0118Y001
X01122Y00065
X01113Y00072
X01105Y00065
X01096Y00072
X01086Y00065
X01046Y00077
X010688Y0017
X010658Y00181
X011Y0018
X0112Y0014
X013Y001
X0136Y0006
X014
X0142Y001
X01425Y00147
X01401Y00147
X01397415Y00179065
X0138Y0018
X01419Y0018
X0142Y0026
X014Y003
X0136
X01365Y00364
X01368Y00374
X01363Y00397
X0136261Y00411617
X01368089Y00421155
X01360528Y00428944
X01363Y00437
X01373Y00403
X01321433Y00411183
X01306Y00426
X01302Y00433
X01329Y00447
X01263Y00448
X01254
X01242
X0124Y0038
X0128
X0132
X0128Y0034
X0126Y0034
X01243Y00312
X01233Y00317
X012Y0038
X01405Y00369
X01411Y00363
X0142Y0034
Y0042
X01432Y00411
Y00432
X01447Y00436
X01438Y00403
X01476
X0152389Y00412
X0154Y0042
X0155Y00406
X0155Y0037
Y00322
X01546Y00311
X01548Y00294
X01559Y00275
X01598Y0028
X0164Y003
X0168
X0172
X0176
X0174Y0026
X017
X0166
X0168Y0022
X0172
X0176
X0174Y0018
X017
X0172Y0014
X0176
X0174Y001
X0166
X0162
X01625Y00108
X01601Y00129
X015752Y001168
X0154Y001
X01551Y00147
X01527Y00147
X0152Y0014
X01523228Y00178878
X01545Y0018
X015772Y00178
X01594Y00199
X01571Y0021125
X0148Y0022
X0146Y0026
X015
Y0034
X01506Y00348
X0158Y0034
Y0042
X01517Y0045
X0164Y0038
X01657Y00396
Y00359
X0168Y0038
X0172
X0176
X0168Y0014
X01644Y00174
X0168Y0006
X0152
X0148
X0144
Y0014
X01445Y0017
X01442Y00181
X0146Y0018
X0144Y003
Y0046
X0146Y005
X01446Y00534
X0144Y0054
X01449Y00578
X0146Y0058
X01483992Y00567993
X0149Y0056
X015Y0058
X0154
X01565Y00597
X01564Y0063
X015632Y006382
X01529Y00643
X01507Y00651
X015Y0066
X01508Y00678
X01494Y00706
Y00717
X01454Y00686
X0144243Y0068257
X01437Y00689
X01440328Y00699103
X0146Y0066
X0148Y0062
X01509Y00613
X01515Y00547
X0152Y0054
X0156
X0158Y0057
X01614Y00598
X01614Y00638
X01593936Y00667465
X016Y007
X01592Y00705
X01591Y00715
X01571Y00712
X0163Y00702
X01642Y00721
X01669Y00704
X0168Y007
X01677Y0069
X01692Y00661
X017115Y007075
X017665
X01758Y00664
Y00634
X0176Y0062
X0172
X017115Y005825
X01694Y00573
X0174Y0058
X017665Y005825
X0176Y0054
X0172
X0174Y005
X0176Y0046
X0172
X0168
X0164
X016
X0152
X01649Y00511
X01663
X016702Y00606
X016638Y006152
X0174Y0074
X0175375Y007535
Y007685
Y007835
Y007985
Y008135
Y008285
X0175375Y008435
X01685Y00847
X0168Y0084
X01595Y00815
X01589704Y00806296
X01595Y00799
X01605Y008
X015Y0082
X01789Y00737
X01406Y00727
X014Y007
X01384Y00665
X01381499Y00648501
X01348Y00631
X013298Y006188
X013202Y006008
X01294Y00575795
X01286Y00575
X0128125Y00533
X01287Y00527
X01295
X01305Y00528
X01304Y00519
X0132137Y0052063
X0133Y00518
X01332823Y00529823
X01344052Y00525698
X0135Y00533
X01354Y0052
X01354Y004958
X01342
X01331Y00496
X01324Y004896
X01330234Y0048326
X01342Y004834
X01354
X01366
X0137Y004958
X01397Y00489
X014Y00462
Y00454
X01392
X01384
X01376
Y00462
X01384
X01392
X0141Y00463
X01418Y00516
X014
X01392
X01388Y00529
X01381556Y00524085
X01395Y00534
X0138Y0058
X01388975Y00596618
X01307Y00654
Y00663
X01268Y00667
X01266Y00689
X01259Y00693
X01239
X01228Y00663
X01219Y00649
Y00641
X01227Y00622
X01225Y00588
X0122Y00581
X01205Y00579
X01206Y00587
X01186Y00579
X01177
X01143708Y00579292
X01132Y0058
Y00604
X011213Y006163
X01121Y00628
X01120089Y00643
X01110567
X01101044
X01091522
X01082
Y00635
X01082Y00627
X010715
X01061Y00627
X010505Y00627
X0104
X01064Y00635
X01063Y00661
X01064Y0067
X01060967Y0068
X01071458
X0108195Y0068
Y00688
X01090958Y00688
X01099967
X01108975
X01117983
X01126992
X01136
X01137Y00679
X01141Y00672
X01147Y00666
X01138817Y00656
X01130693
X01122569
X01114445
X01098198
X01090074
X0108195
Y00664
Y00672
X0108995Y00679
Y00665
X0108Y007
X0112
X01111Y00711
X01148Y00702
X0115Y00735
X01158Y00733
X01156Y00741
X01162Y00748
X011695Y007235
X0119Y00723
Y00732
X01187Y0074
X0119Y0071
X01207Y00709
X01204Y00699417
X01196368Y00696632
X0118Y00698
X0118Y0066
X01148Y0064
X01139133Y00643
X01129611
X01146Y00623
Y00615
X01151Y00531
X01164Y00532
X01176Y00531
X01185
X01204Y00533
X01201Y00495
X01192Y00489
X01183
X01174
X012Y00468
X01226Y004834
X01235Y00484
X01245Y00486
X01253Y0048393
X0125Y004958
X01240957Y00495042
X01266Y004958
X0127Y004834
X0129
X01286Y004958
X01297Y00496
X01315272Y00482918
X01308795Y00461205
X0130818Y0045218
X01318269Y00455
X0133
X0133194Y00464
X01284Y00515
X01267Y00513
X01271Y00529
Y00537
X01262Y00537
X01226Y00512
X01235Y00459
X01151376Y00456376
X01106Y00493
X011Y005
X01112399Y00520399
X01096Y0053
X0113Y00529
X012382Y005968
X01248Y00597
X01264Y00635
X01272Y00637
X01273723Y006458
X0132Y007
X013Y0074
X0134
X0136Y0078
X0132
X01326Y00801
X01334
X01334Y00823
X01346
X01358
X0137
X01382
X01394
X01406
X01418
X01422Y00802
X0143Y00844
X01403Y00835
X01394Y008362
X01382
X0137
X01358
X01346
X01334
X01322
X0131
X01298
X01286
X01274
X01262
X0125
X01238
X01238Y00823
X0125
X01262
X01274
X01286
X01298
X01246Y00801
X01247Y00773
X0122154Y0076554
X0121673Y00757151
X012045Y007725
X0121625Y00800295
X0119Y00824
X0118Y0082
X0114
X011
X0112Y0075
X0104Y007
X01039983Y0068
X01050475
X01029492
X01019Y0068
Y00671167
Y00662333
Y006535
Y00644667
Y00635833
Y00627
X010295
X01035Y0065273
X00994Y00653
X0099724Y00669923
X00986Y0067
X00973Y00651
X00994Y00625
X01004Y00691
X01011151Y0070873
X01006Y00718
X01021Y00714
X0103Y0074
X0098Y0074
X00963Y0075
X0096Y0078
X00973Y00783
X0098Y00788
X01000033Y00769049
X0099238Y00760581
X00975Y00714
X00912Y00706095
X00911442Y006822
X00892Y00685
X00869Y00687
X0086Y0066
X00878Y00639
X00886
X00915998Y00648083
X00925717Y00655717
X00917Y00665
X00916051Y00620563
X00911Y00599
X00897208Y00596822
X00886042Y00596958
X0088Y00604
X00892Y00605
X00903Y00532
X0094Y005
X00961Y00470345
X00972Y00468
X00982Y00465075
X01Y0046
X0102Y005
X0088Y0046
X00857Y00470345
X00827Y00507
X00825Y00529
X00833
X00843Y00541
X00849Y00547
X00808Y00496
X00717Y00509
X00709
X0074Y0058
X0078
X007895Y005975
X0078Y0066
X0082
Y0074
X007915Y0072342
X007795Y00721663
X0076Y007
X0072
X0068
X007Y0066
X0074
X00731Y00743
X00655Y00745
Y00755
X00645
Y00745
X007Y0082
X0074
X0078
X0082
X0086
X0084Y0078
X00789Y00771
X009Y0074
X0102Y0082
X0068Y0062
X00679Y00602
Y00593
X0066Y0058
X00638779Y00598
X00603Y00553
X00603Y005205
X00609Y00514
X00603Y005075
X00571Y00518
X00567Y00494
X00557Y00493
X00547Y00454
X00522Y00479
X00498Y00455
X00497905Y00514
X00501952Y00520952
X00493Y00521805
X00485
X00477Y00517
X00473Y00524
X00466Y00529
X00494Y00536
X00503
X00512Y00534
X00483Y00511
X00492Y00566
X005Y0058
X0052Y0062
X00515Y00645
X00495
Y0067
X00515
X00535
Y00695
X00515
X00495
X0048Y007
X0048Y00737
X00467Y00675
X0046Y0066
X00467Y006502
X0042Y0066
X0044Y007
X004
X0036
X0032
X003Y0068
Y0067
Y0066
X0029Y0069
X0028
X0027
X0026
X00245Y0068
Y0067
Y0066
X0027Y0072
X0025Y0076
X00274Y00819
X00293
X00325Y0082
X00335
X00345
X00355
X00365
X00375
X00385
Y0081
Y008
Y0079
X00325
Y008
Y0081
X0032Y0062
X004
X004Y005812
X00422Y005807
X00405Y0047
Y0046
X00395
X00385
X00375
Y0047
X00385
X00395
X0032Y0046
X0028
X00558Y00595
X00562Y006502
X00585Y006567
X006Y007
X0056
X00535Y00645
X00625Y00745
X00635
Y00755
X00625
X00583Y00844
X0024Y00792
X0023Y00695
X0022Y00685
X0021
X00225Y00675
Y00665
Y00655
Y00645
Y00635
X00207Y00584
X00177
Y00554
Y00524
X00147
Y00554
Y00584
X001Y0058
X0008Y0062
X0006Y0066
X001
X00094Y00686
X000958Y00704
X0008Y007
X000963Y00728
X0006Y0074
X0008Y0078
X0012
X001Y0082
X0019Y0072
X002048Y007048
X00207Y00554
Y00524
X0016Y0046
X0012
X001Y005
X0008Y0054
Y0086
X0012
X001Y009
X0006
X0002
Y0098
X0006
X001
X0014
X0012Y0094
X001Y0106
X0006
X0002
X0004Y011
X0008
X001Y0114
X0014
X0018
X0022
Y0106
X0018
X0012Y0118
X0028
X003Y0114
X0034
X0038
X0042
X0046
X005
X0054
X0058
X0062
X006Y011
X0052
X0048
X0048Y0118
X005291Y01067
X0055233Y0101813
Y0099813
Y0097813
X0057733
Y0099813
Y0101813
X0060233
Y0099813
Y0097813
X006Y0094
X0059957Y00926
X0062257Y00929
X0062Y00885
Y00875
X0061
X006
X0059
Y00885
X006
X0061
X0058Y009
X0056457Y0092
X0056Y0094
X0057957Y00937
X00486Y00935
Y00905
X00456
Y00875
X00486
X00529Y00875
X00542Y00853
X00426Y00875
Y00905
Y00935
X00456
X0046Y0098
X0046Y009968
X00475Y01005
X0049095Y0098505
X0051Y00985
X00529
X0062757Y01
X0063757
Y0101
X0062757
X0046Y010352
X00415Y01039
X0038Y01028
X0036Y0102
X0038Y0106
X0036Y011
X0032
X0028
X0026Y0114
Y0106
X0027Y009312
X002852Y009462
X003Y0095
X0033Y00945
Y00935
X0034Y00955
X0035
X0036
X0037
X00385Y00945
Y00935
X0038Y0098
X004Y00994
X004175Y009943
X00315Y0091
X00295Y009182
X0032Y0086
X00331Y00848
X0036Y0086
X0069206Y0092
X0070706Y00937
X0068Y0094
X0067982Y0097813
Y0099813
Y0101813
X0070482
Y0099813
Y0097813
X0072982
Y0099813
Y0101813
X0075506Y0101
X0076506
Y01
X0075506
X0080731Y0099813
Y0097813
X0083231
Y0099813
Y0101813
X0080731
X0085731
Y0099813
Y0097813
X0088255Y01
X0089255
Y0101
X0088255
X009348Y0101813
Y0099813
Y0097813
X009598
Y0099813
Y0101813
X009848
X01Y0102
X0101004Y0101
X0102004
Y01
X0101004
X009848Y0099813
Y0097813
X01Y0094
X0100504Y00929
X0098204Y00926
X0096204Y00937
X0094704Y0092
X0092Y0094
X0088
X0087755Y00929
X0085455Y00926
X0083455Y00937
X0081955Y0092
X008Y0094
X0075006Y00929
X0072706Y00926
X0074Y0088
X0082
X00899Y00892
X0092Y0086
X0096
X01
X0098Y00893
X0102Y0106
Y0114
X0098
X0094
X009
X0086
X0082
X0078
X0074
X007
X0066
X0068Y011
X0072
X007Y0106
X0066
Y0098
X0078Y0106
X0082
X008Y011
X0092
X009Y0106
X0088Y0118
X0068
X0108
X011Y0114
X0114
X0118
X0122
X0126
X013
X0134
X0138
X0142
Y0106
X0140251Y0101
X0139251
Y01
X0140251
X0136727Y0099813
Y0097813
X0134227
Y0099813
Y0101813
X0131727
Y0099813
Y0097813
X013Y0098
X0126
X0123978Y0097813
Y0099813
Y0101813
X0121478
Y0099813
Y0097813
X0118978
Y0099813
Y0101813
X0114753Y0101
X0113753
Y01
X0114753
X0111229Y0099813
Y0097813
X0108729
Y0099813
Y0101813
X0106229
Y0099813
Y0097813
X0108953Y00937
X0110953Y00926
X0112Y0094
X0113253Y00929
X01135Y0089
X01148781Y00891359
X01156Y00898
X01169033Y00887049
X01165Y0088
X01167Y00872
Y00864
X01146985Y00870532
X01145Y00879
X01122Y00894
X0112Y0086
X0108
X0104
X01061Y00893
X0107453Y0092
X01175Y00893
X0122Y009
X0120202Y0092
X012Y0094
X0121702Y00937
X0124Y0094
X0123702Y00926
X0126002Y00929
X0126Y009
X013
X0134
X0132951Y0092
X0132Y0094
X0134451Y00937
X0136Y0094
X0136451Y00926
X0138751Y00929
X01418Y008538
X0132Y0086
X0128
X0124
X012
X0126502Y01
X0127502
Y0101
X0126502
X0126Y0106
X013
X0132Y011
X0136
X0128
X0124
X0116
X0114Y0106
X0111229Y0101813
X0104Y011
X0106Y0114
X0128Y0118
X0136727Y0101813
X0144476
Y0099813
Y0097813
X0146976
Y0099813
Y0101813
X0149476
Y0099813
Y0097813
X0152Y01
X0153
Y0101
X0152
X01568Y01011
X01576
X0159Y01013
X016Y0102
X01581Y00998
X01562Y00999
X0156Y01029
X0158Y0106
X0154
X0156Y011
X0154Y0114
X0158
X0162
X01605Y01155
X01635
X0166Y0114
X017
X0171Y0118
X0176Y011
X0174Y0106
X01709Y01036
Y01021
X0172Y0102
X01709Y01006
Y00991
Y00961
X0172Y0094
X0176
X0174Y0098
X0176Y0102
X0168Y01057
X0166Y0106
Y0098
X01669Y00977
X01671Y00948
X0168Y0094
X01645Y00954
X01569Y00948
Y0094
X0152Y0094
X0151494Y0092894
X01527849Y0092827
X01527Y0091673
X01492Y00926
X01472Y00937
X01457Y0092
X0146Y0106
X0144Y011
X0146Y0114
X015
X0148Y0118
X0164Y0086
X01652Y00868
X01673Y00856
X01683Y00855
X0171395Y008485
X0172195Y008535
X01725Y00881
X01712
X01699
X017Y009
X0174
X01738Y00869
X01789Y00875
T02
X005Y00767
Y00787
T04
X01576Y000161
Y000415
X01639Y00042
Y000166
X001887Y00148
X001633
X002893
X003147
X004423
X004677
X00598198Y00147271
X00623598
X00726098Y00147271
X00751498
X00854198Y00147271
X00879598
X00981198
X01006598
X01108198Y00148771
X01133598
X01233598
X01258998
X01358998
X01384398
X01484398
X01509798
X01576Y000669
X01639Y000674
X009514Y00506
X00926
X009006
X0095Y005873
Y006127
X0085
Y005873
X008866Y007846
Y0081
Y008354
X00912
X009374
Y0081
Y007846
X00912
Y0081
X0061112Y01054
X0058572
X004607Y01055
X004353
X002994Y00851
X00274
X002486
X0071321Y01054
X0073861
X008407
X008661
X0096819
X0099359
X0109568
X0112108
X0122317
X0124857
X0135066
X0137606
X0147815
X0150355
T05
X016011Y0034905
Y0037445
Y0039985
Y0042525
X016265Y0041255
Y0038715
Y0036175
Y0033635
T06
X01626Y005255
X01646
X01666
X01686
X00398Y00642
X00348
X0019Y00805
X0014
Y00915
X0019
X00629Y00854
X00679
T08
X00427Y0043975
X007275Y005675
X007725
Y006325
X007275
X00681506Y00681001
Y00757001
X00427Y0046425
T09
X01739Y003146
Y0034
Y004217
Y004471
T10
X00038Y00144
Y001821
Y002202
Y002583
Y002964
Y003344
Y003725
Y004106
Y004487
X00139Y00309
X00339
X00038Y004868
Y005248
Y005629
Y00601
Y006391
Y006772
Y007152
Y007533
Y007914
Y008295
Y008676
Y009056
Y009437
Y009818
Y010199
Y01058
T11
X001502Y001
X00201
X002782
X00329
X0040461
X0045541
X0050621
X005831
X006339
X0071012
X0076092
X0083714
X0088794
X0096416
X0101496
X0109118
X0114198
X012182
X01269
X0134522
X0139602
X0147224
X0152304
X0019Y011
X001392
X00397Y0109995
X004478
X004986
X0057302
X0062382
X0070051
X0075131
X00828
X008788
X0095549
X0100629
X0108298
X0113378
X0121047
X0126127
X0133796
X0138876
X0146545
X0151625
T12
X016595Y003034
Y004583
T13
X01621Y00498
Y00553
X01691
Y00498
T14
X01539Y004946
X01059
Y008246
T15
X0175Y0005
X0005
X0005Y0115
X0175
T16
X01726Y0
X0173
X01734
X00904
X009
X00896
X00074
X0007
X00066
X0Y00065
Y00069
Y00073
X018Y00074
Y0007
Y00066
Y00596
Y006
Y00604
X0
Y006
Y00596
Y01126
Y0113
Y01134
X00066Y012
X0007
X00074
X00896
X009
X00904
X01726
X0173
X01734
X018Y01134
Y0113
Y01126
T17
X01721Y-00001
X01739
X00909
X00891
X00079
X00061
X-00001Y0006
Y00078
X01801Y00079
Y00061
Y00591
Y00609
X-00001
Y00591
Y01121
Y01139
X00061Y01201
X00079
X00891
X00909
X01721
X01739
X01801Y01139
Y01121
T18
X01737Y00623
Y00667
X01644Y01136
X016
T19
X0132Y0027
Y0035
X0174Y00237
Y00157
T20
X01539Y008246
T21
X0169Y003237
Y00438
M30
